<?xml version="1.0" encoding="UTF-8" standalone="no"?>
<!-- Created with Inkscape (http://www.inkscape.org/) -->

<svg
   width="69.492744mm"
   height="62.341961mm"
   viewBox="0 0 69.492744 62.341961"
   version="1.1"
   id="svg1"
   xmlns="http://www.w3.org/2000/svg"
   xmlns:svg="http://www.w3.org/2000/svg">
  <defs
     id="defs1" />
  <g
     id="layer1"
     transform="translate(-45.991924,-48.299511)">
    <path
       style="display:inline;fill:#f2f2f2;fill-opacity:1;stroke-width:0.264583"
       d="m 61.994791,110.5385 c -1.088004,-0.23046 -2.010241,-0.89996 -2.397749,-1.74065 -0.858264,-1.86197 0.418994,-4.24489 2.375389,-4.43166 0.517464,-0.0494 1.097209,0.10733 1.136761,0.30731 0.0145,0.0733 -0.09415,0.29982 -0.241461,0.50329 -0.337812,0.46661 -0.411777,1.07852 -0.182639,1.51101 0.212841,0.40173 0.777607,0.67403 1.270026,0.61234 1.721683,-0.21569 3.066505,-2.19575 4.788662,-7.05062 1.28186,-3.613654 1.8524,-4.66592 3.20188,-5.905343 0.31995,-0.293856 0.73252,-0.618124 0.91681,-0.720598 0.18429,-0.10247 0.33536,-0.213661 0.33572,-0.247091 0.003,-0.245671 -2.67062,0.180192 -3.739532,0.595733 -1.682735,0.654169 -3.006553,1.753814 -3.770284,3.131825 -0.655833,1.183333 -0.690446,2.062602 -0.103021,2.616928 0.379043,0.357686 1.024578,0.428696 1.536322,0.168994 0.186272,-0.09453 0.356254,-0.171865 0.377735,-0.171865 0.21848,0 -0.385426,1.250277 -0.810609,1.678207 -0.573376,0.57709 -1.946773,1.06812 -2.643346,0.94508 -1.314326,-0.23216 -2.088698,-1.42979 -1.978443,-3.059812 0.09567,-1.414405 0.71543,-2.643603 1.927891,-3.823682 0.864317,-0.84123 1.639808,-1.375333 2.868613,-1.975694 3.498164,-1.709118 7.164884,-1.956324 9.731824,-0.656108 1.31563,0.666395 2.0629,1.570307 2.27623,2.753397 0.24414,1.353846 -0.5919,3.037742 -2.03014,4.089011 -0.69795,0.510158 -1.8867,1.108138 -2.58729,1.301498 l -0.48464,0.13376 0.287,0.3093 c 0.36696,0.39545 0.80667,1.16287 1.37156,2.39373 0.63525,1.38419 1.14219,2.18684 1.77246,2.8064 0.61418,0.60373 1.48197,1.07393 2.23191,1.20931 1.58082,0.28539 3.80016,-0.14059 7.04327,-1.35186 4.53621,-1.69424 6.44862,-2.14381 8.58937,-2.0192 1.62862,0.0948 2.84689,0.5019 3.67736,1.22885 1.19246,1.04383 1.19486,2.671 0.005,3.71215 -0.42413,0.37126 -1.16604,0.78021 -1.41543,0.78021 -0.28331,0 -0.36061,-0.21464 -0.21291,-0.59117 0.36218,-0.92332 0.0182,-1.56207 -1.12008,-2.07988 -0.71225,-0.32401 -1.46344,-0.47403 -2.70542,-0.54029 -2.19039,-0.11686 -4.3546,0.40579 -8.60802,2.07881 -2.6238,1.03203 -4.36987,1.42798 -5.9517,1.34966 -2.81741,-0.1395 -4.55157,-1.3411 -5.28046,-3.65884 -0.0977,-0.31058 -0.28769,-1.16761 -0.42227,-1.90451 -0.30679,-1.67982 -0.44611,-2.19639 -0.73056,-2.70893 -0.25565,-0.46065 -0.57364,-0.67513 -1.05628,-0.71244 l -0.33088,-0.0256 -0.51937,1.45395 c -1.087237,3.04365 -1.746893,4.33946 -2.887412,5.67194 -1.389972,1.6239 -3.598534,2.4385 -5.512305,2.03313 z M 72.90184,99.891945 c 1.14282,-0.397957 2.25173,-1.282634 2.73873,-2.184943 0.57114,-1.058193 0.7183,-2.422043 0.33827,-3.135129 -0.19604,-0.367851 -0.69635,-0.744228 -1.08816,-0.818611 -0.23321,-0.04427 -0.31527,-0.0038 -0.69738,0.343694 -0.88635,0.806125 -1.48418,1.907553 -2.36679,4.360508 -0.30384,0.844439 -0.57434,1.569846 -0.60111,1.612016 -0.0858,0.13508 1.15646,0.004 1.67644,-0.177535 z m 6.64791,4.529285 c -0.8722,-0.43015 -1.27324,-1.16145 -1.27324,-2.32177 0,-0.98545 0.29354,-2.06989 0.85302,-3.151305 0.79998,-1.546291 2.54105,-3.11331 3.88568,-3.497247 0.87147,-0.248832 1.94179,-0.0032 2.34939,0.539216 0.23098,0.307358 0.33452,0.989671 0.23839,1.570836 -0.12312,0.744347 -0.50102,1.411248 -1.16722,2.059856 -0.88511,0.861744 -1.79419,1.272834 -3.34989,1.514844 -0.30964,0.0482 -0.31215,0.0516 -0.31093,0.42984 0.002,0.47608 0.13048,0.72992 0.49093,0.96642 0.70899,0.46517 2.16651,-0.005 3.25922,-1.0511 0.90187,-0.86351 1.37328,-1.506309 1.61961,-2.208455 0.2831,-0.806945 0.44541,-1.124752 0.99802,-1.954141 0.85764,-1.28718 2.23262,-2.458091 3.22264,-2.744333 0.50081,-0.144798 1.49463,-0.16315 1.75536,-0.03241 0.1,0.05014 0.26595,0.165775 0.36878,0.256956 0.10283,0.09118 0.20835,0.144965 0.23449,0.119517 0.10165,-0.09897 1.12856,-3.028796 1.17351,-3.348114 0.0347,-0.246499 0.008,-0.397103 -0.0987,-0.55563 -0.18449,-0.274135 -0.0769,-0.551172 0.28491,-0.733309 0.39977,-0.201271 2.10091,-0.774213 2.29875,-0.774213 0.0997,0 0.2515,0.07561 0.33741,0.168034 0.15297,0.164568 0.15229,0.182359 -0.0327,0.862124 -0.10387,0.381751 -0.75339,2.248127 -1.44338,4.147508 -1.69444,4.664413 -1.97616,5.647226 -1.74124,6.074586 0.36447,0.66303 1.68994,-0.769426 2.30754,-2.493782 0.84483,-2.358845 2.17353,-4.070892 3.75397,-4.837073 0.56001,-0.271483 0.73532,-0.316764 1.31228,-0.338931 0.78947,-0.03033 1.15047,0.115845 1.41804,0.574191 l 0.16944,0.290243 0.18406,-0.390618 c 0.2201,-0.467117 0.47488,-0.606835 1.34677,-0.738539 0.69178,-0.1045 0.96835,-0.03416 1.04455,0.265655 0.0297,0.116885 -0.10992,0.588314 -0.37886,1.279183 -0.93352,2.398107 -1.43989,3.982953 -1.44676,4.528032 -0.007,0.586843 0.0996,0.720428 0.50087,0.625202 0.32056,-0.07608 1.12628,-0.89976 1.73852,-1.777291 0.49222,-0.705498 0.59197,-0.783195 0.77574,-0.604274 0.1795,0.174758 0.10582,0.543211 -0.24413,1.220854 -1.01425,1.963978 -2.43758,3.242728 -3.74557,3.365088 -0.94865,0.0888 -1.77052,-0.67883 -1.61416,-1.50754 0.0637,-0.337797 0.0748,-0.346343 -0.52798,0.40616 -1.1837,1.4776 -2.44832,2.06619 -3.46924,1.61469 -0.35856,-0.15857 -0.75204,-0.55713 -0.88424,-0.89567 -0.0443,-0.1134 -0.10615,-0.40391 -0.13748,-0.64556 l -0.057,-0.43937 -0.43817,0.69837 c -0.57884,0.92258 -1.22226,1.58978 -1.79761,1.86406 -0.36976,0.17628 -0.57594,0.21885 -1.05993,0.21885 -0.51158,0 -0.64115,-0.0299 -0.87184,-0.20121 -0.35587,-0.26427 -0.57447,-0.81705 -0.50486,-1.27662 0.0488,-0.32201 0.0437,-0.33456 -0.0746,-0.18355 -1.2322,1.57341 -2.01131,2.13812 -3.05005,2.21072 -0.45382,0.0317 -0.62304,0.007 -0.92741,-0.13667 -0.58172,-0.27417 -0.97149,-0.97302 -0.97261,-1.74388 l -5.3e-4,-0.31817 -1.10294,1.10196 c -1.62803,1.62657 -2.44388,2.07626 -3.8915,2.14495 -0.75825,0.036 -0.81203,0.0271 -1.30721,-0.21716 z m 9.93072,-3.0061 c 0.63605,-0.38272 1.89052,-2.471391 2.40053,-3.996838 0.53166,-1.590228 0.0627,-2.357395 -1.00526,-1.644362 -0.8022,0.535612 -1.70786,1.919052 -2.23716,3.417393 -0.23278,0.658974 -0.35402,1.563957 -0.25892,1.932847 0.12135,0.47072 0.59431,0.59573 1.10081,0.29096 z m 9.92754,-1.431163 c 0.80587,-0.59558 2.26522,-3.565446 2.38901,-4.861758 0.0604,-0.632529 -0.0676,-0.865842 -0.49396,-0.900147 -0.43724,-0.03519 -0.81905,0.226673 -1.45795,0.999902 -0.90247,1.092219 -1.75476,3.084198 -1.75676,4.105908 -7.9e-4,0.369541 0.12808,0.721128 0.31532,0.860748 0.1956,0.14585 0.65742,0.0517 1.00434,-0.204653 z m -17.15275,-0.36354 c 1.00504,-0.673225 1.63998,-1.67013 1.63998,-2.574856 0,-0.521433 -0.003,-0.52903 -0.23803,-0.555168 -0.19372,-0.02156 -0.3122,0.04841 -0.63641,0.375894 -0.21911,0.221319 -0.59431,0.670877 -0.83379,0.999019 -0.45505,0.623535 -1.26596,2.162264 -1.19686,2.271114 0.0583,0.0919 0.82371,-0.220326 1.26511,-0.516003 z M 48.748109,95.788839 c -1.032621,-0.281876 -1.901066,-0.91817 -2.293602,-1.680485 -0.790611,-1.535385 -0.556305,-3.150282 0.61488,-4.23791 0.965495,-0.896612 2.085212,-1.086676 2.965375,-0.503349 0.149468,0.09906 0.272015,0.222303 0.272328,0.273868 2.64e-4,0.05157 -0.182386,0.242892 -0.405998,0.425169 -0.480883,0.391988 -0.675561,0.75048 -0.675561,1.244023 0,0.400992 0.219329,0.784569 0.6096,1.066105 0.34213,0.246808 1.208892,0.233418 1.721139,-0.02659 1.443116,-0.73251 2.322353,-2.229231 4.121906,-7.0167 0.469133,-1.24806 0.970161,-2.519677 1.113399,-2.825811 0.520811,-1.113107 1.182269,-2.099754 1.836295,-2.739059 l 0.635553,-0.621247 -0.37828,-0.03398 c -1.015918,-0.09126 -2.419069,-0.0619 -3.046987,0.06376 -1.879068,0.376045 -3.374392,1.49547 -3.857278,2.887628 -0.462492,1.333352 0.0104,2.255063 1.156962,2.255063 0.533376,0 0.904539,-0.183573 1.133224,-0.560488 0.29414,-0.484791 0.578773,-0.231603 0.506463,0.450514 -0.101976,0.961982 -0.885156,1.952775 -1.947154,2.463326 -0.477893,0.229746 -0.679108,0.277715 -1.285724,0.306507 -0.999104,0.04742 -1.46272,-0.110596 -2.075847,-0.707536 -0.581649,-0.566293 -0.832953,-1.153096 -0.887907,-2.073283 -0.09063,-1.517594 0.476896,-2.840802 1.794727,-4.184465 1.155827,-1.178485 2.357758,-1.877724 3.987231,-2.319618 0.738923,-0.20039 0.937789,-0.220183 2.146231,-0.213616 0.946724,0.0051 1.51238,0.04794 1.956155,0.148013 0.907621,0.204663 2.241399,0.250508 2.955041,0.101571 0.456036,-0.09518 0.627917,-0.101084 0.790787,-0.02718 0.426807,0.193653 0.258386,0.731178 -0.31895,1.017936 -0.807749,0.401204 -1.740321,1.735434 -2.327333,3.329723 -0.371581,1.009185 -0.944145,2.771688 -0.910918,2.804036 0.01579,0.01537 0.259201,-0.0782 0.540932,-0.207915 0.950886,-0.437824 2.494666,-2.078125 3.549338,-3.771244 1.479746,-2.375519 2.632212,-3.454167 3.831119,-3.585733 0.79825,-0.0876 1.677519,0.332681 1.930818,0.922911 0.220975,0.514903 0.09363,1.664613 -0.204224,1.843839 -0.04731,0.02846 -0.224917,-0.04002 -0.394692,-0.152194 -0.429501,-0.283771 -0.843394,-0.268152 -1.480788,0.05588 -0.409433,0.208145 -0.951066,0.689214 -2.722973,2.41848 -1.953943,1.906926 -3.038602,2.832618 -3.319055,2.832618 -0.177268,0 -0.07996,0.129342 0.212783,0.282832 0.539409,0.282821 1.140434,1.155047 1.43283,2.07936 0.09373,0.296299 0.268848,1.080389 0.389147,1.742425 0.256182,1.409832 0.502282,2.153316 0.911278,2.753045 0.374898,0.549732 0.823785,0.84274 1.395068,0.910624 0.611238,0.07263 0.635045,0.27142 0.08075,0.674312 -1.372762,0.997804 -2.524676,1.179454 -3.532675,0.557077 -1.001395,-0.618299 -1.487347,-1.991883 -1.764699,-4.988046 -0.147722,-1.595813 -0.223287,-1.969842 -0.480608,-2.378858 -0.177273,-0.281782 -0.594376,-0.578382 -0.814107,-0.578909 -0.08705,-2.09e-4 -0.264985,0.370936 -0.572937,1.195081 -0.245668,0.65746 -0.57614,1.541843 -0.734382,1.965293 -0.423434,1.133081 -1.451489,3.11831 -1.951525,3.7685 -0.964147,1.253659 -2.046787,2.083948 -3.232517,2.479053 -0.700704,0.233487 -2.313279,0.296178 -2.974642,0.115644 z M 65.082867,91.65278 c -0.374253,-0.183001 -0.76596,-0.655481 -0.930595,-1.122489 -0.350975,-0.995582 -0.0297,-2.812643 0.771615,-4.364048 0.648044,-1.254662 1.730468,-2.554478 2.589588,-3.109675 1.222727,-0.790172 2.776455,-0.898115 3.229865,-0.224387 l 0.13488,0.200406 0.18223,-0.26061 c 0.3186,-0.455639 0.56387,-0.573791 1.3806,-0.665056 0.6861,-0.07667 0.76961,-0.07088 0.92256,0.06388 0.0925,0.0815 0.16817,0.242816 0.16815,0.358484 -1e-5,0.11567 -0.25969,0.886412 -0.57707,1.712761 -0.67332,1.7531 -1.13605,3.199466 -1.27379,3.98149 -0.0857,0.486534 -0.0811,0.571497 0.0371,0.686575 0.56613,0.551188 2.00187,-1.412113 3.00711,-4.112072 0.50413,-1.354061 0.69083,-2.079927 0.56616,-2.201299 -0.12902,-0.125616 -0.11974,-0.586952 0.014,-0.695002 0.11124,-0.08988 2.11561,-0.498475 2.44806,-0.499041 0.39759,-7.94e-4 0.38656,0.526917 -0.0274,1.312611 -0.23207,0.440444 -0.10659,0.401108 0.20562,-0.06445 0.48418,-0.722024 0.94457,-1.187093 1.43916,-1.453811 0.40789,-0.219959 0.51415,-0.240398 1.24993,-0.240398 0.76151,0 0.82325,0.01307 1.16487,0.24665 0.81824,0.559443 1.08719,1.782601 0.73955,3.363402 -0.2129,0.968118 -0.61385,1.996776 -1.08294,2.778318 -0.17853,0.297445 -0.30386,0.540808 -0.27851,0.540808 0.10742,0 1.53264,-1.331338 1.67681,-1.566354 0.0867,-0.141412 0.20071,-0.521327 0.25324,-0.844256 0.27769,-1.706984 1.40657,-3.569042 2.77772,-4.581798 0.97425,-0.719595 1.77331,-1.030848 2.64645,-1.030848 1.29095,0 1.89411,0.635103 1.81032,1.906217 -0.0599,0.90819 -0.51559,1.764138 -1.35027,2.536065 -0.87283,0.807215 -1.62889,1.144583 -2.86285,1.277464 -0.42327,0.04558 -0.53954,0.08922 -0.58974,0.221356 -0.10328,0.271812 0.04,0.780074 0.29208,1.036262 0.57231,0.581596 1.64083,0.449305 2.71459,-0.336087 0.62002,-0.453504 1.90046,-1.897372 2.29607,-2.589128 0.20011,-0.349912 1.43294,-3.180128 1.43294,-3.289618 0,-0.01397 -0.23411,-0.03627 -0.52025,-0.04954 l -0.52026,-0.02413 0.005,-0.387985 c 0.007,-0.532792 0.20358,-0.710875 0.88245,-0.801264 0.28832,-0.03839 0.57033,-0.114739 0.62667,-0.169664 0.0563,-0.05492 0.22943,-0.555728 0.38463,-1.112899 l 0.28218,-1.013036 0.40765,-0.26769 c 0.57045,-0.374592 1.7122,-0.906735 2.06509,-0.96249 0.40955,-0.06471 0.46379,0.115398 0.22268,0.739494 -0.10425,0.269878 -0.33461,0.887672 -0.5119,1.372878 l -0.32234,0.88219 0.39271,-0.04777 c 0.21599,-0.02627 0.56666,-0.07211 0.77928,-0.101859 0.34348,-0.04806 0.39267,-0.0354 0.44122,0.113543 0.0623,0.191048 -0.22575,0.907799 -0.44103,1.097481 -0.0783,0.06897 -0.4454,0.159806 -0.84108,0.208111 -0.38619,0.04715 -0.73685,0.119486 -0.77924,0.160758 -0.12596,0.122637 -1.35905,3.971208 -1.46473,4.571508 -0.1358,0.771472 0.0324,1.189101 0.47899,1.189101 0.48411,0 1.81877,-1.759529 2.1354,-2.815151 0.4488,-1.496337 1.01117,-2.493547 1.93998,-3.440062 1.13298,-1.154565 2.44595,-1.821632 3.44674,-1.751153 0.39037,0.02749 0.53008,0.0783 0.73125,0.265946 0.13677,0.127577 0.27204,0.303631 0.3006,0.391229 0.0434,0.133139 0.0879,0.09532 0.27149,-0.230513 0.12076,-0.214381 0.31402,-0.457488 0.42947,-0.540242 0.22343,-0.160152 1.62004,-0.37302 1.85975,-0.283461 0.30776,0.11498 0.24316,0.422756 -0.56247,2.679734 -0.89282,2.501265 -1.15181,3.389101 -1.15181,3.948515 0,0.46582 0.0528,0.559514 0.31522,0.559514 0.44323,0 1.43251,-1.194599 2.03173,-2.453378 0.4289,-0.901009 1.39189,-3.701997 1.497,-4.354235 0.0467,-0.289729 0.13624,-0.56325 0.19902,-0.607822 0.0628,-0.04457 0.59217,-0.205811 1.17643,-0.358306 1.14371,-0.298508 1.31236,-0.287362 1.35922,0.08983 0.0138,0.110789 -0.11089,0.502399 -0.27701,0.870244 -0.16611,0.367842 -0.28745,0.682995 -0.26964,0.700339 0.0178,0.01736 0.17259,-0.147458 0.34394,-0.366221 0.42644,-0.544412 1.39978,-1.426024 1.77956,-1.611852 1.0272,-0.5026 2.02055,-0.380831 2.45407,0.300829 0.43421,0.682757 0.36022,1.370909 -0.40374,3.754641 -0.71864,2.242309 -0.74787,2.363814 -0.62951,2.616734 0.23893,0.510538 0.86919,0.07901 1.73592,-1.188548 0.60099,-0.878916 0.62086,-0.899213 0.81099,-0.828177 0.0944,0.03525 0.13238,0.156122 0.13238,0.420915 0,0.710983 -1.26835,2.641174 -2.10355,3.201215 -1.25981,0.844756 -2.6969,0.828574 -3.12568,-0.03519 -0.41162,-0.829204 -0.32566,-1.70584 0.38035,-3.878995 0.58577,-1.803072 0.68027,-2.186654 0.59436,-2.412759 -0.22964,-0.604383 -1.55413,0.401053 -2.18924,1.661877 -0.52482,1.04186 -1.54414,4.206131 -1.54722,4.803031 -0.002,0.344871 -0.16321,0.791821 -0.30513,0.844844 -0.0744,0.0278 -0.40143,0.08874 -0.72673,0.13543 -0.3253,0.04669 -0.81002,0.116414 -1.07715,0.154945 -0.81641,0.117763 -0.88694,0.01508 -0.59806,-0.87058 0.11165,-0.34231 0.19374,-0.631388 0.18243,-0.6424 -0.0113,-0.01101 -0.25284,0.269401 -0.53674,0.623144 -0.5818,0.724942 -1.10354,1.134904 -1.74901,1.374314 -1.11476,0.413473 -1.9021,-0.0093 -2.00835,-1.078462 l -0.0487,-0.490358 -0.23997,0.353782 c -0.39756,0.586119 -1.32872,1.420162 -1.89087,1.693656 -0.93804,0.456372 -1.89559,0.285012 -2.40059,-0.429598 -0.19621,-0.277649 -0.43204,-0.846252 -0.53933,-1.300348 -0.0101,-0.04255 -0.26725,0.290261 -0.57155,0.739587 -0.89754,1.325261 -1.6481,1.870805 -2.68543,1.951871 -0.6469,0.05056 -1.04109,-0.07383 -1.36213,-0.429813 -0.32505,-0.360442 -0.44747,-0.823894 -0.40974,-1.551257 0.0168,-0.323004 0.009,-0.561102 -0.017,-0.529106 -0.0261,0.03199 -0.20255,0.258755 -0.39205,0.50391 -0.81536,1.054819 -1.99559,2.091719 -2.87001,2.521471 -1.81401,0.891534 -3.66753,0.438081 -4.06365,-0.994146 -0.0474,-0.171423 -0.10711,-0.311681 -0.13266,-0.311681 -0.0256,0 -0.29568,0.224162 -0.60029,0.498141 -0.3046,0.273976 -0.86326,0.695928 -1.24146,0.937673 -2.18423,1.396145 -4.25651,1.703951 -5.26959,0.782717 l -0.21362,-0.194255 -0.45691,1.11524 -0.45692,1.11524 -0.32835,-0.0154 c -1.44364,-0.06776 -2.11802,-0.138633 -2.11802,-0.222596 0,-0.09638 0.76182,-1.83329 0.92101,-2.099871 0.19622,-0.328568 -0.002,-0.193418 -0.33779,0.230082 -0.4828,0.609269 -1.29511,1.329102 -1.70386,1.509871 -0.20438,0.09039 -0.53178,0.149206 -0.83552,0.150106 -0.84913,0.0024 -1.256515,-0.376859 -1.349815,-1.257001 l -0.04563,-0.430416 -0.366078,0.474133 c -0.862544,1.117142 -1.912202,1.783051 -2.809195,1.782167 -0.284633,-2.65e-4 -0.616474,-0.05405 -0.756682,-0.122608 z m 2.481422,-2.093925 c 0.497501,-0.20238 1.033666,-0.900748 1.687202,-2.197622 1.134679,-2.251651 1.377159,-3.932774 0.567239,-3.932774 -0.655104,0 -1.52557,0.962385 -2.382328,2.633898 -0.545179,1.063627 -0.743307,1.682972 -0.790731,2.471811 -0.0373,0.620435 -0.02336,0.711004 0.140391,0.911733 0.203036,0.248899 0.380664,0.27468 0.778227,0.112954 z m 10.013461,-0.83157 c 1.10688,-0.511384 2.60356,-3.620736 2.61149,-5.425369 0.003,-0.720653 -0.55511,-0.994007 -1.21686,-0.595823 -0.98799,0.594493 -2.44311,3.670417 -2.44372,5.165704 -1.9e-4,0.458806 0.0254,0.537678 0.24311,0.749649 0.27888,0.271516 0.41008,0.288745 0.80598,0.105839 z M 99.48161,85.16979 c 0.47372,-0.394779 0.8472,-0.91504 1.33734,-1.862894 0.81976,-1.585291 1.09789,-2.423747 1.09789,-3.309681 0,-0.441507 -0.0332,-0.56837 -0.19715,-0.753972 -0.18993,-0.21498 -0.20993,-0.219422 -0.54624,-0.121322 -0.69379,0.202377 -1.46805,1.108411 -2.16615,2.53479 -0.54173,1.106897 -0.78245,1.959787 -0.78928,2.796431 -0.004,0.540073 0.0234,0.691005 0.15318,0.830691 0.25521,0.274723 0.69855,0.229191 1.11041,-0.114043 z M 86.35877,84.43182 c 0.73741,-0.377264 1.58045,-1.231353 1.92689,-1.952133 0.29619,-0.616231 0.35694,-1.311331 0.13364,-1.529191 -0.12784,-0.124728 -0.15597,-0.123537 -0.40379,0.01709 -0.29832,0.16928 -1.09259,1.164283 -1.59266,1.995156 -0.303,0.503455 -0.73793,1.495521 -0.73793,1.683219 0,0.120081 0.0544,0.102809 0.67385,-0.214135 z M 72.61614,76.24627 c -3.06679,-0.271883 -5.387465,-0.659455 -7.658132,-1.278972 -4.357563,-1.188889 -5.493883,-1.794251 -5.493883,-2.926802 0,-0.626824 0.493009,-1.120201 1.962299,-1.963761 1.229688,-0.706001 2.951839,-1.810859 3.104366,-1.991628 0.07354,-0.08716 0.09321,-0.213995 0.05555,-0.358261 -0.108204,-0.414557 -0.02958,-1.068655 0.212233,-1.765638 0.182557,-0.526192 0.20954,-0.558849 0.591561,-0.715987 l 0.400277,-0.164648 v -0.457946 c 0,-0.25187 0.02349,-0.728643 0.05223,-1.059494 l 0.05223,-0.601549 -0.424281,-0.224826 c -0.903671,-0.478853 -2.07297,-1.744141 -2.559732,-2.769859 -0.510119,-1.074942 -0.719598,-2.020903 -0.717939,-3.242107 0.0016,-1.243103 0.129955,-1.902312 0.566534,-2.911532 0.451231,-1.043098 1.02268,-1.828595 2.0691,-2.844121 1.447895,-1.405151 2.563804,-2.025234 4.416345,-2.454058 0.828582,-0.191799 1.077912,-0.212277 2.622082,-0.215357 1.47144,-0.0029 1.82868,0.02209 2.59417,0.181745 3.13705,0.654272 6.29997,2.280555 12.514,6.434348 2.4823,1.659302 5.51087,3.366657 9.07322,5.115023 0.86987,0.42692 1.89684,0.961055 2.28216,1.186966 2.07666,1.217531 3.73262,2.845068 4.24116,4.168368 0.22854,0.594707 0.30603,1.512662 0.17892,2.11938 -0.21854,1.043053 -1.09009,2.103262 -2.16212,2.630135 -0.6796,0.334002 -1.87337,0.628722 -2.83209,0.699183 -0.41292,0.03035 -0.7509,0.0773 -0.75107,0.104333 -1.8e-4,0.02704 -0.0539,0.370528 -0.11939,0.763317 -0.15521,0.930955 -0.33237,1.262846 -0.79759,1.494259 -0.62784,0.312298 -0.84258,0.292512 -5.39022,-0.496634 l -1.10498,-0.191746 -1.18414,0.564584 c -3.53149,1.683771 -6.627,2.644158 -9.75792,3.027415 -0.95763,0.117224 -5.20112,0.219792 -6.03495,0.14587 z m 6.74249,-1.401021 c 2.60893,-0.441884 5.28558,-1.207591 7.15625,-2.047177 0.69264,-0.310872 1.53403,-0.791308 1.47925,-0.84465 -0.0153,-0.01492 -0.67434,0.244527 -1.46449,0.57654 -0.79014,0.332015 -1.87939,0.748289 -2.42056,0.925055 -1.02941,0.336248 -2.66656,0.764354 -2.72086,0.711488 -0.0174,-0.01693 0.50213,-0.204348 1.15447,-0.416499 1.13864,-0.3703 2.7597,-1.013452 2.70026,-1.071322 -0.0157,-0.01527 -0.40391,0.116396 -0.86272,0.292592 -3.67286,1.410502 -9.62519,2.041853 -13.80348,1.464106 -3.553423,-0.491344 -5.325168,-0.934931 -7.200315,-1.802719 -0.874149,-0.404543 -1.750211,-0.737222 -1.80385,-0.684999 -0.01566,0.01524 0.233743,0.127892 0.554238,0.250315 0.558414,0.213304 0.735434,0.331036 0.638961,0.424963 -0.05402,0.0526 -1.007462,-0.250344 -1.625724,-0.516549 -0.742765,-0.319815 -0.584737,-0.113879 0.28022,0.365173 0.291364,0.161369 -0.03457,0.103925 -0.377899,-0.0666 -0.186396,-0.09258 -0.329644,-0.125863 -0.329644,-0.07658 0,0.04793 0.215384,0.177551 0.478633,0.288039 0.263248,0.11049 0.553548,0.233084 0.645113,0.272431 0.509386,0.218903 3.270853,0.967438 4.954167,1.342898 3.21863,0.717909 4.52539,0.844473 8.40595,0.814136 2.75809,-0.02156 3.24267,-0.04492 4.16203,-0.200636 z M 67.455225,73.217042 c -0.06867,-0.04321 -0.199777,-0.07656 -0.291341,-0.07411 l -0.166481,0.0044 0.166481,0.06965 c 0.09156,0.03831 0.222668,0.07165 0.291341,0.0741 0.110987,0.004 0.110987,-0.0043 0,-0.0741 z M 66.57394,73.055993 c -0.0452,-0.044 -0.342987,-0.168841 -0.661763,-0.277421 -0.896045,-0.305205 -1.12065,-0.401452 -1.12065,-0.480218 0,-0.04 0.09494,-0.05505 0.210981,-0.03346 0.116041,0.02159 0.188471,0.01736 0.160957,-0.0094 -0.07635,-0.07434 -0.734687,-0.252079 -0.777886,-0.210018 -0.0209,0.02035 0.0057,0.037 0.05911,0.037 0.05341,0 0.09712,0.03233 0.09712,0.07183 0,0.03951 -0.34649,-0.01196 -0.769977,-0.114363 -1.514438,-0.36622 -1.913125,-0.45185 -1.94759,-0.418296 -0.01923,0.01873 0.275325,0.163198 0.654566,0.321056 0.613786,0.255485 1.262581,0.444442 3.478091,1.012973 0.343368,0.08811 0.641159,0.164741 0.661762,0.170284 0.02061,0.0055 5.29e-4,-0.02593 -0.04472,-0.06993 z m 1.297487,-0.446773 c -0.160236,-0.06008 -0.347527,-0.109233 -0.416202,-0.109233 -0.06867,0 0.0062,0.04915 0.166481,0.109233 0.160239,0.06008 0.34753,0.109234 0.416203,0.109234 0.06867,0 -0.0062,-0.04916 -0.166482,-0.109234 z m -0.605229,-0.170529 c -0.02766,-0.02693 -0.09945,-0.02981 -0.159543,-0.0064 -0.0664,0.02588 -0.04668,0.04508 0.05029,0.04896 0.08775,0.0035 0.136914,-0.01564 0.109251,-0.04257 z m -0.518517,-0.190574 c 0.149987,-0.05952 0.141743,-0.07225 -0.08324,-0.128527 -0.137348,-0.03436 -0.530659,-0.190158 -0.874028,-0.346225 -0.343368,-0.156067 -0.658973,-0.275881 -0.701344,-0.266253 -0.04237,0.0096 -0.529331,-0.05478 -1.082127,-0.143124 -1.234938,-0.197369 -1.795875,-0.25233 -1.795875,-0.175961 0,0.032 0.215384,0.102973 0.478634,0.15771 0.263247,0.05474 0.946861,0.223875 1.519142,0.375865 0.937257,0.248922 2.223436,0.572889 2.330736,0.587073 0.02289,0.003 0.116535,-0.02424 0.208102,-0.06056 z m 2.339891,-0.2243 c -0.03312,-0.03224 -0.310933,-0.11873 -0.617369,-0.192191 -0.306435,-0.07346 -0.781904,-0.196419 -1.056597,-0.273241 -0.274696,-0.07682 -0.607714,-0.164245 -0.74004,-0.19427 -0.132329,-0.03003 -0.300294,-0.142129 -0.373255,-0.249118 l -0.132663,-0.194522 0.331637,0.05489 c 0.182399,0.03019 0.589778,0.09165 0.905285,0.136578 0.315508,0.04493 0.661996,0.103278 0.769975,0.129665 0.111413,0.02723 0.196326,0.01175 0.196326,-0.03578 0,-0.29536 -4.115369,-1.095494 -4.28226,-0.832583 -0.03349,0.05276 0.01254,0.08833 0.114324,0.08833 0.239027,0 1.737114,0.4752 1.797378,0.570137 0.07216,0.113671 -0.49334,0.0942 -1.140098,-0.03926 -0.666628,-0.137557 -1.796724,-0.250372 -1.721556,-0.171863 0.10704,0.111805 3.459837,0.851453 3.900363,0.860447 0.160239,0.0033 0.665924,0.09229 1.123749,0.197821 0.937294,0.216053 1.009443,0.227361 0.924801,0.144952 z m 24.796008,-0.32765 c 0.41423,-0.403294 0.4385,-1.185352 0.0486,-1.564992 -0.19827,-0.193042 -0.31407,-0.236897 -0.62553,-0.236897 -0.31598,0 -0.43389,0.04612 -0.68053,0.266173 -0.23669,0.211191 -0.30725,0.34335 -0.34157,0.639771 -0.0406,0.350769 -0.0219,0.396105 0.30559,0.742048 0.47444,0.501118 0.88649,0.550142 1.29348,0.153897 z m -0.90295,-0.21768 c -0.16439,-0.148331 -0.21994,-0.276802 -0.21898,-0.506519 10e-4,-0.346702 0.10973,-0.582297 0.20133,-0.437996 0.0313,0.04933 0.0126,0.08969 -0.0416,0.08969 -0.15205,0 -0.0222,0.487614 0.18776,0.705231 0.22541,0.233596 0.3558,0.23513 0.52056,0.0061 0.25683,-0.356997 0.14391,-0.872791 -0.19148,-0.874683 -0.15558,-7.94e-4 -0.18684,-0.0217 -0.10674,-0.07111 0.32187,-0.198546 0.70293,0.26234 0.62138,0.75156 -0.0878,0.526788 -0.57507,0.696039 -0.97221,0.337698 z m 0.25699,-0.297577 c 0.0565,-0.05539 0.12363,-0.08029 0.14926,-0.05533 0.0256,0.02495 -0.0206,0.07027 -0.10267,0.100703 -0.11863,0.04398 -0.12819,0.03467 -0.0466,-0.04537 z m -29.811973,0.487584 c -0.270518,-0.08505 -0.50859,-0.138334 -0.529045,-0.118419 -0.04498,0.04379 0.719868,0.278953 0.896035,0.2755 0.06868,-0.0013 -0.09647,-0.07203 -0.36699,-0.157081 z M 69.445,71.434584 c -0.154699,-0.08806 -0.888495,-0.209187 -0.819465,-0.135273 0.05025,0.05381 0.623348,0.195942 0.827466,0.205224 0.104479,0.0047 0.103179,-0.0067 -0.008,-0.06995 z m 22.39973,-0.07483 c 0,-0.125762 -0.64857,-0.311304 -2.0394,-0.583433 -1.48755,-0.291052 -1.6469,-0.309091 -1.70643,-0.193178 -0.0583,0.113427 0.67448,0.335376 1.99532,0.604391 1.18212,0.240763 1.75051,0.296682 1.75051,0.17222 z M 70.36865,70.958442 c 0,-0.07248 -0.58846,-0.194083 -0.64988,-0.134292 -0.0189,0.01836 0.0915,0.06866 0.24536,0.111757 0.3695,0.103526 0.40452,0.105476 0.40452,0.02254 z m 16.70356,-0.114779 c 0.29797,-0.162674 0.51725,-0.498891 0.65069,-0.997712 0.21321,-0.796944 0.13395,-1.329404 -0.19788,-1.329404 -0.13159,0 -0.15772,0.09199 -0.19605,0.690136 -0.0346,0.539612 -0.0961,0.791276 -0.28226,1.153859 -0.13092,0.255047 -0.25053,0.491527 -0.26579,0.52551 -0.04,0.0891 0.0833,0.07115 0.29129,-0.04239 z M 69.404616,70.706229 c -0.124454,-0.121169 -0.61754,-0.199282 -0.61754,-0.09783 0,0.04732 0.121738,0.100748 0.270531,0.118723 0.148792,0.01797 0.306118,0.03852 0.34961,0.04566 0.04746,0.0078 0.04642,-0.01881 -0.0026,-0.06655 z m 17.040894,-0.0478 c 0.34867,-0.175545 0.57794,-0.716444 0.63256,-1.492403 l 0.0441,-0.626494 -0.24,-0.05677 c -0.132,-0.03122 -0.40115,-0.131744 -0.59811,-0.22338 -0.19697,-0.09163 -0.3721,-0.152996 -0.38919,-0.136359 -0.0171,0.01664 0.0112,0.184637 0.063,0.37333 0.11542,0.421018 -0.008,1.23938 -0.26374,1.741639 -0.094,0.184967 -0.155,0.351792 -0.13555,0.37072 0.10874,0.105873 0.48755,-0.111132 0.67475,-0.386535 0.17157,-0.252415 0.22518,-0.451291 0.26177,-0.97101 0.0253,-0.359468 0.0836,-0.653579 0.12957,-0.653579 0.17465,0 -0.0107,1.231146 -0.25926,1.722162 -0.12975,0.2563 -0.2217,0.465998 -0.20434,0.465998 0.0173,0 0.14536,-0.05729 0.28444,-0.127318 z m 5.36208,0.03921 c 0.0308,-0.04846 0.0234,-0.119795 -0.0164,-0.15853 -0.0631,-0.06144 -2.61357,-0.600689 -3.32868,-0.703792 -0.2741,-0.03952 -0.44422,0.09392 -0.29943,0.234889 0.10207,0.09938 2.85686,0.691682 3.28135,0.705522 0.16898,0.0055 0.33241,-0.02963 0.36317,-0.07809 z M 68.703833,70.585227 c 0,-0.195091 -1.973691,-0.675907 -2.87343,-0.700008 -0.617353,-0.01654 -0.798119,0.05587 -0.319027,0.127785 0.176361,0.02647 0.901261,0.172067 1.610886,0.323544 1.288527,0.275044 1.581571,0.321122 1.581571,0.248679 z m 1.901527,-0.325411 c -0.0224,-0.02183 -0.16912,-0.05876 -0.32602,-0.08208 l -0.28528,-0.0424 0.29135,0.111818 c 0.2681,0.1029 0.41876,0.108866 0.31995,0.01267 z m 21.35168,-0.160335 c 0.0569,-0.144267 -0.047,-0.213305 -0.43886,-0.291566 -0.16377,-0.03271 -0.87335,-0.188028 -1.57685,-0.345154 -0.8559,-0.191159 -1.33786,-0.263432 -1.45671,-0.218437 -0.16507,0.06249 -0.15704,0.07576 0.11372,0.187867 0.16024,0.06635 0.90941,0.25536 1.66481,0.420031 0.75541,0.164672 1.38908,0.314437 1.40816,0.332815 0.0778,0.07496 0.24182,0.02585 0.28573,-0.08556 z M 69.57148,69.977214 c -0.273877,-0.266647 -3.281623,-0.797928 -3.281623,-0.579657 0,0.05128 0.137218,0.09257 0.312153,0.09393 0.171682,0.0013 0.874024,0.124669 1.560761,0.274077 1.415829,0.30803 1.524469,0.324355 1.408709,0.211645 z m 15.65365,0.0013 c 0.0272,-0.04287 -0.16723,-0.136742 -0.4321,-0.208603 -0.26487,-0.07186 -0.65014,-0.181477 -0.85616,-0.243588 -0.66087,-0.199237 -5.01051,-1.153663 -6.07657,-1.333357 -0.9213,-0.155298 -1.2194,-0.248264 -1.06529,-0.33223 0.24277,-0.132276 3.73552,0.541544 6.64241,1.281446 0.80119,0.20393 1.56815,0.374542 1.70435,0.37914 0.34375,0.01159 0.39302,-0.241927 0.0706,-0.36318 -0.63342,-0.238194 -6.2538,-1.466665 -8.28557,-1.811015 -0.17008,-0.02882 -0.33149,-0.08747 -0.35869,-0.130312 -0.17798,-0.280381 2.97213,0.270031 6.8085,1.189632 0.99664,0.238903 1.8894,0.434367 1.9839,0.434367 0.25015,0 0.15494,-0.179901 -0.17954,-0.339225 -0.60371,-0.287568 -3.84625,-1.039932 -7.11254,-1.650317 -3.48961,-0.65212 -8.14324,-1.132428 -10.321832,-1.065331 -0.826413,0.02545 -1.553604,0.08818 -1.748054,0.150796 -0.304602,0.09808 -0.18052,0.111633 1.456711,0.159099 2.139605,0.06203 3.655475,0.190826 3.779955,0.321166 0.0688,0.07201 0.0202,0.08129 -0.20061,0.03834 -1.29438,-0.251702 -4.746237,-0.250185 -5.491547,0.0024 -0.339691,0.115126 0.232426,0.192834 1.45438,0.197541 1.29753,0.005 3.058507,0.152116 3.174687,0.265225 0.11964,0.116483 -0.0392,0.123423 -0.969753,0.04237 -1.096264,-0.09548 -2.766629,-0.03932 -3.355607,0.112819 -0.727826,0.188008 -0.414388,0.267227 0.94257,0.238228 1.897941,-0.04056 3.24286,0.08885 7.50568,0.722181 3.12319,0.464018 6.28287,1.066212 8.66685,1.651788 1.41142,0.346686 2.16618,0.443595 2.2633,0.2906 z m -9.94529,-2.237528 c -2.11105,-0.352015 -2.6637,-0.461264 -2.6637,-0.526569 0,-0.03592 0.12174,-0.04796 0.27054,-0.02675 0.14879,0.02122 0.66384,0.093 1.14455,0.159543 1.9073,0.26401 2.41398,0.374182 2.41398,0.524902 0,0.04248 -0.009,0.07251 -0.0208,0.06675 -0.0115,-0.0058 -0.5265,-0.09481 -1.14456,-0.197871 z m -3.45448,-0.520121 c -0.18313,-0.03431 -0.54835,-0.08764 -0.8116,-0.118517 -0.45333,-0.05318 -0.67853,-0.206566 -0.30327,-0.206566 0.36848,0 1.65089,0.266547 1.60794,0.334209 -0.0248,0.03905 -0.071,0.06701 -0.10259,0.06213 -0.0316,-0.0049 -0.20735,-0.03695 -0.39048,-0.07125 z m 2.91342,-0.244159 c -0.36626,-0.07749 -0.75957,-0.182806 -0.87403,-0.234045 -0.17207,-0.07703 -0.11443,-0.08494 0.33297,-0.04568 0.64641,0.05672 1.82271,0.274098 1.99777,0.369185 0.21915,0.119036 -0.75356,0.0593 -1.45671,-0.08945 z m -2.12264,-0.302504 c -0.40023,-0.05078 -0.58268,-0.106247 -0.58268,-0.177133 0,-0.111205 1.28807,0.02105 1.36358,0.140012 0.039,0.06143 -0.41806,0.08316 -0.7809,0.03712 z m -1.58157,2.945717 c 0,-0.01722 -0.1104,-0.0471 -0.24533,-0.06638 -0.13492,-0.01929 -0.22636,-0.0052 -0.20318,0.03132 0.0412,0.06498 0.44851,0.09681 0.44851,0.03505 z m -0.60372,-0.09722 c -0.1611,-0.156845 -2.920999,-0.681045 -3.0295,-0.575408 -0.02551,0.02485 0.09792,0.07013 0.274281,0.100664 0.176363,0.03053 0.826346,0.155768 1.444408,0.278304 1.232591,0.244369 1.383221,0.266944 1.310811,0.19644 z m 27.43759,-0.201514 c 0.33102,-0.253506 0.27742,-0.461405 -0.24233,-0.93993 -1.01547,-0.934921 -2.47573,-1.81024 -5.86463,-3.515421 -3.43479,-1.728276 -4.05899,-2.060541 -5.49388,-2.924407 -0.70962,-0.427228 -1.44597,-0.8539 -1.63632,-0.948159 -0.19035,-0.09426 -0.35891,-0.200961 -0.37458,-0.237114 -0.0157,-0.03615 -0.3902,-0.224495 -0.83228,-0.418538 -0.44209,-0.194043 -0.91031,-0.441179 -1.04051,-0.549193 -0.13019,-0.108013 -0.19881,-0.185049 -0.15247,-0.171191 0.35135,0.105089 4.34844,2.102257 5.45125,2.723751 1.46404,0.825061 3.54144,1.858263 5.14729,2.560024 1.69017,0.738604 3.48454,1.794713 4.85733,2.858863 0.6599,0.511538 0.8158,0.709118 0.81919,1.038191 0.002,0.212209 0.0144,0.225391 0.0908,0.09757 0.14932,-0.249994 -0.0729,-0.595635 -0.76412,-1.188675 -1.21588,-1.043133 -2.76071,-1.959887 -5.57226,-3.306766 -1.0301,-0.493473 -2.80937,-1.441129 -3.95393,-2.105903 -2.16472,-1.257295 -4.0191,-2.294209 -4.56028,-2.549976 -0.17326,-0.08188 -0.2932,-0.18324 -0.26654,-0.225242 0.0269,-0.0423 0.18592,0.007 0.35663,0.110476 0.16949,0.102762 0.92622,0.489144 1.68163,0.858625 1.34678,0.658729 3.00563,1.50705 5.41126,2.767262 0.66419,0.34794 1.87084,0.942343 2.68145,1.320894 2.03466,0.950178 3.80816,2.006599 4.62391,2.754322 0.51392,0.471061 0.77638,0.856858 0.85738,1.260268 l 0.0583,0.290415 0.01,-0.266618 c 0.0358,-0.998191 -1.91224,-2.460411 -6.06984,-4.555982 -1.12323,-0.566148 -2.47173,-1.282851 -2.99666,-1.592675 -0.52493,-0.309823 -1.47884,-0.849559 -2.11979,-1.199413 -0.64095,-0.349855 -1.25901,-0.698982 -1.37347,-0.77584 -0.11445,-0.07686 -0.60141,-0.350166 -1.08213,-0.607352 -0.93257,-0.498938 -1.36122,-0.766221 -1.30951,-0.816561 0.0176,-0.01709 1.00299,0.465202 2.18986,1.071766 1.18686,0.606563 3.86229,1.950295 5.94538,2.986072 4.11664,2.046911 4.5697,2.290558 5.47036,2.941802 0.671,0.485183 1.5691,1.419947 1.89092,1.968102 0.26008,0.442995 0.27611,0.369216 0.0319,-0.14696 -0.24822,-0.524719 -1.51667,-1.74108 -2.3994,-2.300862 -1.1487,-0.72845 -2.68326,-1.586352 -4.33072,-2.421114 -0.84854,-0.42995 -2.34687,-1.237441 -3.32963,-1.794426 -0.98275,-0.556984 -2.01158,-1.133733 -2.28627,-1.281665 -0.57277,-0.308453 -1.06797,-0.650064 -1.01587,-0.70079 0.0196,-0.01905 1.21133,0.55395 2.64836,1.273335 1.43703,0.719386 3.2683,1.631188 4.06949,2.026227 3.83666,1.891727 4.99981,2.591641 6.12018,3.682759 0.74568,0.726226 1.06528,1.198957 1.24144,1.836275 l 0.11908,0.430791 0.005,-0.328519 c 0.009,-0.526688 -0.35763,-1.123704 -1.22398,-1.994296 -1.22753,-1.233558 -2.75002,-2.206141 -5.71677,-3.651955 -0.82648,-0.402778 -1.68999,-0.848748 -1.9189,-0.991045 -0.36884,-0.229276 -2.39825,-1.348202 -3.6929,-2.036097 -0.64451,-0.342451 -1.9417,-1.180556 -1.89604,-1.225013 0.0531,-0.0517 0.68145,0.26963 1.21881,0.62328 0.47589,0.313199 5.19933,2.657872 7.94947,3.946049 3.05723,1.432014 5.12407,3.070979 5.59098,4.433547 l 0.11397,0.332576 -0.0338,-0.334106 c -0.0834,-0.825959 -1.44235,-2.261661 -3.22545,-3.407734 -0.62348,-0.400741 -2.10308,-1.213669 -3.288,-1.806506 -2.80271,-1.402247 -3.52191,-1.789122 -5.27592,-2.838026 -0.80119,-0.479115 -1.62527,-0.961732 -1.83129,-1.072482 -0.40236,-0.216294 -1.5651,-0.938195 -3.03829,-1.88635 -1.02262,-0.658173 -2.35519,-1.476526 -3.01747,-1.853088 -0.39584,-0.22507 -0.54517,-0.37641 -0.37139,-0.37641 0.11956,0 1.55063,0.871113 3.68021,2.240208 1.34708,0.866034 2.7871,1.720082 4.03716,2.394372 2.53997,1.370066 3.85756,2.054086 4.66943,2.424117 2.42507,1.105286 4.32195,2.060391 5.14542,2.590793 1.5604,1.005049 2.58194,2.103578 2.84693,3.061485 l 0.10442,0.37747 0.006,-0.291842 C 101.42821,66.124748 99.93573,64.471435 98.0543,63.249204 97.12706,62.646846 96.15896,62.11201 95.07082,61.600948 92.62114,60.450424 91.9762,60.129008 90.97094,59.557704 89.5986,58.777792 88.36728,58.015666 88.09913,57.7802 87.98468,57.679695 87.61009,57.440985 87.26673,57.249732 86.92336,57.058478 86.4364,56.752739 86.1846,56.570311 85.9328,56.387883 85.58711,56.14745 85.41641,56.036016 c -0.1707,-0.111434 -0.27557,-0.214159 -0.23305,-0.228277 0.0425,-0.01412 0.18218,0.04591 0.31036,0.133391 0.25599,0.174712 1.49328,0.948878 2.61845,1.638347 0.39632,0.242852 0.69956,0.474658 0.67387,0.515125 -0.0257,0.04047 -0.006,0.04929 0.043,0.0196 0.0493,-0.02969 0.42034,0.141502 0.82446,0.380418 0.83496,0.493641 3.15199,1.67004 6.02199,3.05748 2.70757,1.308917 4.17703,2.278825 5.31268,3.506595 0.19872,0.214846 0.37981,0.372625 0.40241,0.35062 0.0226,-0.02201 -0.4022,-0.473578 -0.94401,-1.003497 -1.29006,-1.261762 -2.82674,-2.272631 -5.26443,-3.463075 -1.17389,-0.573265 -4.24693,-2.209167 -4.89386,-2.605191 -2.50731,-1.534873 -5.16476,-3.265006 -6.49398,-4.227911 -1.18155,-0.855935 -4.49011,-2.752116 -6.04855,-3.466514 -0.85966,-0.39407 -2.15896,-0.818978 -3.50618,-1.146614 -0.86072,-0.209322 -1.0255,-0.222625 -2.74694,-0.221771 -1.74849,8.74e-4 -1.8638,0.0107 -2.550371,0.217443 -0.952616,0.286858 -1.535308,0.543658 -2.138497,0.942461 -0.701829,0.46402 -1.840789,1.535537 -2.397017,2.25508 -0.7932,1.026093 -1.446675,2.718221 -1.445958,3.744208 5.29e-4,0.57349 0.204737,1.814083 0.3307,2.007782 0.08026,0.123415 0.08699,0.107931 0.04173,-0.09597 -0.116065,-0.522877 -0.04643,-1.309598 0.166862,-1.885293 0.302755,-0.817144 0.64266,-1.532774 0.680286,-1.432254 0.01775,0.04744 -0.07916,0.325563 -0.215373,0.618044 -0.479915,1.03049 -0.672402,2.05928 -0.505077,2.699503 l 0.06354,0.243129 0.02236,-0.283651 c 0.02146,-0.272332 0.02439,-0.269098 0.07371,0.08104 0.04542,0.322511 0.05789,0.280329 0.107799,-0.364693 0.0763,-0.986095 0.573969,-2.326968 1.167308,-3.145083 0.306064,-0.422015 0.232439,-0.168829 -0.131924,0.453669 -0.623829,1.065775 -0.928219,2.2805 -0.871786,3.479003 0.03237,0.687491 0.02665,0.724329 -0.06654,0.428056 -0.07063,-0.22456 -0.103921,-0.266904 -0.108352,-0.137801 -0.0035,0.102504 0.0553,0.303086 0.130714,0.445736 0.213736,0.404311 0.905169,1.377363 1.098794,1.546333 0.170532,0.148815 0.170177,0.143148 -0.01519,-0.243128 -0.104392,-0.217523 -0.233466,-0.486669 -0.286838,-0.598103 l -0.09704,-0.202608 0.04843,0.222869 c 0.02664,0.122577 0.02641,0.222868 -5.29e-4,0.222868 -0.161396,0 -0.638484,-1.353955 -0.632372,-1.794644 0.0026,-0.185328 0.0062,-0.18631 0.124862,-0.03359 0.112784,0.145179 0.122261,0.126424 0.122848,-0.243129 7.94e-4,-0.480306 0.222825,-1.223247 0.531487,-1.778175 0.258689,-0.465078 0.239292,-0.333887 -0.07788,0.526779 -0.176366,0.478582 -0.23006,0.78876 -0.252526,1.458774 l -0.02853,0.850952 0.110781,-0.52678 c 0.140013,-0.665787 0.313672,-1.120232 0.640811,-1.676917 0.272505,-0.463714 0.434197,-0.548891 0.19808,-0.104347 -0.36898,0.69469 -0.584568,1.739409 -0.492895,2.388514 l 0.05715,0.404643 0.159475,-0.597769 c 0.228137,-0.855125 0.553532,-1.400259 1.017312,-1.704295 l 0.175496,-0.115049 -0.177006,0.196091 c -0.543465,0.602063 -0.904338,1.539759 -0.811086,2.107534 l 0.05017,0.305447 0.237164,-0.460101 c 0.245867,-0.476982 0.731568,-1.105464 0.801616,-1.037266 0.02204,0.02145 -0.07867,0.207 -0.223779,0.412338 -0.317016,0.448604 -0.523319,1.00426 -0.486606,1.310629 0.02622,0.218891 0.03448,0.214259 0.359535,-0.201878 0.376015,-0.481372 0.997717,-0.908857 1.297791,-0.892365 0.191236,0.01051 0.192024,0.01269 0.01654,0.04577 -0.259122,0.04884 -0.975969,0.696662 -1.137402,1.027874 -0.07426,0.152361 -0.135019,0.371558 -0.135019,0.487104 v 0.210085 l 0.369772,-0.274945 c 0.45787,-0.340273 1.251077,-0.724594 1.395421,-0.676101 0.05912,0.01986 -0.0883,0.118709 -0.32761,0.219658 -0.409432,0.172715 -1.10485,0.786687 -1.10485,0.975451 0,0.04648 0.142716,0.01362 0.317146,-0.07302 0.597643,-0.296846 1.986806,-0.547207 2.150726,-0.387614 0.0314,0.03057 -0.07885,0.05559 -0.244999,0.05559 -0.381008,0 -1.180364,0.282697 -1.541605,0.545197 -0.1518,0.110307 -0.26316,0.21306 -0.247465,0.22834 0.01569,0.01528 0.177353,-0.0041 0.359241,-0.04313 0.494903,-0.106119 2.04208,-0.144089 3.077645,-0.07553 0.5036,0.03334 1.4026,0.08461 1.99777,0.113926 1.17499,0.05788 2.02923,0.166324 3.82907,0.486093 1.39621,0.248057 3.73938,0.735725 4.3555,0.906478 0.24375,0.06755 0.46057,0.1059 0.48182,0.08521 0.12865,-0.12526 -4.06584,-1.360688 -5.85702,-1.7251 -0.76664,-0.155973 -0.94182,-0.324606 -0.24972,-0.240387 1.47676,0.179699 5.96521,1.551373 9.65591,2.950853 0.47242,0.179135 0.19944,0.0085 -0.68336,-0.42712 -2.07806,-1.02546 -5.98169,-2.480103 -7.77396,-2.896877 -0.89371,-0.207823 -1.15225,-0.360518 -0.47023,-0.277729 1.51293,0.183655 5.91958,1.709595 8.32406,2.882467 0.43493,0.212154 1.39012,0.649544 2.12264,0.971978 0.73251,0.322434 1.55102,0.693818 1.8189,0.825297 0.26788,0.13148 0.50324,0.223296 0.52303,0.204036 0.0198,-0.01926 -0.92983,-0.519384 -2.11025,-1.111387 -1.18042,-0.592002 -2.57886,-1.30657 -3.10765,-1.587928 -1.99042,-1.059062 -4.48522,-2.067437 -6.31122,-2.550939 -0.47472,-0.125699 -0.88364,-0.248516 -0.90871,-0.272925 -0.34889,-0.339674 2.36906,0.442541 4.35073,1.252124 1.49961,0.61264 2.62799,1.131267 5.4122,2.487544 1.51082,0.735966 3.24371,1.552928 3.85088,1.815471 0.60716,0.262543 1.33202,0.589451 1.6108,0.726463 0.27878,0.137011 0.52036,0.235977 0.53685,0.219924 0.0522,-0.05084 -1.5478,-0.913163 -2.58171,-1.391403 -0.54721,-0.253117 -1.22146,-0.598935 -1.49833,-0.768485 -0.27687,-0.16955 -1.14019,-0.629243 -1.91849,-1.02154 -0.7783,-0.392297 -1.45255,-0.740659 -1.49833,-0.774139 -0.0458,-0.03348 -0.79495,-0.408836 -1.66481,-0.834127 -2.50025,-1.222409 -4.06108,-1.883674 -5.5355,-2.345174 -0.29759,-0.09314 -0.47834,-0.183226 -0.40167,-0.200179 0.45405,-0.100398 3.74803,1.218739 7.14416,2.861016 0.70962,0.343156 1.47775,0.701166 1.70694,0.795578 0.22919,0.09441 1.19591,0.586073 2.14826,1.09258 0.95234,0.506508 2.13205,1.094632 2.62157,1.306943 0.48951,0.212312 1.33952,0.628405 1.88891,0.924653 0.54939,0.296247 1.55143,0.808237 2.22676,1.137756 0.67533,0.329518 1.40576,0.724051 1.62319,0.876737 0.50211,0.352605 0.64421,0.43321 0.57696,0.327268 -0.1053,-0.165888 -1.45354,-0.990348 -2.26265,-1.383639 -0.45783,-0.222536 -1.4692,-0.75957 -2.2475,-1.193409 -0.7783,-0.433839 -2.16426,-1.172397 -3.07991,-1.641241 -1.68607,-0.86333 -2.08353,-1.076592 -3.57934,-1.920532 -0.45782,-0.258305 -1.37555,-0.743526 -2.03939,-1.07827 -1.25449,-0.632573 -1.45019,-0.750113 -1.24445,-0.74742 0.11884,0.0016 2.76254,1.277719 5.69782,2.750448 0.82408,0.41347 2.5097,1.239512 3.74583,1.835649 4.06795,1.961825 4.73111,2.337321 6.01413,3.405317 0.63603,0.529442 0.55909,0.949981 -0.18729,1.023691 l -0.33297,0.03288 0.34255,0.01363 c 0.23645,0.0094 0.41049,-0.0384 0.56188,-0.154345 z M 71.15943,61.412377 c -1.38276,-0.287389 -2.731885,-1.286211 -3.389251,-2.509235 -0.544774,-1.013551 -0.690361,-1.624287 -0.683484,-2.867243 0.0051,-0.917295 0.0365,-1.179199 0.194489,-1.620859 0.906534,-2.534259 2.890046,-3.824962 5.040156,-3.279713 1.365,0.346151 2.73975,1.475382 3.48803,2.865107 0.46262,0.85919 0.58736,1.430168 0.5863,2.683809 -8e-4,0.970833 -0.0252,1.160071 -0.21645,1.679879 -0.43332,1.177849 -1.1591,2.047658 -2.13435,2.557919 -0.83766,0.438274 -2.10209,0.653144 -2.88544,0.490336 z m 0.95242,-1.006715 c 0.71175,-0.148612 0.58206,-0.244761 -0.25946,-0.192355 -0.54936,0.03421 -0.90391,0.0146 -1.21321,-0.06711 -0.52357,-0.138314 -0.58287,-0.04222 -0.0832,0.134904 0.61289,0.217272 0.9736,0.246149 1.55591,0.124561 z m 2.12748,-0.903615 c 0.86511,-0.316915 1.05118,-0.470535 0.44131,-0.364358 -0.24271,0.04226 -0.54073,0.127498 -0.66225,0.189424 -0.32489,0.165564 -0.32775,0.151748 -0.0646,-0.312883 0.22837,-0.403275 0.31773,-0.791659 0.18152,-0.788909 -0.0343,6.88e-4 -0.15382,0.182543 -0.26553,0.404112 -0.11171,0.221569 -0.34784,0.589023 -0.52473,0.816565 l -0.32162,0.413713 0.27501,-0.05686 c 0.15125,-0.03127 0.57467,-0.166635 0.94092,-0.300807 z m -3.71252,0.19113 c 0.0183,-0.0057 -0.11839,-0.117319 -0.30377,-0.248068 -0.18539,-0.130748 -0.45948,-0.38602 -0.60908,-0.567269 -0.307747,-0.372837 -0.456001,-0.376633 -0.173366,-0.0044 0.166056,0.218675 0.169516,0.241854 0.03571,0.239261 -0.08149,-0.0016 -0.241811,-0.05499 -0.356264,-0.118693 -0.326433,-0.181678 -0.472991,-0.15529 -0.283435,0.05103 0.418811,0.455855 1.264835,0.780296 1.690205,0.648175 z m 1.18854,-0.442889 c -0.0296,-0.238931 0.0755,-0.281133 0.23487,-0.09423 0.13402,0.157227 0.24972,0.155311 0.24972,-0.0041 0,-0.06913 0.12291,-0.175698 0.27313,-0.236806 0.34307,-0.139562 1.11034,-0.921753 1.2707,-1.295415 0.13844,-0.322587 0.15598,-0.757324 0.0377,-0.935456 -0.0598,-0.09004 -0.0821,-0.03751 -0.0863,0.202608 -0.006,0.318391 -0.008,0.32092 -0.13629,0.141825 -0.17264,-0.240962 -0.26333,-0.231194 -0.21342,0.02299 0.0222,0.112934 -0.0237,0.368516 -0.10193,0.567961 -0.10835,0.276222 -0.23036,0.412902 -0.51206,0.57363 -0.38963,0.222314 -0.92447,0.376161 -0.98364,0.282946 -0.0369,-0.05813 -0.0738,-1.899364 -0.0504,-2.521344 0.0126,-0.335935 0.0207,-0.348717 0.10289,-0.162086 0.0491,0.111434 0.11574,0.567301 0.14815,1.013038 l 0.0589,0.810429 0.0184,-0.769908 c 0.0183,-0.768425 0.0186,-0.769401 0.15302,-0.506519 0.18071,0.353531 0.29146,0.333311 0.22194,-0.04052 -0.063,-0.33878 -0.17547,-0.556365 -0.53413,-1.033298 -0.13407,-0.178295 -0.24502,-0.390451 -0.24654,-0.471459 -0.002,-0.107903 -0.0455,-0.13409 -0.16247,-0.09793 -0.11089,0.03427 -0.17156,0.005 -0.19845,-0.09584 -0.0254,-0.09542 -0.042,-0.07044 -0.0484,0.07289 -0.005,0.119947 0.0279,0.240686 0.0738,0.268308 0.0555,0.0334 0.0545,0.102873 -0.003,0.20739 -0.0688,0.12521 -0.0592,0.157168 0.0473,0.157168 0.0904,0 0.0375,0.08838 -0.16356,0.272959 -0.1635,0.150127 -0.29727,0.318096 -0.29727,0.373264 0,0.05517 0.10868,-0.01296 0.2415,-0.151394 0.13282,-0.138435 0.25825,-0.2517 0.27873,-0.2517 0.0205,0 0.0436,0.264403 0.0515,0.587562 0.0101,0.416296 -0.0101,0.552127 -0.0694,0.465997 -0.0641,-0.09319 -0.0839,-0.05694 -0.0849,0.155332 -0.002,0.463426 -0.0774,0.234801 -0.0992,-0.301085 -0.0142,-0.350709 -0.0432,-0.462866 -0.0958,-0.371292 -0.0691,0.120176 -0.0424,0.794484 0.0789,1.99608 0.0389,0.384903 0.0248,0.465997 -0.0808,0.465997 -0.16673,0 -0.38701,-0.310093 -0.38701,-0.544812 0,-0.214045 -0.16387,-0.254831 -0.17176,-0.04275 -0.004,0.120764 -0.0156,0.117756 -0.075,-0.02026 -0.0383,-0.08915 -0.1489,-0.243202 -0.24569,-0.342345 -0.0968,-0.09914 -0.21488,-0.279853 -0.26241,-0.401579 -0.0886,-0.226897 -0.0349,-0.76587 0.10151,-1.018761 0.0421,-0.078 0.0441,-0.141825 0.004,-0.141825 -0.0396,0 -0.12222,0.09117 -0.18347,0.202607 -0.12725,0.23149 -0.21097,0.255737 -0.27983,0.08104 -0.09655,-0.244974 -0.178396,-0.111787 -0.149403,0.243129 0.02037,0.249264 -0.0024,0.364694 -0.07202,0.364694 -0.0789,0 -0.0782,0.02771 0.0031,0.123085 0.08586,0.100727 0.07781,0.152249 -0.04433,0.28365 -0.145153,0.156158 -0.143293,0.160566 0.06775,0.160566 0.161463,0 0.279553,0.08815 0.461413,0.344433 0.38254,0.539076 0.93711,1.029171 1.27665,1.128214 0.24232,0.07068 0.32191,0.142131 0.36345,0.326258 0.0658,0.291441 0.25621,0.253852 0.21935,-0.04329 z m -0.37556,-0.350869 c -0.0854,-0.08311 -0.0633,-0.943457 0.0277,-1.080573 0.0559,-0.08428 0.0811,0.07107 0.082,0.506518 0.001,0.630202 -0.007,0.673972 -0.10971,0.574055 z m 3.62113,-0.4292 c 0.44917,-0.389768 0.80912,-0.932326 0.6919,-1.042909 -0.0316,-0.02981 -0.15654,0.07084 -0.27765,0.223661 -0.30287,0.382195 -0.53513,0.634485 -0.47066,0.511242 0.0294,-0.0563 -0.0123,-0.311588 -0.0928,-0.567301 l -0.1464,-0.464932 -0.0648,0.75864 c -0.0356,0.417252 -0.10795,0.809298 -0.16073,0.871212 -0.21824,0.256024 0.0893,0.0851 0.52115,-0.289613 z M 68.8608,57.966152 c -0.08633,-0.320145 -0.156967,-0.686991 -0.156967,-0.815213 0,-0.148929 -0.03307,-0.213231 -0.09157,-0.17803 -0.05949,0.0358 -0.07339,0.214927 -0.03966,0.511301 l 0.05191,0.4562 -0.255942,-0.283651 c -0.147137,-0.163063 -0.229957,-0.216517 -0.194812,-0.125736 0.05666,0.146363 0.04175,0.144477 -0.203838,-0.02578 -0.145733,-0.101032 -0.26497,-0.167183 -0.26497,-0.147004 0,0.05568 1.199232,1.187072 1.259904,1.188632 0.0291,7.41e-4 -0.01773,-0.260576 -0.10405,-0.58072 z m 6.62699,-1.316691 c 0.31609,-0.863769 0.36012,-1.354204 0.0624,-0.694604 -0.0905,0.200581 -0.19027,0.43623 -0.22161,0.523665 -0.0489,0.136413 -0.0869,0.107663 -0.26749,-0.202608 -0.45411,-0.780026 -0.72466,-0.884059 -0.30685,-0.117989 0.20278,0.371802 0.29198,0.646381 0.30255,0.931361 0.008,0.222266 0.039,0.404406 0.0684,0.404754 0.0293,3.44e-4 0.19256,-0.379712 0.36267,-0.844579 z m -7.230375,0.01452 c -0.0031,-0.233382 0.08156,-0.510425 0.262551,-0.859269 0.14691,-0.283159 0.26711,-0.53498 0.26711,-0.559601 0,-0.09081 -0.343654,0.261716 -0.50892,0.522065 -0.09382,0.147797 -0.200052,0.268721 -0.236067,0.268721 -0.03601,0 -0.128542,-0.218816 -0.205618,-0.486257 -0.07708,-0.267442 -0.162058,-0.486259 -0.188847,-0.486259 -0.118451,0 0.05071,1.047744 0.222819,1.380115 0.171453,0.331101 0.325808,0.564917 0.372933,0.564917 0.01024,0 0.01654,-0.154994 0.01405,-0.344432 z M 75.1145,54.112508 c -0.14436,-0.639848 -0.26693,-0.619964 -0.20062,0.03254 l 0.0563,0.553636 -0.30698,-0.303911 c -0.17856,-0.176771 -0.38366,-0.301743 -0.49027,-0.298728 -0.1559,0.0044 -0.14286,0.02477 0.0872,0.136267 0.36801,0.178315 0.34407,0.285405 -0.0298,0.133317 -0.44323,-0.180301 -0.4216,-0.09427 0.0513,0.204066 0.22919,0.14459 0.51945,0.394457 0.64503,0.55526 l 0.22831,0.292369 0.0276,-0.440363 c 0.0152,-0.2422 -0.0155,-0.631205 -0.0681,-0.864457 z m -6.665035,0.702582 c 0.142645,-0.225707 0.370372,-0.471876 0.506058,-0.54704 0.388432,-0.215175 0.289248,-0.271785 -0.168447,-0.09614 l -0.416205,0.15972 v -0.322989 c 0,-0.177644 -0.03746,-0.322989 -0.08324,-0.322989 -0.04578,0 -0.08793,-0.06382 -0.09366,-0.141826 -0.0057,-0.078 -0.03892,0.02229 -0.07374,0.222868 -0.05442,0.313474 -0.01714,1.458775 0.04747,1.458775 0.01233,0 0.139118,-0.18467 0.281762,-0.410378 z m 2.558725,-0.334205 c -0.0266,-0.06465 -0.0463,-0.04545 -0.0503,0.04896 -0.004,0.08543 0.0161,0.133299 0.0437,0.106369 0.0277,-0.02693 0.0306,-0.09683 0.007,-0.155332 z m -0.23563,-0.01091 c 0.10221,-0.119904 1.37093,-0.100385 1.78115,0.0274 0.16377,0.05102 0.22891,0.04346 0.22891,-0.02654 0,-0.05382 0.0804,-0.146751 0.17871,-0.206513 0.24601,-0.149576 0.0638,-0.249012 -0.35579,-0.194214 -0.18987,0.0248 -0.32236,0.0085 -0.32236,-0.03966 0,-0.04896 -0.15027,-0.06527 -0.37458,-0.04065 -0.33993,0.0373 -0.37459,0.02513 -0.37459,-0.13152 0,-0.09499 -0.0531,-0.172626 -0.11805,-0.172626 -0.0649,0 -0.17432,-0.02102 -0.24309,-0.04671 -0.0943,-0.03524 -0.11925,0.0046 -0.10149,0.162086 0.0204,0.181081 -0.008,0.2088 -0.21474,0.2088 -0.13105,0 -0.23827,-0.03647 -0.23827,-0.08104 0,-0.04457 -0.0397,-0.08104 -0.0882,-0.08104 -0.0485,0 -0.0666,0.03395 -0.0403,0.07544 0.0263,0.04149 0.01,0.09835 -0.0367,0.126347 -0.11527,0.06937 -0.10667,0.311602 0.0153,0.430345 0.12799,0.124614 0.19111,0.12256 0.30402,-0.0099 z m 3.51832,-0.92836 c -0.14434,-0.262576 -0.6696,-0.666434 -0.86604,-0.665865 -0.16968,5.02e-4 -0.16447,0.01405 0.0653,0.169974 0.211,0.143165 0.22069,0.163113 0.0625,0.128639 -0.10296,-0.02244 -0.2063,-0.01072 -0.22963,0.02604 -0.0233,0.03676 0.0609,0.09072 0.1872,0.119895 0.12631,0.02918 0.36074,0.137334 0.52098,0.240341 0.32962,0.211886 0.38438,0.207875 0.25965,-0.01902 z m -4.949327,-0.200402 c 0.139623,-0.100291 0.264687,-0.218816 0.277927,-0.26339 0.0132,-0.04457 0.13831,-0.163099 0.27793,-0.26339 0.14285,-0.102606 0.20029,-0.182346 0.13135,-0.182346 -0.13181,0 -0.49532,0.219822 -0.595296,0.359995 -0.09456,0.132578 -0.07467,-0.02653 0.02627,-0.210178 0.168016,-0.305648 0.0145,-0.239903 -0.246438,0.105534 -0.245764,0.325362 -0.339892,0.636122 -0.192683,0.636122 0.03689,0 0.181306,-0.08206 0.320929,-0.182347 z m 2.920817,-0.190537 c 0.1361,-0.147821 0.18729,-0.304087 0.18729,-0.571702 0,-0.313248 -0.0438,-0.410917 -0.29308,-0.653617 -0.25126,-0.244637 -0.33079,-0.277994 -0.55752,-0.233846 -0.14544,0.02832 -0.35381,0.108503 -0.46304,0.178182 -0.2084,0.132942 -0.43886,0.574727 -0.42808,0.820605 0.004,0.0834 0.0476,0.0356 0.10405,-0.113145 0.11525,-0.30379 0.27041,-0.476711 0.18494,-0.206117 -0.17368,0.5499 -0.063,0.853559 0.3706,1.016862 0.24016,0.09045 0.70714,-0.03335 0.89484,-0.237222 z m -1.0428,0.0036 c -0.22091,-0.15065 -0.25951,-0.685258 -0.061,-0.845616 0.0682,-0.05508 0.10341,-0.132486 0.0783,-0.172009 -0.0251,-0.03952 0.0822,-0.07186 0.23849,-0.07186 0.33495,0 0.72461,0.307293 0.72461,0.571437 0,0.201295 -0.45116,0.644208 -0.65621,0.644208 -0.0765,0 -0.2224,-0.05677 -0.32416,-0.12616 z m -6.556329,7.495681 c -0.03018,-0.04754 -0.03702,-0.103816 -0.01519,-0.12506 0.02183,-0.02124 0.06185,0.01765 0.08896,0.08644 0.05629,0.142806 0.0083,0.167926 -0.07377,0.03862 z M 80.3159,59.67985 c -1.08773,-0.517062 -1.20482,-0.640907 -0.2081,-0.2201 1.02126,0.431167 1.55075,0.700027 1.37347,0.697398 -0.0916,-0.0013 -0.61598,-0.216142 -1.16537,-0.477298 z m -1.75413,-0.765186 c -0.14083,-0.103733 -0.14323,-0.118464 -0.0197,-0.120727 0.0774,-0.0014 0.16545,0.03632 0.19563,0.08386 0.0907,0.142844 -0.005,0.162872 -0.17598,0.03687 z m 4.08487,0.03878 c 0.0283,-0.04457 0.068,-0.08104 0.0881,-0.08104 0.0202,0 0.0367,0.03647 0.0367,0.08104 0,0.04457 -0.0397,0.08104 -0.0882,0.08104 -0.0485,0 -0.065,-0.03647 -0.0367,-0.08104 z m 2.03109,-0.455946 c -0.8079,-0.470758 -1.10094,-0.679279 -1.03913,-0.739448 0.036,-0.03501 1.96308,1.108803 1.96308,1.165163 0,0.08668 -0.21308,-0.0115 -0.92395,-0.425715 z m -7.22491,0.04385 c -0.10965,-0.04271 -0.17695,-0.09948 -0.14954,-0.126161 0.0736,-0.07167 0.47378,0.042 0.47378,0.134583 0,0.09554 -0.0614,0.09394 -0.32424,-0.0084 z M 66.872541,58.386173 c 0,-0.04457 0.03746,-0.08104 0.08324,-0.08104 0.04578,0 0.08324,0.03647 0.08324,0.08104 0,0.04457 -0.03746,0.08104 -0.08324,0.08104 -0.04578,0 -0.08324,-0.03647 -0.08324,-0.08104 z M 84.47793,57.50357 c -0.41204,-0.262009 -1.25485,-0.796244 -1.87291,-1.187189 -1.31039,-0.828861 -1.2057,-0.754465 -1.14492,-0.813643 0.0265,-0.02581 0.43543,0.204176 0.90871,0.511084 0.47328,0.306907 1.21724,0.765218 1.65324,1.018468 0.79144,0.459707 1.44574,0.939593 1.28829,0.94487 -0.0458,0.0015 -0.42037,-0.211581 -0.83241,-0.47359 z M 65.332589,57.41366 c 0.02829,-0.04457 0.06796,-0.08104 0.08815,-0.08104 0.02019,0 0.03671,0.03647 0.03671,0.08104 0,0.04457 -0.03967,0.08104 -0.08815,0.08104 -0.04848,0 -0.065,-0.03647 -0.03671,-0.08104 z M 82.51019,57.177508 c -0.10808,-0.08531 -0.17779,-0.173215 -0.15489,-0.195343 0.0229,-0.02213 0.15399,0.04749 0.29134,0.154707 0.13734,0.107217 0.20705,0.195122 0.15489,0.195343 -0.0522,2.21e-4 -0.18326,-0.0694 -0.29134,-0.154707 z M 63.051836,56.765313 c -0.01098,-0.377002 0.245205,-1.24307 0.58593,-1.980788 0.845749,-1.83117 2.258232,-3.386298 3.817459,-4.202978 0.6218,-0.325683 0.915646,-0.425965 0.915646,-0.312487 0,0.04353 -0.327758,0.251137 -0.728353,0.461342 -2.063742,1.082908 -3.807029,3.303638 -4.425844,5.637974 -0.08741,0.32975 -0.161592,0.508372 -0.164838,0.396937 z m 2.656612,-0.218085 c 7.94e-4,-0.03606 0.03758,-0.120269 0.08197,-0.18713 0.06954,-0.104763 0.08087,-0.102623 0.08197,0.01548 7.93e-4,0.07537 -0.03619,0.159581 -0.08197,0.187129 -0.04578,0.02755 -0.08267,0.02058 -0.08197,-0.01548 z M 81.43965,56.40062 c -0.0578,-0.06781 -0.0668,-0.121564 -0.0204,-0.121564 0.0458,0 0.12987,0.0547 0.18687,0.121564 0.0578,0.06781 0.0668,0.121565 0.0204,0.121565 -0.0458,0 -0.12988,-0.05471 -0.18687,-0.121565 z M 65.20773,55.954884 c 0,-0.04457 0.03967,-0.08104 0.08815,-0.08104 0.04848,0 0.065,0.03647 0.03671,0.08104 -0.02829,0.04457 -0.06796,0.08104 -0.08815,0.08104 -0.02019,0 -0.03671,-0.03647 -0.03671,-0.08104 z m 15.64923,-0.714823 c -0.23366,-0.103088 -0.49944,-0.296481 -0.49944,-0.363417 0,-0.0367 0.14983,0.01525 0.33296,0.115461 0.18313,0.100208 0.33296,0.211949 0.33296,0.248315 0,0.07457 0.003,0.07458 -0.16648,-3.71e-4 z m 2.6637,-0.394823 c -0.55186,-0.394675 -2.00385,-1.258686 -3.43861,-2.04615 -0.26597,-0.145974 -0.46627,-0.282255 -0.44512,-0.302846 0.0211,-0.02059 0.10765,-0.0015 0.19223,0.04246 0.0846,0.04394 0.27866,0.1251 0.43129,0.180348 0.65125,0.235731 4.08748,2.357901 4.09126,2.526707 0.003,0.138939 -0.24175,0.02093 -0.83105,-0.400519 z M 64.375324,54.581211 c 0,-0.04234 0.13404,-0.288509 0.297873,-0.54704 0.328509,-0.518402 0.314103,-0.321808 -0.01892,0.258321 -0.208589,0.363353 -0.278945,0.436175 -0.278945,0.288719 z M 79.79565,53.66781 c -0.10302,-0.04837 -0.1873,-0.138357 -0.1873,-0.199974 0,-0.120848 0.1412,-0.06879 0.45783,0.168806 0.19971,0.149864 0.0251,0.169981 -0.27053,0.03117 z m -1.10461,-0.672954 c -0.16387,-0.192232 -0.0583,-0.209875 0.21315,-0.03564 0.21861,0.140293 0.2264,0.158153 0.0692,0.158627 -0.0974,2.91e-4 -0.22448,-0.05505 -0.28239,-0.122989 z m -13.150348,-0.029 c 0,-0.04457 0.03746,-0.103582 0.08324,-0.13113 0.04578,-0.02755 0.08324,-0.01362 0.08324,0.03096 0,0.04457 -0.03746,0.103582 -0.08324,0.13113 -0.04578,0.02755 -0.08324,0.01362 -0.08324,-0.03096 z m 12.319608,-0.4553 c -0.0578,-0.06781 -0.0668,-0.121564 -0.0204,-0.121564 0.0458,0 0.12988,0.0547 0.18687,0.121564 0.0578,0.06781 0.0668,0.121565 0.0204,0.121565 -0.0458,0 -0.12987,-0.0547 -0.18686,-0.121565 z m 1.11758,-0.332766 c -0.2713,-0.159914 -0.79294,-0.437113 -1.1592,-0.615999 -0.36626,-0.178886 -0.72912,-0.379509 -0.80635,-0.445828 -0.0772,-0.06632 -0.17622,-0.09905 -0.21996,-0.07272 -0.0437,0.02632 -0.28042,-0.03864 -0.52595,-0.14436 -0.746,-0.321207 -1.80696,-0.617757 -2.80365,-0.78365 -1.35688,-0.225847 -3.39847,-0.216633 -4.421381,0.01996 -0.05975,0.01382 -0.124061,-0.01535 -0.142905,-0.06481 -0.08178,-0.214679 0.744756,-0.31537 2.510676,-0.305858 1.45385,0.0078 1.89454,0.03935 2.61847,0.187295 1.42952,0.292137 2.61064,0.766442 4.4986,1.806522 0.91242,0.502655 1.05727,0.600833 0.98716,0.669088 -0.0232,0.02262 -0.26421,-0.08971 -0.53551,-0.249626 z m -1.74665,-0.06582 c -0.0888,-0.06322 -0.13872,-0.137066 -0.11095,-0.164112 0.0278,-0.02705 0.1401,0.02346 0.2496,0.112242 0.22614,0.183358 0.10808,0.227525 -0.13865,0.05187 z m -0.78602,-0.452362 c 0,-0.04457 0.0353,-0.08104 0.0783,-0.08104 0.0431,0 0.10148,0.03647 0.12977,0.08104 0.0283,0.04457 -0.007,0.08104 -0.0783,0.08104 -0.0714,0 -0.12977,-0.03647 -0.12977,-0.08104 z m -4.49499,17.392393 c 0,-0.01751 -0.0562,-0.05284 -0.12486,-0.0785 -0.0687,-0.02567 -0.12486,-0.01132 -0.12486,0.03185 0,0.04317 0.0562,0.0785 0.12486,0.0785 0.0687,0 0.12486,-0.01434 0.12486,-0.03185 z M 71.11781,68.88938 c 0,-0.05473 -1.26005,-0.311319 -1.804843,-0.36753 -0.283038,-0.0292 -0.496212,-0.0241 -0.47372,0.01132 0.02249,0.03543 0.122965,0.06583 0.223274,0.06755 0.100306,0.0019 0.519499,0.07131 0.931539,0.154644 0.7451,0.150696 1.12375,0.195853 1.12375,0.134014 z m 6.63671,-2.934125 c -0.0277,-0.02693 -0.0995,-0.02981 -0.15955,-0.0064 -0.0664,0.02587 -0.0467,0.04508 0.0503,0.04896 0.0877,0.0035 0.13692,-0.01564 0.10926,-0.04257 z m -0.40343,-0.06861 c -0.0206,-0.02009 -0.72922,-0.16364 -1.57463,-0.319004 -2.61722,-0.48097 -5.94756,-0.860116 -7.555084,-0.860116 -0.528209,0 -0.940678,0.01918 -0.916599,0.04262 0.02408,0.02344 0.676476,0.07849 1.449774,0.122335 2.333419,0.13229 5.918459,0.565677 7.940379,0.959894 0.43096,0.08403 0.71047,0.107142 0.65616,0.05427 z m 2.46536,-0.206604 c -0.0916,-0.03831 -0.22266,-0.06965 -0.29134,-0.06965 -0.0787,0 -0.0633,0.02575 0.0416,0.06965 0.0916,0.03831 0.22267,0.06965 0.29135,0.06965 0.0787,0 0.0633,-0.02575 -0.0416,-0.06965 z m -0.99888,-0.209933 c -0.84139,-0.231264 -4.1205,-0.846703 -5.5355,-1.03893 -2.63779,-0.358341 -4.365761,-0.480084 -5.410643,-0.381204 l -0.707543,0.06696 0.915646,0.01264 c 2.36495,0.03265 7.61765,0.722368 10.48832,1.377191 0.52109,0.118866 0.71304,0.09069 0.24972,-0.03666 z m 0.87403,-0.600497 c -0.11446,-0.03569 -0.28302,-0.06596 -0.37459,-0.06727 l -0.16648,-0.0024 0.16648,0.06965 c 0.0916,0.03831 0.26013,0.06858 0.37459,0.06727 l 0.2081,-0.0024 z m -0.58963,-0.113296 c -0.0425,-0.03954 -4.56926,-0.904442 -5.32046,-1.016552 -1.71742,-0.25631 -5.019088,-0.451177 -5.743601,-0.338994 -0.418513,0.0648 -0.379201,0.07181 0.457824,0.08159 1.403807,0.0164 4.009827,0.229766 5.535497,0.453211 1.34279,0.196661 4.45462,0.739989 4.61986,0.806632 0.10875,0.04386 0.49591,0.05598 0.45088,0.01411 z m 0.33297,-0.646228 c -0.0191,-0.01658 -0.22198,-0.0512 -0.45089,-0.07694 -0.28068,-0.03156 -0.34844,-0.02438 -0.2081,0.02206 0.20797,0.06882 0.72453,0.111834 0.65899,0.05488 z m -0.91565,-0.16289 c -0.041,-0.03654 -2.21186,-0.474131 -3.27266,-0.659674 -1.47706,-0.258353 -3.45442,-0.448405 -5.00285,-0.480844 -1.467234,-0.03074 -1.503339,-0.02824 -0.49944,0.03459 1.86158,0.116508 4.71024,0.459771 7.07545,0.852593 0.68674,0.114055 1.28607,0.221796 1.33185,0.239425 0.10963,0.04221 0.41221,0.05366 0.36765,0.01391 z M 64.515426,59.829752 c -0.02657,-0.06465 -0.0463,-0.04545 -0.05029,0.04896 -0.0036,0.08543 0.01606,0.133299 0.04372,0.106369 0.02766,-0.02693 0.03062,-0.09683 0.0066,-0.155332 z"
       id="path465" />
  </g>
</svg>
