<?xml version="1.0" encoding="UTF-8" standalone="no"?>
<!-- Created with Inkscape (http://www.inkscape.org/) -->

<svg
   width="71.023544mm"
   height="65.25058mm"
   viewBox="0 0 71.023544 65.25058"
   version="1.1"
   id="svg1"
   xmlns="http://www.w3.org/2000/svg"
   xmlns:svg="http://www.w3.org/2000/svg">
  <defs
     id="defs1" />
  <g
     id="layer1"
     transform="translate(-41.010417,-49.741797)">
    <path
       style="display:inline;fill:#f2f2f2;stroke-width:0.0833813"
       d="m 64.707919,114.94601 c -1.723311,-0.24554 -3.488346,-0.8611 -4.200848,-1.46504 -0.480867,-0.4076 -0.926333,-1.0311 -0.926333,-1.29654 0,-0.30158 0.05487,-0.30154 0.652941,2.6e-4 0.935154,0.47206 2.31548,0.75364 3.706104,0.75602 1.912474,0.003 4.876334,-0.45474 7.481101,-1.15607 0.664967,-0.17904 2.109547,-0.55891 3.210182,-0.84415 1.100632,-0.28525 2.470171,-0.64217 3.043417,-0.79317 3.258376,-0.85826 6.504165,-1.47948 9.130253,-1.74745 1.437528,-0.14669 5.166188,-0.12436 6.211908,0.0372 1.529345,0.23629 2.697792,0.64948 3.676478,1.30011 0.630269,0.41901 0.826114,0.64026 0.826114,0.93332 0,0.31836 -0.292087,0.35825 -0.95781,0.13083 -1.782429,-0.6089 -3.142732,-0.8191 -5.295789,-0.81831 -3.474088,0.001 -7.107018,0.70201 -13.369591,2.57876 -3.936651,1.17973 -4.647735,1.38514 -5.76642,1.6658 -2.008904,0.50398 -3.548081,0.72268 -5.336405,0.75823 -0.871333,0.0173 -1.80972,-8e-4 -2.085302,-0.0399 z m -14.026245,-2.47748 c -1.605939,-0.25042 -2.959455,-1.17282 -3.616407,-2.46452 -1.124731,-2.21144 -0.215765,-4.99447 1.987883,-6.08642 0.656413,-0.32527 0.765186,-0.35275 1.510932,-0.38173 0.663771,-0.0258 0.884007,-0.001 1.26574,0.14286 1.14358,0.43081 1.651072,1.54155 1.074367,2.35146 -0.207488,0.29139 -0.361185,0.29454 -1.286367,0.0264 -0.708657,-0.20543 -1.043897,-0.12453 -1.540084,0.37166 -0.53603,0.53603 -0.70064,1.0392 -0.654264,1.99992 0.02633,0.54554 0.08369,0.81812 0.236313,1.12309 0.426526,0.85228 1.261821,1.30661 2.402242,1.30661 2.465284,0 4.182753,-1.78151 4.179969,-4.33583 -0.0013,-1.15111 -0.367757,-1.95196 -1.726766,-3.77319 -1.047096,-1.40322 -1.438476,-2.04588 -1.688494,-2.772572 -0.193445,-0.562253 -0.231754,-1.488985 -0.08444,-2.042573 0.365059,-1.371825 1.704091,-2.69712 3.189049,-3.156333 l 0.522589,-0.161605 -0.593873,-0.571452 c -0.326631,-0.314299 -0.69841,-0.655873 -0.826177,-0.759058 -0.236419,-0.190934 -0.503042,-0.246338 -0.553307,-0.114972 -0.01529,0.03995 -0.285335,0.266805 -0.600107,0.504129 -2.920508,2.201899 -6.560765,1.893152 -6.78461,-0.575435 -0.102219,-1.127302 0.471318,-2.00597 1.520992,-2.33018 0.633253,-0.195593 0.902194,-0.212481 1.280967,-0.08044 0.421121,0.146804 0.467754,0.334417 0.209706,0.843653 -0.467974,0.923501 -0.430162,1.410308 0.13879,1.786821 0.289359,0.19149 0.388572,0.212926 0.792533,0.171233 0.852979,-0.08804 1.504637,-0.63445 2.192408,-1.838341 0.474083,-0.829842 0.734624,-1.481759 1.402001,-3.508071 0.672076,-2.040572 1.499473,-4.184216 1.947106,-5.044625 0.437279,-0.840507 1.274852,-1.87647 1.885341,-2.331907 0.579626,-0.432417 1.239303,-0.758392 1.53706,-0.759527 0.201874,-7.93e-4 0.578546,0.262758 0.578546,0.404765 0,0.03606 -0.166328,0.279757 -0.36962,0.541557 -0.82222,1.058858 -1.286706,2.117969 -2.548718,5.811544 -0.994617,2.910972 -1.225577,3.524263 -1.639073,4.352348 l -0.281273,0.563293 0.350223,0.379949 c 0.192622,0.208971 0.491956,0.492202 0.665181,0.629399 l 0.314955,0.249449 0.607669,-0.262617 c 0.334219,-0.144441 0.851561,-0.354142 1.149649,-0.466003 0.880996,-0.330605 1.187087,-0.504071 1.706753,-0.967242 1.724244,-1.536793 2.902817,-4.387644 2.904836,-7.0265 0.0011,-1.252543 -0.142584,-1.978086 -0.538186,-2.720311 -0.460641,-0.864294 -1.036917,-1.339496 -2.073885,-1.71018 -0.541623,-0.193614 -0.755433,-0.223362 -1.624301,-0.225986 -1.072563,-0.0033 -1.615181,0.08225 -2.668201,0.420388 -2.254494,0.723945 -3.980574,2.266233 -4.182142,3.736824 -0.111458,0.813189 0.379712,1.457145 1.111922,1.457799 0.356992,2.65e-4 0.610471,0.159242 0.610471,0.382746 0,0.250444 -0.539565,1.062453 -0.860425,1.294884 -0.353613,0.256157 -1.027489,0.493049 -1.38516,0.486937 -0.68702,-0.01175 -1.388116,-0.53304 -1.785697,-1.327759 -0.784334,-1.567794 -0.281115,-3.332705 1.398122,-4.903549 2.301621,-2.153052 6.111597,-3.354856 9.199851,-2.901961 3.115135,0.456838 4.936751,1.978015 5.490149,4.584661 0.466121,2.195552 -0.05309,4.489066 -1.531025,6.763057 -1.14622,1.763601 -3.313753,3.566628 -4.753843,3.954401 -0.193789,0.05218 -0.79312,0.306798 -1.331844,0.565812 l -0.9795,0.470931 0.549148,0.138589 c 0.635082,0.160277 1.213273,0.432234 1.593114,0.74934 l 0.266449,0.222443 0.379738,-0.627356 c 0.208854,-0.345046 0.478615,-0.699802 0.599466,-0.788345 0.195226,-0.143039 0.246034,-0.148349 0.455607,-0.04763 0.148101,0.07117 0.264605,0.213696 0.313071,0.382981 0.103402,0.361146 -0.20243,1.198372 -0.879848,2.408635 -0.279267,0.498927 -0.695232,1.30112 -0.924369,1.782646 -0.598059,1.256806 -0.919872,1.552816 -1.268889,1.167156 -0.146283,-0.161639 -0.14401,-0.190111 0.07151,-0.896347 0.371346,-1.216832 0.27967,-2.247628 -0.2438,-2.741324 -1.031793,-0.973106 -2.734,-0.378915 -3.132442,1.093441 -0.137168,0.506878 -0.02845,1.228031 0.277945,1.843672 0.147378,0.296129 0.697675,1.109628 1.222878,1.807768 1.915025,2.54559 2.260473,3.29403 2.259986,4.89643 -0.0011,3.45299 -2.634816,6.11471 -6.516815,6.58598 -0.810011,0.0983 -0.910134,0.0954 -1.879279,-0.0558 z m 13.81856,-29.82637 c 0,-0.01802 -0.05823,-0.05512 -0.129403,-0.08243 -0.0742,-0.02847 -0.107672,-0.0145 -0.07846,0.03277 0.04897,0.07923 0.207862,0.117186 0.207863,0.04966 z m -3.29356,25.56179 c -0.6605,-0.31508 -0.881031,-0.72306 -0.882645,-1.63287 -0.0016,-0.90783 0.470837,-2.47203 1.459077,-4.8308 l 0.378457,-0.90333 -0.435755,0.0669 c -0.239665,0.0368 -0.585841,0.0683 -0.769279,0.0701 -0.388776,0.004 -0.446069,-0.13272 -0.293513,-0.69927 0.127508,-0.473536 0.326755,-0.57368 1.203738,-0.605023 l 0.743463,-0.02657 0.423876,-1.25072 c 0.233132,-0.687895 0.464891,-1.319961 0.515022,-1.404588 0.104381,-0.176212 1.828083,-0.654965 2.101091,-0.583573 0.362963,0.09492 0.354422,0.35578 -0.04199,1.282539 -0.610484,1.42722 -0.690968,1.664509 -0.564574,1.664509 0.06077,0 0.433319,-0.07668 0.8279,-0.170389 0.394581,-0.09371 0.753999,-0.14778 0.798706,-0.12015 0.230735,0.142603 -0.0767,1.116415 -0.394608,1.249945 -0.08221,0.0345 -0.522766,0.12358 -0.979022,0.19789 l -0.82955,0.13511 -0.781511,1.95946 c -1.030068,2.58267 -1.171493,3.26335 -0.756136,3.63924 0.364447,0.32982 1.190561,0.0246 1.780137,-0.65777 0.622308,-0.72021 1.939745,-2.86457 2.746984,-4.47118 l 0.224816,-0.44744 -0.209465,-0.21961 c -0.275958,-0.28932 -0.386834,-0.601197 -0.386834,-1.088092 0,-1.498195 1.459367,-2.386044 2.048708,-1.246391 0.08942,0.172929 0.123873,0.438047 0.1104,0.849598 l -0.01958,0.598231 0.780973,0.02418 c 0.768567,0.02381 1.141749,-0.0513 1.419199,-0.285623 0.328464,-0.27741 0.939953,0.124241 1.045472,0.68671 0.0843,0.449357 -0.07184,0.839807 -0.73737,1.843857 -1.099854,1.65931 -1.702676,3.19795 -1.397153,3.56608 0.132053,0.15911 0.480866,0.16207 0.845703,0.007 0.589698,-0.25038 1.995353,-1.92837 2.158968,-2.57725 0.487606,-1.93382 2.345278,-4.122366 4.07928,-4.805846 0.577831,-0.227758 1.356188,-0.299849 1.839079,-0.170328 0.489484,0.131289 1.090668,0.739907 1.280139,1.295974 0.07833,0.229883 0.137342,0.665398 0.137342,1.01359 0,0.39175 0.03316,0.6105 0.09255,0.6105 0.227595,0 1.157738,-0.5847 1.625714,-1.02194 0.469284,-0.438465 0.532328,-0.539724 0.729215,-1.171208 0.127527,-0.409024 0.293177,-0.760478 0.405728,-0.860819 0.250386,-0.223224 0.704821,-0.345421 1.542736,-0.414835 l 0.685477,-0.05679 0.08428,0.221681 c 0.06823,0.179459 0.03854,0.336539 -0.155901,0.824754 -0.132098,0.331689 -0.225747,0.618183 -0.208102,0.636648 0.01765,0.01847 0.11381,-0.07534 0.213712,-0.208452 0.327286,-0.436113 1.18669,-1.224246 1.690605,-1.550403 0.983438,-0.636529 1.81229,-0.703511 2.370884,-0.1916 0.26694,0.244633 0.29737,0.318971 0.328046,0.801428 l 0.03381,0.531783 0.84632,-0.841422 c 1.006067,-1.000244 1.552342,-1.312593 2.295623,-1.312593 0.540514,0 0.836329,0.152008 1.085008,0.557554 0.362715,0.591513 0.28293,1.14178 -0.412356,2.843937 -0.552899,1.353587 -0.912926,2.504337 -0.912926,2.917997 0,0.30004 0.212291,0.54558 0.471712,0.54558 0.278064,0 0.892967,-0.46701 1.399006,-1.06251 0.517424,-0.60891 0.701622,-0.95417 0.923367,-1.73077 0.235918,-0.826237 0.748988,-1.804944 1.362061,-2.598204 0.658511,-0.852054 1.152422,-1.317437 1.930692,-1.81918 0.778007,-0.501573 1.1826,-0.638347 1.89658,-0.641146 0.52116,-0.0021 0.66222,0.02975 0.93617,0.21105 0.1774,0.117401 0.38705,0.322635 0.46587,0.456078 l 0.14333,0.242623 0.34271,-0.355978 c 0.55182,-0.573181 1.62852,-0.807466 2.07973,-0.452544 l 0.21694,0.170651 -0.15944,0.392174 c -0.0877,0.215693 -0.31628,0.748625 -0.50795,1.184293 -0.19168,0.435668 -0.56895,1.401699 -0.83838,2.146734 -0.42144,1.165359 -0.48988,1.435939 -0.48988,1.936699 0,0.52277 0.0204,0.59547 0.20056,0.71349 0.18279,0.11977 0.22897,0.11955 0.52114,-0.002 0.17631,-0.0737 0.42889,-0.23511 0.56127,-0.35879 0.38186,-0.35675 1.1367,-1.41552 1.63538,-2.293856 0.4313,-0.759658 0.47349,-0.806492 0.70874,-0.78686 0.23869,0.01992 0.2499,0.03805 0.2448,0.396089 -0.0117,0.818947 -1.20963,2.866697 -2.32005,3.965827 -0.84832,0.83969 -1.40057,1.13043 -2.25088,1.18499 -1.11679,0.0717 -1.66009,-0.41164 -1.73627,-1.54457 -0.01,-0.14905 -0.0401,-0.27099 -0.0667,-0.27099 -0.0267,0 -0.19018,0.18577 -0.36333,0.41282 -1.314666,1.7239 -2.978162,2.35196 -4.145639,1.5652 -0.326401,-0.21996 -0.656709,-0.7554 -0.658696,-1.06777 -7.94e-4,-0.11848 -0.01992,-0.23395 -0.04259,-0.25663 -0.02268,-0.0227 -0.432927,0.34672 -0.911682,0.82086 -0.906934,0.89818 -1.521,1.28483 -2.231094,1.4048 -0.875747,0.14795 -1.558959,-0.2256 -1.732018,-0.94699 -0.170027,-0.70875 0.07226,-2.014 0.633137,-3.41085 0.607618,-1.513257 0.728446,-2.074904 0.489104,-2.27354 -0.413065,-0.342815 -1.568286,0.941464 -2.389757,2.65674 -0.342394,0.71493 -1.235016,3.26918 -1.236551,3.5384 -0.0013,0.21641 -0.228494,0.62429 -0.39778,0.71394 -0.07978,0.0422 -0.388945,0.0997 -0.687033,0.12761 -0.298087,0.0279 -0.74985,0.0735 -1.003916,0.10121 -0.70399,0.0768 -0.728086,0.004 -0.378341,-1.14504 0.158776,-0.5216 0.424235,-1.3048 0.589909,-1.74047 0.659898,-1.73531 0.954286,-2.56099 1.047343,-2.937487 0.348155,-1.408631 -0.811342,-0.934948 -1.977795,0.807987 -0.579601,0.86605 -0.967996,1.74804 -1.53789,3.49233 -0.616699,1.88755 -0.572408,1.84168 -1.846207,1.91187 -0.891522,0.0491 -1.146702,-0.009 -1.146702,-0.26288 0,-0.22083 0.814964,-2.52555 1.54101,-4.35799 0.03682,-0.0929 -0.230981,0.008 -0.830802,0.31268 -0.486825,0.2474 -0.933643,0.44982 -0.992928,0.44982 -0.05929,0 -0.153411,0.15947 -0.209169,0.35437 -0.05576,0.1949 -0.286555,0.72958 -0.512877,1.18818 -1.156779,2.34399 -3.275562,3.62598 -5.110921,3.09243 -0.810083,-0.2355 -1.46938,-1.01862 -1.471547,-1.74793 -2.51e-4,-0.0958 -0.180768,0.0905 -0.466307,0.48152 -0.566343,0.7755 -1.242642,1.33715 -2.147067,1.78308 -0.774853,0.38205 -1.129054,0.46207 -1.581282,0.35724 -0.935773,-0.21692 -1.358728,-0.98149 -1.142696,-2.06565 0.201234,-1.00989 0.504754,-1.66515 1.387539,-2.99555 0.603168,-0.909 0.850526,-1.40639 0.749606,-1.50731 -0.05979,-0.0598 -0.747019,-0.17904 -1.07262,-0.18613 -0.204076,-0.004 -0.265057,0.0682 -0.573276,0.68292 -1.386012,2.76433 -2.376511,4.29334 -3.528769,5.44728 -1.059428,1.06099 -1.646502,1.38146 -2.616475,1.42828 -0.504624,0.0244 -0.711695,-0.003 -0.974336,-0.12817 z m 15.69715,-3.23006 c 0.55074,-0.27444 1.236019,-1.01603 1.618517,-1.7515 0.463925,-0.89205 0.464806,-0.9079 0.0574,-1.02996 -0.921237,-0.27601 -1.270717,-0.7512 -1.276763,-1.73603 -0.0021,-0.33226 -0.02246,-0.603132 -0.0454,-0.601936 -0.08112,0.0042 -0.571117,0.712996 -0.862589,1.247736 -0.954091,1.75036 -1.12998,3.69233 -0.362427,4.0015 0.28951,0.11662 0.413967,0.0981 0.871262,-0.12981 z m 22.341228,-2.77907 c 0.909698,-0.65898 1.964608,-2.436304 2.362898,-3.981029 0.33687,-1.306523 0.22928,-1.697564 -0.46706,-1.697564 -0.28656,0 -0.434,0.0626 -0.76649,0.325411 -1.459839,1.15394 -2.909594,4.551102 -2.308458,5.409342 0.19758,0.28209 0.748387,0.25585 1.17911,-0.0562 z m 2.166688,-1.3584 c -0.0266,-0.0665 -0.0464,-0.0468 -0.0504,0.0504 -0.004,0.0879 0.0161,0.13714 0.0438,0.10944 0.0277,-0.0277 0.0307,-0.0996 0.007,-0.15982 z m -22.036862,-0.0329 c 0.115486,-0.30095 0.049,-1.078769 -0.115236,-1.348133 -0.393933,-0.646094 -1.044456,-0.01172 -0.881071,0.859183 0.08664,0.46183 0.860902,0.8418 0.996307,0.48895 z M 68.294086,91.856496 c -1.342723,-0.34948 -2.067954,-1.637927 -1.798965,-3.196042 0.146986,-0.85144 0.32009,-1.429538 0.635344,-2.121813 1.048432,-2.302295 3.346783,-4.038078 5.207595,-3.932933 0.75847,0.04286 1.183643,0.325676 1.541526,1.025393 0.231375,0.452374 0.25119,0.558988 0.25119,1.35152 0,0.473221 0.01339,0.860492 0.02977,0.8606 0.01638,8.5e-5 0.260263,-0.110284 0.541978,-0.245316 0.298556,-0.143105 0.698341,-0.434716 0.95844,-0.699104 0.44456,-0.451892 0.450069,-0.464002 1.47171,-3.235655 0.818848,-2.221487 1.042241,-2.921093 1.10867,-3.472024 0.04575,-0.379479 0.131562,-0.748242 0.190678,-0.819473 0.284151,-0.342384 2.029602,-0.938874 2.443416,-0.835014 0.122841,0.03083 0.262054,0.141007 0.309361,0.244832 0.09694,0.212765 -0.03547,0.608814 -0.92502,2.766663 -0.543081,1.317395 -0.812869,2.019808 -1.332754,3.469899 l -0.317315,0.885079 0.728941,-0.728943 c 0.584943,-0.584943 0.871765,-0.799713 1.451927,-1.087196 0.632312,-0.313323 0.795123,-0.359048 1.298168,-0.364588 0.686078,-0.0076 0.947282,0.141382 1.234821,0.704106 0.403304,0.789287 0.09825,1.764586 -0.849278,2.715244 -0.554911,0.556745 -1.585029,1.204034 -2.182244,1.371243 -0.366821,0.102703 -0.379926,0.117115 -0.331801,0.36489 0.08077,0.415845 0.533982,1.271079 0.74784,1.411205 0.3733,0.244594 0.839459,0.232595 1.365578,-0.03515 0.583758,-0.297083 0.912357,-0.591027 1.439973,-1.288103 0.661348,-0.87376 1.065882,-1.623679 1.625693,-3.013668 0.291312,-0.723312 0.522549,-1.321506 0.513863,-1.329317 -0.0087,-0.0078 -0.240241,0.02135 -0.514567,0.06483 -0.578027,0.09159 -0.877019,0.04026 -0.877019,-0.150559 0,-0.303998 0.209539,-0.800907 0.401357,-0.951791 0.121901,-0.09589 0.343691,-0.163814 0.547928,-0.167806 0.188719,-0.0037 0.504113,-0.05059 0.700876,-0.104228 l 0.357754,-0.09751 0.446291,-1.292411 c 0.556927,-1.612804 0.519716,-1.526767 0.712385,-1.647092 0.150262,-0.09384 1.571678,-0.437441 1.809618,-0.437441 0.05841,0 0.169111,0.096 0.245993,0.213339 0.133782,0.204177 0.129773,0.237305 -0.09334,0.771276 -0.128222,0.306867 -0.375882,0.927849 -0.550359,1.379961 l -0.317228,0.822026 0.469607,-0.05867 c 0.258283,-0.03227 0.558913,-0.09263 0.668067,-0.134128 0.321913,-0.122391 0.770118,-0.09211 0.826905,0.05588 0.07251,0.188949 -0.113877,0.748723 -0.329618,0.989957 -0.162179,0.181343 -0.301122,0.219477 -1.143495,0.313843 l -0.958887,0.107421 -0.48351,1.20903 c -1.38576,3.46511 -1.545664,4.502591 -0.693965,4.502591 0.324043,0 0.621207,-0.178728 1.063551,-0.639664 0.408535,-0.42571 1.397236,-1.733645 1.470388,-1.945156 0.299241,-0.865219 0.599577,-1.518576 0.932473,-2.028518 0.869556,-1.332029 2.159064,-2.428714 3.303564,-2.809579 0.425175,-0.141488 0.692414,-0.175339 1.201708,-0.152212 0.848215,0.03852 1.255289,0.297085 1.626815,1.033317 0.23006,0.455893 0.250449,0.565939 0.24839,1.340504 l -0.0021,0.843835 0.250158,-0.08721 c 0.342826,-0.11951 0.955545,-0.757659 1.243573,-1.295181 l 0.238525,-0.445143 -0.227327,-0.417679 c -0.187198,-0.34394 -0.220975,-0.494318 -0.191331,-0.851792 0.0788,-0.950232 0.734208,-1.717471 1.467133,-1.717471 0.305009,0 0.408935,0.04486 0.615036,0.265491 0.2314,0.247721 0.24534,0.299347 0.20815,0.771276 -0.0219,0.278183 -0.0678,0.632323 -0.10194,0.786974 l -0.0621,0.281189 0.86712,-0.05795 c 1.56258,-0.104437 1.55455,-0.105037 1.79377,0.134186 0.26108,0.261075 0.34987,0.822015 0.20135,1.272024 -0.0553,0.16746 -0.2982,0.619395 -0.53985,1.004302 -0.94568,1.506294 -1.3873,3.262707 -0.84655,3.366895 0.27667,0.05331 0.5198,-0.06599 1.01161,-0.496369 0.57319,-0.501584 1.16724,-1.223412 1.73153,-2.103988 0.5053,-0.788501 0.56093,-0.835652 0.79366,-0.672642 0.25194,0.176466 0.22897,0.399722 -0.11496,1.117388 -0.79176,1.652119 -2.5809,3.487925 -3.82562,3.925411 -0.55098,0.193654 -0.80095,0.20079 -1.347541,0.03847 -0.827162,-0.245639 -1.169546,-0.845894 -1.095103,-1.919883 0.05195,-0.749419 0.272976,-1.317056 0.94773,-2.433897 0.299514,-0.495747 0.616764,-1.081423 0.705024,-1.301506 l 0.16045,-0.400151 -0.27139,-0.110416 c -0.14926,-0.06073 -0.409516,-0.135149 -0.578349,-0.165378 l -0.30697,-0.05497 -0.593921,0.831871 c -0.859192,1.203421 -1.465445,1.668825 -2.179505,1.673154 -0.270454,0.0016 -0.307673,0.02891 -0.353721,0.259143 -0.07867,0.393335 -0.668936,1.603187 -1.094444,2.243244 -0.476205,0.716314 -1.454949,1.638427 -2.096664,1.975347 -1.122426,0.589309 -2.222048,0.556752 -3.071212,-0.09094 -0.327528,-0.24982 -0.697587,-0.926759 -0.724418,-1.325161 -0.01143,-0.169523 -0.04605,-0.308223 -0.07696,-0.308223 -0.03091,0 -0.215321,0.206248 -0.4098,0.458329 -1.096066,1.420704 -2.720494,2.412905 -3.695221,2.257039 -0.854012,-0.136562 -1.301504,-0.669303 -1.331603,-1.585285 -0.0099,-0.300424 -0.03671,-0.543666 -0.05964,-0.540533 -0.02294,0.0031 -0.262951,0.307038 -0.533382,0.675351 -0.55817,0.760198 -1.179748,1.289148 -1.968058,1.674776 -0.999069,0.488725 -1.92614,0.308694 -2.495907,-0.484691 -0.357217,-0.497419 -0.580329,-1.055129 -0.643086,-1.60751 -0.07148,-0.629177 -0.160716,-0.847476 -0.346424,-0.847476 -0.312619,0 -0.525931,0.395012 -1.01763,1.884463 -0.272545,0.825587 -0.554,1.534326 -0.631949,1.591323 -0.153011,0.111884 -0.48618,0.163888 -1.459762,0.227854 -0.936498,0.06153 -0.982784,-0.03819 -0.581935,-1.253694 0.268263,-0.813456 0.912648,-2.565228 1.121346,-3.048386 l 0.132437,-0.306607 -0.686477,0.315941 c -0.377563,0.173771 -0.748183,0.337188 -0.823603,0.363152 -0.07719,0.02658 -0.213823,0.277592 -0.31261,0.574333 -0.424368,1.274731 -1.638126,2.89265 -2.662743,3.549394 -0.783908,0.502457 -1.929884,0.777785 -2.557449,0.614441 z m 2.020687,-1.890278 c 0.581144,-0.289597 1.411343,-1.188601 1.757685,-1.90336 0.151998,-0.313679 0.25917,-0.615122 0.238159,-0.669872 -0.02101,-0.05475 -0.198199,-0.15235 -0.393753,-0.216889 -0.72277,-0.238535 -1.159816,-0.969931 -1.16645,-1.952046 l -0.0034,-0.50628 -0.339108,0.375216 c -0.424442,0.469636 -1.174581,1.996273 -1.412029,2.873679 -0.284032,1.049547 -0.133011,1.927315 0.3662,2.128399 0.302596,0.121888 0.504296,0.09461 0.952714,-0.128847 z m 22.581618,-2.326741 c 0.597191,-0.249523 1.495285,-1.372515 1.949905,-2.438199 l 0.241739,-0.56666 -0.226883,-0.143653 c -0.124782,-0.07901 -0.314108,-0.298852 -0.420721,-0.488545 -0.268687,-0.478063 -0.219964,-1.370047 0.106762,-1.954628 0.122592,-0.21934 0.207372,-0.414319 0.188401,-0.43329 -0.01897,-0.01897 -0.182536,0.0054 -0.363479,0.0541 -1.000686,0.269457 -2.615898,3.067505 -2.698771,4.675108 -0.03051,0.591928 0.01378,0.881983 0.175048,1.146492 0.136417,0.22374 0.216789,0.270989 0.460965,0.270989 0.162656,0 0.426821,-0.05477 0.587034,-0.121711 z M 79.531723,85.777319 c 0.872811,-0.414785 1.665351,-1.245193 1.812933,-1.899555 0.0704,-0.312156 -0.09283,-0.535784 -0.391096,-0.535784 -0.268121,0 -1.109043,0.596196 -1.658527,1.175866 -0.421199,0.444331 -1.203643,1.483707 -1.203643,1.598875 0,0.104897 1.002512,-0.131337 1.440333,-0.339402 z m -6.596414,-0.627655 c 0.009,-0.770827 -0.131088,-1.057254 -0.516998,-1.057254 -0.520986,0 -0.788811,0.99927 -0.391594,1.461061 0.187555,0.218045 0.709803,0.399719 0.835565,0.290668 0.03608,-0.03129 0.06894,-0.343802 0.07303,-0.694475 z m 22.791229,-1.640922 c 0.02834,-0.04586 0.0118,-0.08338 -0.03677,-0.08338 -0.04857,0 -0.0883,0.03752 -0.0883,0.08338 0,0.04586 0.01654,0.08338 0.03677,0.08338 0.02021,0 0.05996,-0.03752 0.0883,-0.08338 z m 0.01352,-0.687896 c -0.02313,-0.05733 -0.04206,-0.01042 -0.04206,0.104227 0,0.11465 0.01892,0.16155 0.04206,0.104225 0.02312,-0.05732 0.02312,-0.151127 0,-0.208452 z M 45.906201,78.582785 c 0.114649,-0.05167 0.2618,-0.120489 0.326999,-0.152937 0.0652,-0.03245 0.309903,-0.440751 0.543782,-0.907336 0.277992,-0.554588 0.56897,-0.994495 0.84034,-1.270445 0.421511,-0.428622 1.016543,-0.831312 1.228384,-0.831312 0.208121,0 0.486016,-0.385887 0.608031,-0.844318 0.0656,-0.246451 0.119708,-0.468624 0.120253,-0.493717 5.29e-4,-0.02508 -0.383606,-0.0359 -0.85367,-0.024 -0.726337,0.01836 -0.904147,-0.0041 -1.184278,-0.149476 -0.270361,-0.140333 -0.412763,-0.160737 -0.792122,-0.113501 -0.426062,0.05305 -0.499756,0.09634 -0.935321,0.549468 l -0.472818,0.491881 h -0.542105 c -0.531072,0 -0.548034,0.0069 -0.833337,0.340239 -0.314195,0.367067 -0.784005,0.744058 -0.926147,0.743169 -0.04841,-2.64e-4 0.02454,-0.07403 0.162117,-0.163846 0.137579,-0.08982 0.418992,-0.352327 0.625359,-0.583364 0.374052,-0.418758 0.376986,-0.420142 0.944922,-0.445574 0.568024,-0.02543 0.570855,-0.02677 0.958885,-0.452424 0.455713,-0.499898 0.572992,-0.564113 1.168985,-0.640059 0.344201,-0.04386 0.493744,-0.02577 0.653806,0.07911 0.118113,0.07739 0.374896,0.135329 0.595987,0.134472 1.523646,-0.0059 1.337054,0.04297 1.871144,-0.490048 0.26516,-0.264626 0.5554,-0.603083 0.64498,-0.752126 l 0.16287,-0.270991 h -0.209905 c -0.115448,0 -0.344609,-0.05628 -0.509246,-0.125071 -0.415771,-0.173721 -0.622332,-0.157388 -1.041739,0.08238 -0.359108,0.20529 -0.687334,0.254301 -1.050776,0.156903 -0.103185,-0.02765 -0.187608,-0.08564 -0.187608,-0.128855 0,-0.04322 0.039,-0.05447 0.08666,-0.025 0.210362,0.130011 0.824664,0.04434 1.240269,-0.172977 l 0.433242,-0.226539 0.540642,0.146347 c 0.619704,0.167746 0.92905,0.138864 1.810242,-0.169006 0.603956,-0.211007 0.984149,-0.492905 1.186222,-0.879533 0.07185,-0.137475 0.303546,-0.300905 0.63876,-0.450564 0.667985,-0.29823 1.056621,-0.616503 1.243123,-1.018064 l 0.147138,-0.316801 -0.307052,-0.02002 c -0.565547,-0.03687 -1.20723,-0.219758 -1.705972,-0.486233 -0.443249,-0.236823 -0.530421,-0.25604 -0.84023,-0.185225 -0.927063,0.211906 -1.214043,0.227584 -1.534056,0.08381 -0.232167,-0.104309 -0.558925,-0.141459 -1.271363,-0.144543 -0.823574,-0.0036 -1.008425,-0.03021 -1.309934,-0.188795 -0.439742,-0.231294 -0.502803,-0.230248 -0.997047,0.01654 -0.565738,0.28249 -1.110735,0.351446 -1.414235,0.178937 -0.212958,-0.121043 -0.216374,-0.128868 -0.03094,-0.07085 0.385355,0.120577 0.922755,0.03543 1.475295,-0.233749 l 0.543486,-0.264769 0.303866,0.15457 c 0.243787,0.12401 0.509929,0.156512 1.346131,0.164395 0.700061,0.0066 1.15002,0.05066 1.370457,0.134204 0.295368,0.111938 0.389607,0.110101 0.942213,-0.01836 0.337709,-0.07851 0.636249,-0.164966 0.663419,-0.192137 0.02717,-0.02717 -0.0013,-0.110535 -0.06335,-0.185255 -0.166936,-0.201147 -1.064829,-0.795004 -1.31762,-0.871462 -0.175098,-0.05296 -0.18515,-0.06778 -0.04984,-0.0735 0.27202,-0.0115 1.298207,0.566958 1.711126,0.964561 0.208862,0.201117 0.455374,0.38023 0.547801,0.398031 0.09243,0.0178 0.298818,0.121103 0.458642,0.229562 0.609521,0.413633 1.976856,0.24677 2.554121,-0.311694 0.192879,-0.186597 0.576202,-0.284511 1.120177,-0.286133 0.169267,-5.03e-4 0.331327,-0.03905 0.360132,-0.08566 0.02881,-0.04661 0.08129,-0.06687 0.116621,-0.04503 0.03533,0.02184 0.210108,-0.03847 0.388384,-0.134019 0.227698,-0.122039 0.533284,-0.185501 1.027086,-0.213298 0.686996,-0.03867 0.714476,-0.04851 1.210943,-0.433396 0.279397,-0.216604 0.687747,-0.616277 0.907439,-0.888161 l 0.399444,-0.494336 -0.274371,-0.06205 c -0.150905,-0.03413 -0.443219,-0.05893 -0.649586,-0.05513 -0.547468,0.0101 -0.532844,0.01454 -0.884886,-0.268597 -0.178279,-0.143385 -0.549272,-0.363764 -0.824431,-0.489732 -0.275159,-0.125967 -0.646155,-0.346347 -0.824434,-0.489732 -0.387088,-0.311322 -0.420594,-0.314503 -0.75194,-0.0714 -0.342075,0.250975 -0.572619,0.349418 -1.194798,0.510181 -0.606996,0.156841 -1.099521,0.169736 -1.685239,0.04412 -0.415277,-0.08906 -0.425064,-0.08641 -0.769546,0.208453 -0.222499,0.190451 -0.426559,0.294548 -0.563208,0.287307 l -0.214291,-0.01136 0.208454,-0.03712 c 0.114649,-0.02041 0.344747,-0.1687 0.511331,-0.32952 l 0.302877,-0.292399 0.739388,0.08971 c 0.693537,0.08415 0.776682,0.07708 1.340766,-0.113959 0.707295,-0.23954 1.037648,-0.401247 1.186759,-0.580914 0.09556,-0.115141 0.06501,-0.13057 -0.258508,-0.13057 -0.390885,0 -0.553643,-0.08555 -1.152779,-0.605896 -0.318643,-0.276739 -0.410615,-0.315978 -0.625361,-0.266799 -0.342848,0.07852 -0.583306,0.06001 -0.990603,-0.07622 -0.18982,-0.06349 -0.476454,-0.102066 -0.636963,-0.08572 l -0.291836,0.02973 0.276246,-0.09479 c 0.223412,-0.07666 0.362776,-0.06751 0.728629,0.04781 0.288292,0.09088 0.558382,0.122714 0.744624,0.08777 0.358532,-0.06726 0.619938,-0.0073 0.836981,0.192123 0.562107,0.516362 0.752985,0.605218 1.300112,0.605218 0.433893,0 0.593841,0.03958 0.842322,0.208425 0.510892,0.34716 1.087432,0.629334 1.312175,0.642214 0.116879,0.0067 0.339804,0.105446 0.495387,0.21944 0.243639,0.178512 0.382429,0.209518 1.000575,0.22353 0.394734,0.0089 0.755221,0.02803 0.801081,0.04241 0.119571,0.03749 0.713714,-0.07954 0.958885,-0.188888 0.114649,-0.05113 0.227216,-0.09622 0.250145,-0.100195 0.02294,-0.004 0.0877,-0.03646 0.14393,-0.07218 0.05623,-0.03572 0.300123,-0.08793 0.541978,-0.116024 0.241856,-0.02809 0.589825,-0.11537 0.773263,-0.193955 0.384374,-0.164666 0.725549,-0.501903 0.564722,-0.558207 -0.05628,-0.0197 -0.431496,-0.234111 -0.833813,-0.476461 -0.638358,-0.384538 -0.768636,-0.50426 -1.023319,-0.940388 -0.615794,-1.054514 -0.816226,-1.186807 -2.019342,-1.332829 -0.673296,-0.08172 -0.951648,-0.08617 -1.080357,-0.01729 -0.118941,0.06365 -0.190209,0.06556 -0.226984,0.0061 -0.05803,-0.0939 -0.798589,-0.43077 -0.94698,-0.43077 -0.04993,0 -0.33386,-0.09725 -0.630971,-0.216114 -0.57876,-0.231541 -0.679553,-0.230483 -1.5895,0.01669 -0.452184,0.122832 -0.590106,0.129172 -0.915686,0.04209 -0.21082,-0.05639 -0.505325,-0.195584 -0.654449,-0.309328 -0.407689,-0.310959 -1.113902,-0.615571 -1.429269,-0.616489 -0.153948,-4.49e-4 -0.538168,0.06152 -0.853818,0.137708 -0.466741,0.112654 -0.63427,0.120439 -0.89711,0.04169 -0.385421,-0.115474 -0.929822,-0.121705 -1.386353,-0.01587 -0.349726,0.08108 -0.679844,0.402649 -0.918176,0.894398 -0.148825,0.307077 -0.442375,0.526021 -0.917662,0.684441 -0.374324,0.124768 -0.551873,0.303272 -1.205021,1.211508 -0.343945,0.478274 -0.546888,0.675607 -0.833813,0.810766 -0.208574,0.09825 -0.463648,0.254557 -0.566833,0.347347 -0.103185,0.09279 -0.187534,0.134029 -0.187446,0.09164 2.01e-4,-0.0938 0.756859,-0.619049 0.891791,-0.619049 0.05301,0 0.211942,-0.201972 0.353176,-0.448827 0.141238,-0.246855 0.312838,-0.495339 0.381336,-0.552188 0.0685,-0.05685 0.124542,-0.140883 0.124542,-0.186742 0,-0.04586 -0.05825,-0.03504 -0.129442,0.02405 -0.113659,0.09433 -1.130795,0.173652 -2.086845,0.162747 -0.166055,-0.0019 -0.38708,0.09614 -0.625359,0.277367 -0.70014,0.532508 -0.844526,0.562043 -1.651196,0.337769 -0.465246,-0.129349 -0.52621,-0.127459 -1.306229,0.04051 -0.450013,0.09691 -0.830633,0.163765 -0.845822,0.148576 -0.06117,-0.06117 1.373907,-0.389105 1.69819,-0.388056 0.191405,6.09e-4 0.539194,0.04526 0.772864,0.0992 0.362032,0.08357 0.46777,0.0776 0.715103,-0.04034 0.159636,-0.07613 0.290248,-0.175776 0.290248,-0.221446 0,-0.133784 0.636145,-0.419909 0.934717,-0.420415 0.150871,-2.58e-4 0.423214,-0.0418 0.605205,-0.09233 0.2461,-0.06832 0.438399,-0.06636 0.75043,0.0077 0.355222,0.08427 0.457888,0.07933 0.669684,-0.03223 0.137578,-0.07247 0.297045,-0.131994 0.35437,-0.132276 0.05732,-2.91e-4 0.104227,-0.05407 0.104227,-0.119534 0,-0.168212 0.380736,-0.447118 0.769271,-0.563526 0.302376,-0.09059 0.731594,-0.502803 0.731594,-0.702606 0,-0.04235 0.09898,-0.222659 0.219948,-0.400686 l 0.219951,-0.323685 -0.365868,0.05857 c -0.886654,0.141945 -1.09338,0.149598 -1.437587,0.05323 -0.217181,-0.06081 -0.475065,-0.218596 -0.635837,-0.389045 -0.148756,-0.157711 -0.378878,-0.34281 -0.511381,-0.41133 -0.346287,-0.179071 -1.046446,-0.310775 -1.556313,-0.292751 -0.620877,0.02195 -0.729512,-0.03349 -0.890207,-0.45426 -0.07814,-0.204609 -0.23799,-0.447463 -0.355219,-0.539676 -0.22883,-0.179997 -0.196763,-0.221419 0.06356,-0.0821 0.08793,0.04706 0.259046,0.295201 0.380262,0.551431 l 0.220393,0.465872 0.468915,-0.05549 c 0.257903,-0.03052 0.543957,-0.05745 0.635678,-0.05983 0.463841,-0.01207 1.441008,0.403431 1.849416,0.786399 0.22729,0.213132 0.347091,0.254515 0.838645,0.289685 0.435411,0.03115 0.602966,0.01154 0.695978,-0.08147 0.135324,-0.135323 1.387311,-0.269298 2.160818,-0.231229 1.314333,0.06469 2.112089,-0.06858 1.750028,-0.292347 -0.134226,-0.08296 -0.719693,-0.99682 -0.77959,-1.216873 -0.111855,-0.410947 -0.566023,-0.763167 -1.184793,-0.91884 -0.450059,-0.113228 -0.568434,-0.198071 -0.654444,-0.46907 -0.03134,-0.09875 -0.23994,-0.332728 -0.46355,-0.519944 -0.276069,-0.231138 -0.444019,-0.453268 -0.523264,-0.692064 -0.136112,-0.410157 -0.510911,-0.703341 -0.998882,-0.781371 -0.252894,-0.04044 -0.401634,-0.141403 -0.673647,-0.457263 -0.229791,-0.266834 -0.414833,-0.405378 -0.541465,-0.405405 -0.293679,-6.3e-5 -0.929346,-0.176376 -0.990057,-0.27461 -0.03534,-0.05719 0.0011,-0.06413 0.105642,-0.02013 0.08778,0.03694 0.384726,0.103115 0.659885,0.147054 0.444915,0.07105 0.541819,0.124027 0.875503,0.478676 0.309089,0.328508 0.442868,0.40853 0.759074,0.454065 0.451231,0.06498 0.703371,0.274193 0.91962,0.763058 0.10268,0.232127 0.299776,0.457485 0.56973,0.651427 0.227005,0.163088 0.471286,0.409745 0.542846,0.548127 0.07812,0.151073 0.221122,0.273105 0.357891,0.305415 0.12528,0.0296 0.420902,0.140425 0.656934,0.246288 0.375965,0.168622 0.488508,0.283527 0.908076,0.927127 0.418018,0.641224 0.656529,0.918554 1.105588,1.285524 0.162206,0.132554 0.571992,0.233119 0.754957,0.185272 0.100573,-0.0263 0.325882,0.07075 0.596646,0.257003 0.239279,0.164594 0.470577,0.299262 0.513998,0.299262 0.04342,0 0.05736,0.03493 0.03097,0.07762 -0.02638,0.04269 -0.0098,0.101188 0.03677,0.129993 0.04661,0.02881 0.08482,0.02202 0.08491,-0.01508 8.4e-5,-0.0371 0.122036,-0.07593 0.270989,-0.08628 0.148955,-0.01035 0.484817,-0.09869 0.746363,-0.196314 0.317643,-0.11856 0.5945,-0.165084 0.833813,-0.140118 0.42486,0.04432 1.381863,0.285314 1.587018,0.39964 0.170323,0.09492 0.731642,0.108895 0.728668,0.01815 -0.0036,-0.110943 -0.315418,-1.002266 -0.420634,-1.20252 -0.208034,-0.39594 -0.750938,-0.96836 -1.014564,-1.069723 -0.149637,-0.05754 -0.50157,-0.352136 -0.782071,-0.654669 l -0.510003,-0.55006 -0.407191,0.08149 c -0.425259,0.08511 -1.616223,-0.0064 -1.616223,-0.124203 0,-0.09436 -0.639104,-0.501473 -0.989812,-0.630518 -0.166428,-0.06124 -0.23573,-0.113985 -0.154003,-0.117216 0.237622,-0.0094 0.673441,0.202418 0.992018,0.48213 0.267904,0.235224 0.35066,0.260043 0.91113,0.273242 0.80573,0.01898 1.178565,-0.06311 1.123995,-0.247461 -0.02257,-0.07621 -0.06385,-0.234653 -0.09175,-0.352088 -0.0279,-0.117435 -0.160012,-0.316664 -0.293584,-0.442733 -0.180041,-0.16993 -0.257191,-0.337285 -0.298281,-0.647047 -0.03949,-0.297667 -0.134133,-0.512036 -0.329099,-0.745395 -0.150522,-0.180161 -0.297522,-0.436154 -0.326673,-0.568874 -0.05395,-0.245611 -0.183238,-0.366967 -0.914046,-0.857941 -0.226486,-0.152158 -0.427556,-0.326423 -0.446823,-0.387254 -0.01926,-0.06083 0.140769,0.02359 0.355642,0.187608 0.214871,0.164016 0.439719,0.29821 0.499658,0.29821 0.148913,0 0.712057,0.635151 0.712057,0.803102 0,0.07456 0.131326,0.280933 0.291836,0.458598 0.228967,0.25344 0.291835,0.393443 0.291835,0.649913 0,0.218265 0.06415,0.405209 0.193043,0.562584 0.291737,0.356198 0.557387,0.822187 0.557387,0.977741 0,0.07628 0.0486,0.157342 0.108,0.180135 0.0594,0.02279 0.275148,0.264361 0.479441,0.536817 0.319535,0.426143 0.773933,0.751129 0.889146,0.635915 0.01765,-0.01763 0.05197,-0.469428 0.07631,-1.003985 0.03987,-0.875871 0.0274,-1.000464 -0.126153,-1.260724 -0.09372,-0.15884 -0.140793,-0.2888 -0.104609,-0.2888 0.03619,0 0.144053,0.159467 0.239705,0.354371 0.155556,0.316958 0.169185,0.455677 0.129111,1.313954 l -0.0448,0.959584 0.42292,0.50614 c 0.238236,0.285116 0.525116,0.758159 0.656948,1.083258 0.128711,0.317415 0.273036,0.642779 0.320717,0.723032 0.08228,0.138492 0.866246,0.396065 1.205481,0.396065 0.30525,0 1.50178,0.425526 1.709415,0.607926 0.115324,0.101308 0.312621,0.390065 0.438436,0.641683 0.152225,0.304439 0.312435,0.496628 0.478898,0.574486 0.137578,0.06435 0.459899,0.315059 0.716267,0.557134 0.605975,0.572191 0.900242,0.652935 2.320729,0.636784 1.080767,-0.01229 1.126929,-0.0201 1.343348,-0.227446 0.418999,-0.401427 1.666589,-0.623304 2.364295,-0.420475 0.424702,0.123464 0.479981,0.122861 0.754886,-0.0082 0.29056,-0.138557 0.405018,-0.360708 0.185851,-0.360708 -0.31169,0 -0.892604,-0.536695 -1.359916,-1.256402 -0.690758,-1.06384 -0.723673,-1.10084 -0.995561,-1.119148 -0.134001,-0.009 -0.322247,-0.02228 -0.418319,-0.02946 -0.09608,-0.0072 -0.41501,-0.168419 -0.708743,-0.358313 -0.610729,-0.394828 -0.896519,-0.498876 -1.367872,-0.498005 -0.300786,5.56e-4 -0.382635,-0.05071 -0.833813,-0.522238 -0.547224,-0.571904 -0.806632,-0.718391 -1.27549,-0.720258 -0.382299,-0.0015 -0.667885,-0.143296 -0.837332,-0.415677 -0.123669,-0.198799 -0.117689,-0.197455 0.129164,0.02902 0.19463,0.178563 0.379701,0.252636 0.746033,0.298594 0.755763,0.09481 1.136192,0.307522 1.632868,0.912985 0.09833,0.119867 0.246152,0.179093 0.458599,0.183739 0.580303,0.01269 0.811607,0.08486 1.314072,0.409983 0.633272,0.409767 0.84945,0.489008 1.193911,0.437635 l 0.276717,-0.04127 -0.204123,-0.218994 C 69.53171,59.218365 69.342072,58.961964 69.22256,58.769032 69.103048,58.5761 68.920295,58.373278 68.816441,58.318317 68.388932,58.092073 67.886975,57.598844 67.542837,57.066859 67.236725,56.593659 67.108727,56.472252 66.755945,56.32049 66.524223,56.2208 66.33463,56.106814 66.33463,56.067177 c 0,-0.03964 -0.148751,-0.16597 -0.330562,-0.28074 -0.181806,-0.114771 -0.416317,-0.358267 -0.521131,-0.541103 -0.207656,-0.362228 -0.327724,-0.405795 -1.603727,-0.581929 -0.325017,-0.04486 -0.672748,-0.149002 -0.792123,-0.237223 -0.227206,-0.167913 -0.636495,-0.830519 -0.56016,-0.906855 0.02516,-0.02518 0.09915,0.08198 0.164394,0.238121 0.06524,0.156143 0.233627,0.380669 0.374192,0.498948 0.258754,0.217727 0.874739,0.368812 1.119984,0.274702 0.07211,-0.02767 0.155884,-0.01023 0.186158,0.03875 0.03028,0.04899 0.160705,0.08906 0.289846,0.08906 0.510011,0 0.764159,0.104333 0.961469,0.394699 0.259406,0.381751 1.091123,1.079566 1.344438,1.12799 0.235693,0.04506 0.241996,0.01319 0.07596,-0.384181 -0.06879,-0.164636 -0.125073,-0.483558 -0.125073,-0.708714 0,-0.269828 -0.04451,-0.446313 -0.13057,-0.517738 -0.191772,-0.159156 -0.339111,-0.489056 -0.402198,-0.900539 -0.0819,-0.534197 -0.254884,-0.807387 -0.653891,-1.032675 -0.195742,-0.11052 -0.346964,-0.243685 -0.33605,-0.295922 0.01093,-0.05224 -0.02809,-0.07658 -0.08669,-0.0541 -0.0657,0.02521 -0.148584,-0.0798 -0.216257,-0.273989 -0.06035,-0.173179 -0.223298,-0.459553 -0.362098,-0.636387 -0.199975,-0.254765 -0.2168,-0.302481 -0.08104,-0.229826 0.207396,0.110996 0.517784,0.492427 0.517784,0.636298 0,0.05729 0.150908,0.230454 0.335352,0.384817 1.052618,0.880947 1.021702,0.841094 1.087874,1.402313 0.05067,0.429769 0.108842,0.570228 0.331118,0.799559 0.245486,0.253276 0.2657,0.313193 0.225626,0.668725 -0.03713,0.329456 -0.0019,0.470419 0.226147,0.901445 0.14859,0.281006 0.316064,0.651041 0.372161,0.822297 0.0561,0.171257 0.202464,0.386598 0.32526,0.478536 0.122793,0.09194 0.267316,0.203909 0.321164,0.248826 0.15113,0.126071 0.645901,0.419775 0.707737,0.420124 0.03036,1.75e-4 0.08099,-0.152304 0.112503,-0.338832 0.07496,-0.443664 0.132692,-0.371175 0.136899,0.171881 0.0029,0.3676 0.04459,0.481772 0.270099,0.73878 0.146704,0.167192 0.331545,0.40717 0.410758,0.533285 0.29241,0.465539 0.424487,0.114078 0.178432,-0.474814 -0.120509,-0.288423 -0.115789,-0.354122 0.07586,-1.05533 l 0.204364,-0.74776 -0.252299,-0.489201 c -0.213958,-0.414854 -0.23916,-0.525297 -0.16582,-0.726706 0.08596,-0.236075 0.08652,-0.235542 0.09307,0.0887 0.0039,0.191973 0.09704,0.480546 0.226401,0.701293 l 0.219819,0.375093 -0.191035,0.771549 c -0.18729,0.756438 -0.188063,0.777811 -0.03938,1.091145 0.10152,0.213938 0.145349,0.474156 0.132577,0.787116 -0.01656,0.405602 0.01643,0.520136 0.249029,0.864785 0.461052,0.683148 1.396021,1.460192 1.760265,1.462938 0.105616,7.94e-4 0.442883,0.05461 0.749477,0.119592 0.476914,0.101077 0.646467,0.191208 1.173673,0.623912 0.338923,0.278173 0.657767,0.505768 0.708538,0.505768 0.153676,0 1.104048,1.274616 1.104048,1.480722 0,0.142432 0.519944,0.213766 0.931739,0.12783 0.198368,-0.0414 0.54828,-0.06766 0.777578,-0.05836 0.498848,0.02023 1.449017,-0.177295 1.935107,-0.402286 0.239572,-0.110887 0.418711,-0.278171 0.564761,-0.527389 0.164539,-0.280762 0.286105,-0.384433 0.526786,-0.449242 0.176347,-0.04748 0.451956,-0.226669 0.631565,-0.410607 0.175274,-0.179495 0.47448,-0.392622 0.664906,-0.473616 0.722352,-0.307238 1.26787,-0.570001 1.388496,-0.668807 0.06879,-0.05635 0.341382,-0.123089 0.605759,-0.148317 0.264377,-0.02523 0.509344,-0.06358 0.544369,-0.08523 0.03503,-0.02165 0.300678,0.0101 0.590341,0.07055 0.376402,0.07855 0.601716,0.181587 0.789731,0.361158 0.419524,0.400677 0.83094,0.530222 1.79787,0.566104 0.477261,0.01771 0.882603,0.04706 0.900758,0.06522 0.01815,0.01816 0.209257,-0.02038 0.424665,-0.08564 0.232029,-0.07029 0.520213,-0.09723 0.707088,-0.0661 0.25559,0.04258 0.366326,0.01414 0.583668,-0.14991 0.147529,-0.111355 0.542589,-0.34586 0.877911,-0.521123 0.636106,-0.332473 1.119585,-0.845344 1.497719,-1.588765 0.120222,-0.236363 0.295209,-0.404598 0.58474,-0.562181 0.227248,-0.123683 0.453993,-0.274057 0.503878,-0.334165 0.136874,-0.164925 -0.173871,-0.626024 -0.46269,-0.686558 -0.37496,-0.07859 -1.476248,-0.644901 -1.768565,-0.909445 -0.09634,-0.08719 -0.19848,-0.304331 -0.226978,-0.482545 -0.06953,-0.434838 -0.343435,-0.826505 -0.69719,-0.996952 -0.275366,-0.132677 -0.998964,-0.177519 -2.250194,-0.139446 -0.20637,0.0063 -0.584804,-0.02433 -0.840968,-0.06801 -0.336968,-0.05747 -0.544462,-0.05097 -0.75043,0.02349 -0.425614,0.153862 -0.783119,0.13562 -1.156528,-0.05901 -0.490331,-0.255574 -1.423704,-0.260879 -1.897261,-0.01078 -0.193077,0.101968 -0.478766,0.185397 -0.634867,0.185397 -0.234786,0 -0.320345,0.05402 -0.495266,0.31268 -0.233423,0.345169 -0.279019,0.475022 -0.354322,1.009074 -0.06612,0.468912 -0.15648,0.700151 -0.329819,0.844009 -0.07692,0.06384 -0.213667,0.260755 -0.303885,0.437596 -0.174347,0.341749 -0.586081,0.647685 -0.872357,0.648201 -0.167561,2.91e-4 -0.535665,0.313944 -0.535665,0.456412 0,0.03858 -0.09381,0.19312 -0.208455,0.343434 -0.114649,0.150313 -0.208452,0.307505 -0.208452,0.349317 0,0.04181 -0.07937,0.1475 -0.176374,0.234862 -0.142163,0.128033 -0.128725,0.07798 0.06929,-0.258066 0.256532,-0.435361 0.426852,-0.747154 0.523798,-0.958885 0.0627,-0.136929 0.384392,-0.316855 0.634857,-0.355079 0.22805,-0.0348 0.488799,-0.237331 0.616358,-0.478734 0.06058,-0.114649 0.213135,-0.339779 0.339005,-0.500288 0.131395,-0.167553 0.252508,-0.451625 0.284393,-0.667051 0.03054,-0.206368 0.07327,-0.438318 0.09494,-0.515443 0.03509,-0.124844 -0.03647,-0.137115 -0.652295,-0.111853 -0.38044,0.01561 -0.804273,0.07259 -0.941854,0.12663 -0.218088,0.08566 -0.692554,0.137471 -1.470842,0.1606 -0.26203,0.0078 -1.155668,0.8424 -1.155668,1.079336 0,0.08364 -0.08085,0.223557 -0.179671,0.310919 l -0.179671,0.158841 0.14251,-0.221578 c 0.215837,-0.335585 -0.03779,-0.410209 -0.820729,-0.241478 -0.226708,0.04886 -0.471459,0.07002 -0.543891,0.04704 -0.217644,-0.06908 -0.611576,0.08549 -0.896017,0.35158 -0.195199,0.182603 -0.38445,0.266045 -0.697629,0.30759 -0.236371,0.03136 -0.448527,0.03825 -0.471456,0.01532 -0.02294,-0.02293 0.154197,-0.06768 0.393618,-0.09944 0.33827,-0.04487 0.518149,-0.129443 0.806926,-0.379379 0.204391,-0.176898 0.453761,-0.32856 0.554157,-0.337025 0.100393,-0.0085 0.25758,-0.02098 0.3493,-0.02781 0.09172,-0.0068 0.279326,-0.03501 0.416904,-0.06262 0.137581,-0.02762 0.421759,-0.07269 0.63151,-0.100169 0.299101,-0.03918 0.464426,-0.128425 0.766445,-0.41372 0.381024,-0.359926 0.383328,-0.365347 0.218715,-0.514321 -0.196879,-0.178171 -0.557003,-0.190159 -1.363109,-0.04537 -0.935477,0.168021 -1.386761,0.01899 -1.804922,-0.59605 -0.157249,-0.231289 -0.13418,-0.219873 0.1709,0.08457 0.430234,0.429331 0.7312,0.498973 1.534713,0.355128 1.028131,-0.184058 1.197843,-0.189137 1.487718,-0.04453 0.377404,0.188275 1.534318,0.160773 2.15047,-0.05112 0.316296,-0.108774 0.565033,-0.141051 0.807161,-0.104741 0.41986,0.06296 0.912059,-0.17306 1.121336,-0.537707 0.130503,-0.227386 0.127548,-0.235601 -0.176622,-0.490968 -0.350703,-0.294433 -0.957781,-0.654288 -0.873366,-0.517702 0.0382,0.06181 -0.128294,0.08469 -0.530686,0.07294 -0.572248,-0.01671 -0.594828,-0.02576 -0.938821,-0.376264 -0.193857,-0.197527 -0.466955,-0.384286 -0.606882,-0.415018 -0.369806,-0.08122 -0.551717,-0.217841 -0.551717,-0.414347 0,-0.244984 -0.415928,-0.612526 -0.844394,-0.746163 -0.264957,-0.08264 -0.30765,-0.114752 -0.156181,-0.117474 0.264536,-0.0048 0.833845,0.25428 1.011557,0.460257 0.07483,0.08673 0.161756,0.24203 0.193167,0.345107 0.03255,0.106832 0.144349,0.205424 0.260007,0.229299 0.111593,0.02304 0.289303,0.0595 0.394917,0.08104 0.105608,0.02153 0.331033,0.178167 0.500938,0.348073 l 0.308917,0.308917 0.774554,-0.01851 0.774555,-0.01851 0.342214,0.345637 0.342218,0.345637 0.779502,-0.101382 c 1.18708,-0.15439 1.584754,-0.139244 1.975239,0.07523 0.158718,0.08718 0.262591,0.08728 0.55631,5.82e-4 l 0.361154,-0.106636 -0.420865,-0.460495 c -0.239263,-0.26179 -0.619911,-0.560895 -0.88215,-0.69317 -0.58266,-0.2939 -0.672909,-0.370227 -0.646779,-0.547002 0.01162,-0.07857 0.005,-0.09595 -0.01471,-0.03862 -0.102272,0.297437 -0.289904,0.04258 -0.741005,-1.006495 -0.173948,-0.40453 -0.387186,-0.773462 -0.473864,-0.819851 -0.08668,-0.04639 -0.306504,-0.218871 -0.4885,-0.383294 -0.298476,-0.269655 -0.393763,-0.304902 -0.972354,-0.359681 -0.602917,-0.05708 -0.670322,-0.04622 -1.122111,0.180761 -0.642885,0.322996 -0.695672,0.30463 -0.144698,-0.05034 0.409426,-0.263779 0.509354,-0.291644 1.039455,-0.289845 0.797174,0.0027 1.184113,0.106172 1.493017,0.399235 0.143441,0.136086 0.339741,0.271117 0.436221,0.300069 0.177933,0.05339 0.245393,0.164833 0.685935,1.133095 0.27722,0.609299 0.586722,0.973686 0.89213,1.050339 0.113287,0.02843 0.206052,0.07577 0.206142,0.105194 8.5e-5,0.02942 0.1172,0.06172 0.260245,0.07178 0.192029,0.0135 0.378163,0.138268 0.711406,0.476874 0.248232,0.252226 0.590762,0.525118 0.761177,0.606426 0.357833,0.170725 0.341569,0.166726 0.733706,0.180406 0.199876,0.007 0.286639,0.04492 0.262104,0.114649 -0.02085,0.05926 -0.156017,0.09824 -0.313262,0.09036 -0.192688,-0.0097 -0.240577,0.0089 -0.157879,0.06126 0.183848,0.116357 0.470913,0.09114 0.523534,-0.04598 0.03044,-0.07933 0.100906,-0.103214 0.196529,-0.06662 0.08199,0.03137 -0.0104,-0.09477 -0.205295,-0.28033 -0.29296,-0.278906 -0.354372,-0.391136 -0.354372,-0.6476 0,-0.170624 0.03559,-0.376737 0.0791,-0.458027 0.140148,-0.261865 0.01,-0.500329 -0.321926,-0.589698 -0.564269,-0.151941 -0.935501,-0.706476 -0.912019,-1.362345 0.0099,-0.278007 0.01945,-0.298091 0.04674,-0.0988 0.01884,0.137579 0.07021,0.388111 0.114155,0.556737 0.151598,0.581695 0.993947,1.024993 0.993947,0.523079 0,-0.44407 0.289652,-0.787982 0.663662,-0.787982 0.277299,0 0.378873,-0.255845 0.416102,-1.048094 0.0049,-0.10361 0.504481,-0.682023 0.504481,-0.584051 0,0.03603 -0.0938,0.176997 -0.208452,0.313251 -0.164253,0.195203 -0.208454,0.340283 -0.208454,0.684209 0,0.479115 -0.202518,0.801448 -0.503537,0.801448 -0.432147,0 -0.62683,0.591109 -0.362826,1.101636 0.111858,0.216311 0.11792,0.313929 0.03639,0.586066 -0.08152,0.272094 -0.0761,0.359695 0.03255,0.525507 0.180681,0.275755 0.379412,0.365472 0.939686,0.424219 0.265708,0.02786 0.60361,0.09995 0.750901,0.160199 0.147291,0.06025 0.447463,0.13575 0.667051,0.167779 0.448641,0.06544 0.913443,0.27526 1.122876,0.506891 0.07698,0.08513 0.21336,0.326045 0.303075,0.535358 0.08971,0.209312 0.277926,0.47717 0.418246,0.595241 0.140316,0.11807 0.229063,0.243623 0.197212,0.279005 -0.03185,0.03538 -0.01074,0.03718 0.04688,0.004 0.05764,-0.03318 0.207724,0.01053 0.333525,0.09715 0.649806,0.447383 1.404287,0.512084 2.659608,0.228074 0.09877,-0.02235 0.377195,-0.196834 0.618723,-0.38775 0.414125,-0.327349 0.467405,-0.346102 0.935336,-0.329216 0.29717,0.01072 0.651608,-0.03798 0.88365,-0.121419 0.372803,-0.134059 0.401574,-0.132794 0.761159,0.03348 0.890325,0.411689 1.736581,0.549836 3.166981,0.516993 0.69996,-0.01607 0.86003,-0.05003 1.37579,-0.291834 0.32162,-0.150785 0.72041,-0.41895 0.88823,-0.597277 0.39281,-0.417416 0.73771,-0.935333 0.73771,-1.107784 0,-0.190434 0.50127,-1.198102 0.65069,-1.308037 0.0681,-0.05007 0.33409,-0.159397 0.59118,-0.242946 0.70171,-0.228038 1.01674,-0.378559 1.38317,-0.660889 0.78996,-0.608647 1.07248,-0.890816 1.26673,-1.265113 0.13875,-0.267365 0.19657,-0.303266 0.52828,-0.328006 0.23702,-0.01768 0.41831,-0.08427 0.4985,-0.183121 0.0693,-0.08544 0.18912,-0.179499 0.26625,-0.209026 0.18596,-0.07118 1.33278,-0.921279 1.47653,-1.094493 0.21712,-0.261612 0.24259,-0.132484 0.0641,0.324791 -0.1317,0.337323 -0.28456,0.544135 -0.57008,0.771277 -0.21458,0.1707 -0.43412,0.390032 -0.48788,0.487404 -0.0538,0.09737 -0.26149,0.258817 -0.46161,0.358766 -0.50303,0.251222 -1.48018,1.331299 -1.70453,1.88406 -0.2001,0.493017 -0.27907,0.542436 -1.20307,0.752855 -0.31814,0.07245 -0.68822,0.209898 -0.8224,0.305442 -0.27778,0.197793 -0.47524,0.606909 -0.47524,0.984633 0,0.36432 -0.29632,0.969896 -0.71376,1.458702 -0.51904,0.607759 -0.52933,0.733237 -0.12838,1.565536 0.18689,0.387937 0.39679,0.982026 0.46645,1.320197 0.13644,0.662394 0.17494,0.712518 1.11275,1.44867 0.42512,0.333704 0.55144,0.57432 0.61284,1.167338 0.0211,0.203963 0.10286,0.291606 0.4428,0.474722 0.59629,0.321206 0.87781,0.662025 0.86592,1.048303 l -0.01,0.311364 -0.0595,-0.305502 c -0.0906,-0.46501 -0.28091,-0.690099 -0.78564,-0.929079 -0.51141,-0.24214 -0.63655,-0.407412 -0.63655,-0.84068 0,-0.340152 -0.24325,-0.626033 -0.75471,-0.886958 -0.18108,-0.09238 -0.32924,-0.225703 -0.32924,-0.296267 0,-0.07056 -0.0392,-0.104093 -0.087,-0.07451 -0.0479,0.02959 -0.14123,0.0088 -0.20747,-0.04616 -0.14872,-0.123429 -0.18843,-0.03616 -0.2376,0.522114 -0.0191,0.217156 -0.10421,0.50416 -0.18909,0.637786 -0.0849,0.133627 -0.2614,0.416166 -0.39228,0.627866 l -0.23797,0.384908 0.14221,0.580279 c 0.13322,0.543614 0.17905,0.615037 0.72532,1.130361 0.32071,0.302545 0.56362,0.569576 0.5398,0.593402 -0.0238,0.02383 0.01,0.21812 0.0746,0.431765 0.0648,0.213644 0.11836,0.501009 0.11893,0.638588 8e-4,0.182647 0.0899,0.333755 0.33036,0.560005 0.2185,0.205584 0.3702,0.447512 0.4508,0.718898 0.18499,0.622943 0.35877,0.905547 0.69904,1.136764 0.17066,0.115965 0.25912,0.210845 0.19658,0.210845 -0.0625,0 -0.27412,-0.160409 -0.47017,-0.356464 -0.25629,-0.25629 -0.3952,-0.489705 -0.4943,-0.830592 -0.12611,-0.433813 -0.49213,-0.897477 -0.70848,-0.897477 -0.0822,0 -0.16786,0.390231 -0.21658,0.986955 -0.02,0.244738 -0.0896,0.676236 -0.15474,0.958886 -0.15628,0.678313 -0.10408,0.883384 0.33445,1.313766 0.28611,0.280794 0.36482,0.416594 0.35598,0.61414 -0.0102,0.22779 -0.0153,0.232392 -0.0499,0.04518 -0.0212,-0.114649 -0.22245,-0.403196 -0.44724,-0.641212 -0.35937,-0.38054 -0.40869,-0.476192 -0.40869,-0.792673 0,-0.197954 0.0377,-0.490992 0.0838,-0.651199 0.1252,-0.435179 0.20806,-1.282526 0.20786,-2.125673 -2.6e-4,-0.897918 -0.18805,-1.357385 -0.71581,-1.751007 -0.20926,-0.156071 -0.42406,-0.43059 -0.57115,-0.729954 -0.23171,-0.471559 -0.23786,-0.476578 -0.35826,-0.291835 -0.27591,0.423398 -0.35143,0.79196 -0.25626,1.250586 0.05,0.241039 0.0619,0.491301 0.0265,0.556138 -0.0376,0.06882 -0.0896,-0.16622 -0.12491,-0.564739 -0.0554,-0.626172 -0.0431,-0.718666 0.1491,-1.11846 0.24129,-0.501921 0.36832,-1.139268 0.24263,-1.217432 -0.048,-0.02983 0.0733,-0.257832 0.28276,-0.531831 0.352,-0.460351 0.36673,-0.502832 0.36673,-1.057684 0,-0.317939 0.0341,-0.667628 0.0757,-0.777087 0.0853,-0.224428 -0.11182,-1.058723 -0.33107,-1.401052 -0.0717,-0.111917 -0.17969,-0.326105 -0.24003,-0.475972 -0.0603,-0.149867 -0.2544,-0.387084 -0.43125,-0.527149 -0.3484,-0.275939 -0.50665,-0.272959 -0.91898,0.01731 -0.12084,0.08508 -0.39252,0.228755 -0.60373,0.319289 -0.40898,0.17531 -0.68216,0.520357 -0.76692,0.968698 -0.0266,0.140534 -0.17466,0.415176 -0.32908,0.610315 -0.28725,0.363001 -0.28972,0.37988 -0.16036,1.097597 0.0567,0.314555 -0.0343,0.579399 -0.4275,1.243964 -0.18149,0.306753 -0.21887,0.468493 -0.21198,0.917194 0.005,0.317794 0.0781,0.735347 0.17565,1.002187 0.092,0.251581 0.16728,0.557049 0.16728,0.678817 0,0.13625 0.12959,0.37721 0.33696,0.626537 0.46828,0.563039 0.82543,1.322817 0.91299,1.942246 0.047,0.332675 0.15595,0.647727 0.29836,0.86292 0.1368,0.206715 0.24802,0.520308 0.2851,0.803846 0.0359,0.274678 0.16736,0.652554 0.32121,0.923503 0.14324,0.25224 0.25733,0.571156 0.25355,0.708742 -0.007,0.239636 -0.01,0.237223 -0.0795,-0.05745 -0.04,-0.169178 -0.18627,-0.492263 -0.32515,-0.717968 -0.14528,-0.236104 -0.27396,-0.583502 -0.30302,-0.818058 -0.0301,-0.243326 -0.14347,-0.54214 -0.2811,-0.741206 -0.12683,-0.183438 -0.27272,-0.531321 -0.32421,-0.773071 -0.13422,-0.630189 -0.64451,-1.603296 -0.84076,-1.603296 -0.11809,0 -0.24917,1.029143 -0.28212,2.214943 -0.0192,0.690832 -0.0739,1.328699 -0.12166,1.417483 -0.29852,0.555403 -0.38568,0.885465 -0.41787,1.582436 -0.0325,0.703855 -0.0212,0.770347 0.16959,1.000575 0.28436,0.343079 0.32151,0.567139 0.17553,1.058717 -0.0694,0.233762 -0.11092,0.529285 -0.0922,0.656717 0.0191,0.130357 -4e-5,0.210645 -0.0438,0.18357 -0.0712,-0.044 -0.0562,-0.270325 0.0804,-1.215964 0.0373,-0.258069 0.003,-0.369469 -0.1928,-0.625359 -0.22086,-0.288702 -0.23728,-0.361397 -0.22581,-0.999249 0.007,-0.378343 -0.002,-0.687895 -0.0192,-0.687895 -0.0173,0 -0.11271,0.159144 -0.21194,0.353655 -0.0992,0.194511 -0.35965,0.522825 -0.578706,0.729586 -0.301366,0.284451 -0.411713,0.457094 -0.453462,0.709456 -0.09153,0.553276 -0.211357,0.814737 -0.152855,0.333526 0.07235,-0.595109 0.144436,-0.745511 0.581022,-1.212257 0.360701,-0.38562 0.729061,-0.977924 1.112891,-1.78947 0.20804,-0.439872 0.31566,-1.573612 0.16644,-1.753411 -0.12871,-0.155078 -0.12547,-0.522054 0.0123,-1.390285 0.11585,-0.730357 0.0261,-1.212196 -0.28918,-1.553222 -0.0988,-0.106879 -0.18322,-0.294487 -0.18754,-0.416907 -0.004,-0.122419 -0.0535,-0.485232 -0.1092,-0.80625 -0.0557,-0.321018 -0.0956,-0.733755 -0.0886,-0.917194 0.007,-0.183439 0.009,-0.366727 0.005,-0.407306 -0.008,-0.07686 -0.34125,0.313105 -0.34125,0.399389 0,0.188185 -0.564959,1.182261 -0.841001,1.479786 -0.184986,0.199386 -0.493557,0.624303 -0.68571,0.94426 -0.377746,0.628988 -0.359773,0.505456 -0.315706,2.169843 0.0097,0.366878 -0.0195,0.7893 -0.06491,0.938715 -0.09207,0.302893 -0.676093,1.300086 -0.729906,1.246272 -0.01892,-0.01892 0.116459,-0.292558 0.300839,-0.608083 0.347599,-0.594827 0.408834,-0.829736 0.231685,-0.888785 -0.08215,-0.02738 -0.08263,-0.134262 -0.0024,-0.517084 0.07174,-0.342011 0.07576,-0.530136 0.01381,-0.645889 -0.04808,-0.08983 -0.07516,-0.441938 -0.0602,-0.782468 0.0182,-0.414248 -0.0034,-0.619082 -0.06528,-0.618952 -0.210555,4.5e-4 -0.83902,0.663964 -0.936244,0.988471 -0.104989,0.350422 -0.512474,0.764058 -0.74952,0.760832 -0.08043,-0.0011 -0.02963,-0.05612 0.119973,-0.129919 0.264962,-0.130718 0.318024,-0.208164 0.599395,-0.874821 0.152972,-0.362441 0.788972,-0.994513 1.000691,-0.994513 0.09801,0 0.514797,-0.507744 0.519798,-0.63323 0.0016,-0.04153 0.18438,-0.273181 0.406053,-0.514777 0.221676,-0.241597 0.582248,-0.776703 0.80127,-1.189125 0.401045,-0.755171 0.591053,-1.000025 0.985763,-1.270324 0.27127,-0.185757 0.35137,-0.585412 0.2471,-1.232832 -0.0775,-0.481467 -0.0715,-0.507502 0.29023,-1.249381 0.20317,-0.416717 0.34747,-0.779609 0.32065,-0.806426 -0.0268,-0.02682 -0.3216,-0.0665 -0.65507,-0.08819 -0.33347,-0.02169 -0.64477,-0.07011 -0.69177,-0.107609 -0.047,-0.0375 -0.290899,-0.09445 -0.541983,-0.126567 -0.251081,-0.03211 -0.557834,-0.10957 -0.68167,-0.172123 -0.255238,-0.128927 -0.827079,-0.151966 -0.946348,-0.03813 -0.04357,0.04158 -0.356095,0.157181 -0.694505,0.256884 -0.485116,0.142926 -0.703847,0.263649 -1.033838,0.5706 -0.230198,0.214126 -0.487132,0.501885 -0.570966,0.639464 -0.08383,0.137579 -0.424449,0.439781 -0.756928,0.671559 -0.564538,0.393553 -0.630819,0.473398 -1.0025,1.207659 -0.218898,0.432434 -0.397995,0.890982 -0.397995,1.018996 0,0.128013 -0.0791,0.447564 -0.175776,0.710111 -0.101785,0.276428 -0.202586,0.820606 -0.239477,1.29282 -0.04138,0.529721 -0.107741,0.865717 -0.189386,0.958885 -0.06912,0.07888 -0.184422,0.259509 -0.256214,0.401389 -0.120248,0.237637 -0.117721,0.309241 0.03209,0.908737 0.116967,0.468069 0.157345,0.883177 0.143817,1.478573 l -0.01881,0.827799 0.387165,0.360604 c 0.517565,0.482055 0.678706,0.806781 0.616601,1.242542 -0.149466,1.048716 -0.150768,1.193591 -0.01326,1.476423 l 0.13839,0.284628 -0.162991,-0.187098 c -0.201914,-0.231772 -0.303366,-0.902705 -0.18398,-1.216715 0.209594,-0.551273 0.04385,-1.033537 -0.490763,-1.427962 -0.454493,-0.335314 -0.525298,-0.499831 -0.550103,-1.278168 -0.01961,-0.615121 -0.04729,-0.732543 -0.199816,-0.847597 -0.120285,-0.09073 -0.171783,-0.212988 -0.160605,-0.381283 0.02048,-0.308293 -0.08527,-0.789706 -0.173466,-0.789706 -0.03621,0 -0.201448,0.215749 -0.367194,0.479443 -0.232775,0.370333 -0.403831,0.532795 -0.751647,0.713882 -0.621882,0.323778 -0.759341,0.501333 -0.966983,1.249033 -0.188674,0.679395 -0.160745,0.98628 0.130582,1.434873 0.21676,0.333772 0.447948,1.257753 0.449009,1.794547 0.0011,0.474203 0.03159,0.580951 0.239429,0.833814 0.131093,0.159493 0.266859,0.383791 0.301697,0.49844 0.07687,0.252979 0.283755,0.500288 0.418507,0.500288 0.135819,0 0.543647,0.769183 0.536498,1.011859 -0.0039,0.130688 -0.04518,0.06943 -0.122573,-0.181671 -0.11887,-0.385662 -0.20461,-0.495734 -0.684586,-0.878853 -0.149045,-0.118967 -0.270989,-0.267036 -0.270989,-0.329044 0,-0.062 -0.03264,-0.132911 -0.07254,-0.15757 -0.07227,-0.04466 -0.366514,1.013473 -0.339048,1.21924 0.0079,0.05949 0.01,0.394798 0.0046,0.745127 -0.008,0.514229 -0.04292,0.674899 -0.181351,0.833814 l -0.171468,0.196847 0.108889,-0.208455 c 0.05989,-0.114649 0.134625,-0.658712 0.166076,-1.209029 0.03145,-0.550315 0.08302,-1.216266 0.114586,-1.479891 0.04217,-0.352126 0.02716,-0.515753 -0.05656,-0.61663 -0.06571,-0.07918 -0.135551,-0.44263 -0.164957,-0.858467 -0.02805,-0.396632 -0.09733,-0.807723 -0.153956,-0.913533 l -0.102957,-0.192381 -0.248528,0.237752 c -0.136689,0.130765 -0.321707,0.355986 -0.41115,0.500491 -0.123822,0.200054 -0.206975,0.253037 -0.34853,0.222068 -0.142782,-0.03124 -0.158139,-0.02114 -0.0662,0.04359 0.0894,0.06293 0.0963,0.112464 0.02725,0.195665 -0.05085,0.06127 -0.118957,0.354925 -0.151344,0.65256 -0.04875,0.448006 -0.123812,0.639683 -0.436094,1.113573 -0.246582,0.374187 -0.467215,0.610026 -0.637112,0.681011 -0.446058,0.186378 -0.576323,0.3956 -0.512265,0.822772 0.05228,0.348626 0.03542,0.396219 -0.253839,0.716389 -0.170412,0.188624 -0.388119,0.38255 -0.483793,0.430945 -0.09568,0.0484 0.0039,-0.07862 0.221353,-0.282255 0.393819,-0.36885 0.395256,-0.372189 0.381117,-0.885171 -0.01275,-0.462926 0.0099,-0.540115 0.224806,-0.764384 0.13145,-0.137202 0.30639,-0.24946 0.388757,-0.24946 0.09469,0 0.234588,-0.157424 0.38046,-0.428133 0.126887,-0.235473 0.293767,-0.545028 0.370848,-0.687898 0.08561,-0.158686 0.136644,-0.430572 0.131152,-0.698751 -0.0067,-0.329946 0.0361,-0.499981 0.172537,-0.684519 0.09984,-0.135041 0.181528,-0.277495 0.181528,-0.316564 0,-0.03907 0.06866,-0.144738 0.152585,-0.234818 0.406842,-0.436694 0.435661,-0.544282 0.343228,-1.281437 -0.07119,-0.567718 -0.06291,-0.79986 0.0455,-1.276513 0.07288,-0.320432 0.110884,-0.604231 0.08445,-0.630665 -0.02643,-0.02643 -0.224946,0.01993 -0.441139,0.103036 -0.216191,0.0831 -0.618207,0.195621 -0.893366,0.250039 -0.275159,0.05442 -0.528428,0.106584 -0.562824,0.115926 -0.03439,0.0093 -0.117237,0.01699 -0.184092,0.01699 -0.142354,0 -0.521576,0.61512 -0.637048,1.033333 -0.04414,0.159861 -0.238588,0.453837 -0.432102,0.65328 -0.223866,0.230724 -0.388233,0.497943 -0.451884,0.734644 -0.136933,0.509244 -0.543547,0.968648 -1.092078,1.233863 -0.470223,0.227352 -0.513363,0.274035 -0.687486,0.743945 -0.07441,0.200814 -0.199207,0.315278 -0.478369,0.438764 -0.207732,0.09189 -0.396457,0.148312 -0.419386,0.125384 -0.02294,-0.02294 0.130916,-0.118044 0.341879,-0.211363 0.341514,-0.151069 0.391107,-0.207785 0.452316,-0.517295 0.05956,-0.301162 0.12424,-0.379899 0.483973,-0.589139 0.774311,-0.450379 1.207352,-0.992045 1.207352,-1.510202 V 70.51393 l -0.479441,0.16873 c -0.458248,0.161269 -0.8049,0.167418 -1.315635,0.02334 -0.114324,-0.03225 -0.330507,0.0619 -0.667052,0.290507 -0.36585,0.248515 -0.57531,0.335505 -0.789742,0.327983 l -0.291835,-0.01024 0.341879,-0.05605 c 0.188034,-0.03082 0.488206,-0.170786 0.667051,-0.311023 0.523891,-0.410803 0.622226,-0.443566 1.01594,-0.338476 0.41289,0.110207 0.994161,-0.01053 1.332669,-0.276791 0.11476,-0.09027 0.250497,-0.164455 0.301638,-0.164852 0.155025,-0.0013 0.718341,-0.583102 0.718341,-0.742033 0,-0.157516 0.586854,-1.115608 0.742109,-1.211561 0.145507,-0.08993 0.109206,-0.167303 -0.150458,-0.320692 -0.332719,-0.196542 -0.515607,-0.180672 -1.04566,0.09074 -0.323898,0.165848 -0.542346,0.223774 -0.751716,0.199331 -0.429871,-0.05018 -0.360614,-0.141242 0.107649,-0.141534 0.298865,-1.83e-4 0.491244,-0.05913 0.748387,-0.229298 0.390758,-0.258592 0.623951,-0.282197 1.07759,-0.109079 0.555582,0.212024 1.003247,0.21188 1.588807,-5.02e-4 0.296185,-0.107431 0.599622,-0.247122 0.674303,-0.310424 0.07468,-0.0633 0.267116,-0.167221 0.427623,-0.23093 0.439602,-0.174485 0.90625,-0.599195 1.341514,-1.220949 0.27637,-0.394781 0.30335,-0.512439 0.360333,-1.571499 0.02233,-0.415026 0.08005,-0.858348 0.128262,-0.985158 0.04821,-0.126811 0.08766,-0.266769 0.08766,-0.311019 0,-0.04425 -0.342421,0.09509 -0.760936,0.309653 -0.809324,0.414914 -0.999623,0.446251 -1.539801,0.253559 -0.32267,-0.115102 -0.964798,-0.07608 -1.206537,0.07333 -0.11706,0.07235 -0.412634,0.138799 -0.814965,0.183222 -0.316222,0.03492 -0.497366,-0.02625 -1.442791,-0.4872 l -1.081167,-0.527128 -0.722365,0.148691 c -0.792713,0.163172 -1.720332,0.525405 -2.210086,0.863031 -0.357023,0.246126 -0.503015,0.519495 -0.654042,1.224697 -0.08174,0.38169 -0.193244,0.594507 -0.499533,0.953443 -0.370719,0.434436 -0.647907,1.080689 -0.71056,1.656644 -0.02601,0.239101 -0.189812,0.543125 -0.356513,0.661707 -0.07298,0.05191 -0.520872,0.404249 -0.99532,0.782973 -0.936175,0.747292 -1.180208,1.11125 -1.180208,1.760207 0,0.181914 -0.05781,0.442558 -0.128479,0.579207 -0.07066,0.136647 -0.107635,0.282175 -0.08216,0.323395 0.02548,0.04122 -0.06153,0.237106 -0.193355,0.435303 -0.34821,0.523552 -0.382125,0.755647 -0.170911,1.169659 0.159073,0.311806 0.16844,0.395198 0.08501,0.756656 -0.05157,0.223424 -0.09496,0.600353 -0.09642,0.837618 -0.0016,0.246348 -0.05516,0.500819 -0.125071,0.593246 -0.06733,0.08902 -0.122421,0.119374 -0.122421,0.06745 0,-0.05192 0.0349,-0.115969 0.07757,-0.142335 0.04266,-0.02635 0.07921,-0.300612 0.08121,-0.609436 0.0021,-0.308822 0.03774,-0.677217 0.07941,-0.818655 0.06016,-0.204161 0.03582,-0.341628 -0.118089,-0.667049 -0.106624,-0.225441 -0.196022,-0.517888 -0.198665,-0.649878 l -0.0048,-0.239985 -0.259623,0.200216 c -0.142793,0.110117 -0.347231,0.364006 -0.454305,0.564197 -0.165873,0.310116 -0.296857,0.415055 -0.885071,0.709078 -0.747152,0.373468 -1.069202,0.71936 -1.069202,1.148356 0,0.359089 -0.272847,0.821504 -0.68724,1.164716 -0.33515,0.277583 -0.474824,0.523648 -0.697489,1.228778 -0.02016,0.06389 -0.05443,0.09841 -0.07612,0.07672 -0.0217,-0.02169 0.02037,-0.242816 0.09349,-0.491379 0.09914,-0.33702 0.235852,-0.551722 0.537699,-0.844409 0.456102,-0.442257 0.613646,-0.709602 0.700593,-1.188884 0.08524,-0.469858 0.262258,-0.773362 0.532612,-0.913167 0.128677,-0.06654 0.280723,-0.177329 0.337875,-0.246198 0.05715,-0.06886 0.210802,-0.148685 0.341442,-0.177379 0.318519,-0.06996 0.507146,-0.254606 0.753761,-0.737862 0.113419,-0.222255 0.281263,-0.434229 0.372981,-0.471051 0.506685,-0.203428 0.934836,-1.120447 0.714954,-1.5313 -0.06029,-0.112652 -0.09389,-0.339532 -0.07467,-0.504174 l 0.03495,-0.29935 -0.879592,0.0521 c -0.523869,0.03103 -1.043083,0.113311 -1.283848,0.203449 -0.287996,0.107825 -0.523153,0.137268 -0.817708,0.102383 -0.333325,-0.03948 -0.456978,-0.0168 -0.638014,0.116999 -0.123507,0.09128 -0.50597,0.228568 -0.849918,0.305078 -0.749443,0.166708 -0.99473,0.350977 -1.33128,1.000101 -0.221393,0.427016 -0.252963,0.57314 -0.252963,1.170823 v 0.682914 l -0.375216,0.368247 c -0.268552,0.263562 -0.375216,0.43494 -0.375216,0.602858 0,0.421209 -0.447302,1.264674 -0.834242,1.573107 -0.195808,0.15608 -0.405673,0.396348 -0.466365,0.533926 -0.07336,0.166296 -0.111443,0.199163 -0.113612,0.09805 -0.0019,-0.08365 0.220469,-0.379322 0.493924,-0.65705 0.508685,-0.516636 0.72409,-0.953844 0.801981,-1.627772 0.02715,-0.234882 0.124463,-0.398174 0.383794,-0.643996 l 0.347427,-0.32933 0.01347,-0.796319 c 0.0074,-0.437975 0.04455,-0.887711 0.08254,-0.999413 l 0.06907,-0.203094 -0.243195,0.17317 c -0.347038,0.247113 -1.91943,0.941758 -2.131753,0.941758 -0.23369,0 -0.980726,0.693343 -1.209003,1.122108 -0.254984,0.478922 -0.503901,0.678622 -1.037481,0.832342 -0.453274,0.130583 -0.555197,0.226468 -0.689756,0.648875 -0.02516,0.07897 -0.225546,0.256482 -0.445312,0.394478 -0.346149,0.217352 -0.478904,0.251113 -0.992846,0.252484 -0.47611,0.0013 -0.637524,0.0364 -0.817359,0.177853 -0.123248,0.09695 -0.242851,0.157509 -0.265779,0.13458 -0.08145,-0.08145 0.410019,-0.394282 0.624541,-0.397544 1.113594,-0.01693 1.597424,-0.220811 1.77293,-0.747118 0.119335,-0.357857 0.245597,-0.458771 0.779801,-0.623257 0.536126,-0.165077 0.657522,-0.264896 0.799254,-0.657199 0.0639,-0.176866 0.229142,-0.42227 0.367204,-0.545343 0.492572,-0.439097 0.499557,-0.470504 0.152358,-0.685086 -0.256172,-0.158324 -0.408265,-0.18927 -0.835848,-0.170066 -0.442791,0.0199 -0.585605,-0.01188 -0.934204,-0.207846 -0.382492,-0.215009 -0.428125,-0.222793 -0.647187,-0.110398 -0.129624,0.06651 -0.396531,0.280387 -0.593127,0.475287 -0.364519,0.361371 -0.635232,0.48509 -0.907523,0.414743 -0.08783,-0.0227 -0.03937,-0.04351 0.11425,-0.04908 0.199577,-0.0072 0.378076,-0.115999 0.708742,-0.431851 0.243088,-0.232198 0.545988,-0.47748 0.673113,-0.54507 0.209775,-0.111535 0.266613,-0.107196 0.615114,0.04696 0.211188,0.09342 0.46551,0.169852 0.565158,0.169852 0.09965,0 0.231706,0.0469 0.293468,0.104227 0.07306,0.06782 0.0932,0.07018 0.05764,0.0068 -0.03436,-0.06127 0.04014,-0.118261 0.200679,-0.153522 0.187113,-0.0411 0.371088,1.51e-4 0.688623,0.154384 0.383521,0.186288 0.480994,0.201406 0.848548,0.131609 0.676642,-0.128489 1.854745,-0.761698 2.439558,-1.311219 0.393079,-0.369353 0.637501,-0.525002 1.000578,-0.63717 0.657349,-0.203081 1.003186,-0.376004 1.062828,-0.531431 0.03311,-0.08629 -0.09143,-0.272442 -0.36594,-0.546952 -0.397959,-0.39796 -0.441846,-0.418884 -1.004752,-0.47903 -0.353735,-0.0378 -0.72072,-0.137142 -0.919679,-0.248962 -0.307736,-0.172958 -0.364976,-0.178869 -0.812405,-0.08389 -1.376651,0.292221 -1.47886,0.297999 -1.748253,0.09883 -0.137523,-0.101676 -0.399968,-0.204974 -0.583211,-0.229552 -0.305313,-0.04095 -0.369358,-0.01255 -0.766013,0.339742 -0.350788,0.311549 -0.491599,0.384188 -0.742747,0.383153 -0.170442,-6.87e-4 -0.361857,-0.03418 -0.425368,-0.07441 -0.07134,-0.04518 0.02715,-0.05705 0.257686,-0.03107 0.350205,0.03947 0.399788,0.01841 0.806151,-0.3425 0.506637,-0.449965 0.793425,-0.490724 1.472486,-0.209269 l 0.422923,0.175292 0.704337,-0.19304 c 0.387384,-0.106172 0.732477,-0.185054 0.766873,-0.175292 0.13748,0.03902 0.04882,-0.158828 -0.196246,-0.437947 -0.14233,-0.162105 -0.240692,-0.294736 -0.218583,-0.294736 0.02212,0 0.333814,0.22513 0.692679,0.500288 l 0.652483,0.500288 h 0.738431 0.738431 l 0.432761,0.398507 c 0.723498,0.666232 1.244168,0.814534 1.993246,0.567736 0.196506,-0.06474 0.620916,-0.114112 0.943134,-0.10971 0.497491,0.0068 0.652753,-0.02841 1.029438,-0.233426 0.786008,-0.427799 2.274673,-1.831892 2.195883,-2.071135 -0.0131,-0.03973 0.03395,-0.160355 0.104518,-0.268056 0.07057,-0.1077 0.128305,-0.233669 0.128305,-0.27993 0,-0.04626 0.131326,-0.353955 0.291835,-0.683766 0.16051,-0.32981 0.291836,-0.608263 0.291836,-0.618783 0,-0.01052 -0.140709,0.01528 -0.312682,0.05733 -0.171974,0.04205 -0.706655,0.09971 -1.188183,0.128133 -0.481526,0.02842 -1.070266,0.115621 -1.308309,0.193769 -0.42155,0.138393 -0.447247,0.137228 -0.988105,-0.04479 -0.640961,-0.215704 -1.142289,-0.643634 -1.373346,-1.172279 -0.145598,-0.333118 -0.316667,-0.536561 -0.785683,-0.934374 -0.704202,-0.597292 -1.16449,-0.657372 -2.002584,-0.261391 -0.495967,0.234331 -0.566417,0.246837 -0.893863,0.158665 -0.222155,-0.05982 -0.584766,-0.07423 -0.966917,-0.03842 -0.55209,0.05174 -0.668965,0.09691 -1.203762,0.465329 -0.717452,0.494245 -0.968713,0.55094 -1.614797,0.364365 -0.27188,-0.07851 -0.684932,-0.159579 -0.917895,-0.180145 -0.410776,-0.03626 -0.440991,-0.02336 -1.000575,0.427044 -0.54924,0.442085 -0.60004,0.464488 -1.055573,0.465492 -0.318323,7.14e-4 -0.65904,0.0733 -1.017545,0.216823 -0.529942,0.21215 -0.698395,0.358437 -1.422236,1.235084 -0.137581,0.166623 -0.478864,0.48639 -0.75841,0.710593 l -0.508265,0.407642 -0.148418,0.865899 c -0.125912,0.734574 -0.132601,0.928615 -0.04411,1.279431 0.152575,0.604888 0.135369,0.927653 -0.06381,1.197057 -0.09695,0.13113 -0.212664,0.364935 -0.257148,0.51957 -0.05418,0.188323 -0.08336,0.223309 -0.0884,0.105963 -0.0041,-0.09636 0.08629,-0.35161 0.200935,-0.567237 0.254783,-0.479182 0.264009,-0.771933 0.03211,-1.018778 -0.149728,-0.159378 -0.203211,-0.172773 -0.354373,-0.08876 -0.09791,0.05442 -0.196789,0.118475 -0.219718,0.142338 -0.02294,0.02387 -0.14384,0.08825 -0.268687,0.143081 -0.131246,0.05764 -0.279336,0.224968 -0.351086,0.396687 -0.06825,0.163352 -0.346866,0.624266 -0.619141,1.024261 -0.442066,0.649425 -0.500441,0.784513 -0.545425,1.262192 -0.05839,0.619966 -0.314452,1.109464 -0.743873,1.422 -0.155615,0.113261 -0.363339,0.319101 -0.461608,0.457425 -0.09827,0.138322 -0.178671,0.200261 -0.178671,0.137636 0,-0.06262 0.241808,-0.355668 0.53735,-0.651211 0.574715,-0.574714 0.670579,-0.813289 0.730274,-1.817401 0.01363,-0.229299 0.07182,-0.466619 0.129307,-0.527384 0.190008,-0.200834 0.641925,-0.875979 0.900459,-1.345255 0.181039,-0.328607 0.342953,-0.504071 0.560666,-0.607594 0.425193,-0.202177 0.561104,-0.450469 0.771935,-1.410217 l 0.182988,-0.833009 -0.200861,0.05041 c -0.110474,0.02773 -0.480721,0.0859 -0.822775,0.129264 -0.342053,0.04337 -0.736962,0.138344 -0.877575,0.211059 -0.140613,0.07271 -0.538189,0.186264 -0.883504,0.252333 -0.345316,0.06607 -0.665851,0.143616 -0.712304,0.172326 -0.04645,0.02871 -0.117213,5.03e-4 -0.157244,-0.06271 -0.05588,-0.08822 -0.07308,-0.08989 -0.07406,-0.0072 -0.0021,0.168518 -0.263639,0.404643 -0.6051,0.546087 -0.220855,0.09148 -0.379169,0.246253 -0.54198,0.529841 -0.321209,0.559496 -0.971111,1.170752 -1.37269,1.291069 -0.395624,0.118531 -0.512165,0.278707 -0.790035,1.085829 -0.115226,0.33469 -0.297712,0.702331 -0.405524,0.81698 -0.279289,0.297 -0.454372,0.76504 -0.45906,1.227199 -0.0029,0.28622 -0.08411,0.551674 -0.287788,0.940715 -0.336671,0.643075 -0.373599,0.606147 -0.08338,-0.08338 0.115263,-0.273849 0.208454,-0.658566 0.208454,-0.860549 0,-0.474964 0.131631,-0.860547 0.4204,-1.231461 0.128164,-0.164621 0.275844,-0.464793 0.328181,-0.667052 0.05234,-0.202255 0.113149,-0.430043 0.135138,-0.506195 0.03089,-0.106966 -0.08122,-0.07527 -0.492871,0.139369 -0.293068,0.152805 -0.697153,0.32207 -0.897964,0.376145 -0.293621,0.07906 -0.50895,0.247452 -1.099711,0.859978 -0.627611,0.650735 -0.752978,0.828633 -0.860801,1.221489 -0.202758,0.738748 -0.333682,1.044945 -0.437266,1.022648 -0.05326,-0.01146 -0.08745,0.0226 -0.07599,0.07571 0.02119,0.09819 -0.03854,0.134133 -0.862412,0.518885 -0.673769,0.314653 -0.985456,0.663877 -1.47914,1.657286 -0.240852,0.484651 -0.486809,0.921764 -0.546568,0.97136 -0.05976,0.0496 -0.236405,0.11008 -0.392544,0.134411 -0.265332,0.04134 -0.270261,0.03809 -0.07543,-0.04971 z m 31.434757,-6.580664 c 0,-0.04586 -0.03974,-0.08338 -0.0883,-0.08338 -0.04857,0 -0.06511,0.03752 -0.03677,0.08338 0.02834,0.04586 0.06808,0.08338 0.0883,0.08338 0.02022,0 0.03677,-0.03752 0.03677,-0.08338 z m 0.08338,-0.50029 c 0,-0.04586 -0.03974,-0.08338 -0.0883,-0.08338 -0.04857,0 -0.06511,0.03752 -0.03677,0.08338 0.02834,0.04586 0.06808,0.08338 0.0883,0.08338 0.02021,0 0.03677,-0.03752 0.03677,-0.08338 z m 0.500288,-2.218524 c 0,-0.01802 -0.05628,-0.03277 -0.125071,-0.03277 -0.06879,0 -0.125072,0.03634 -0.125072,0.08076 0,0.04442 0.05628,0.05917 0.125072,0.03277 0.06879,-0.0264 0.125071,-0.06274 0.125071,-0.08076 z m 0.583671,-0.401038 c 0,-0.06497 0.0469,-0.137049 0.104227,-0.16018 0.07856,-0.0317 0.07928,-0.04368 0.0029,-0.04864 -0.05571,-0.0036 -0.141454,0.06846 -0.190543,0.16018 -0.06051,0.113064 -0.06145,0.166763 -0.0029,0.166763 0.04747,0 0.08631,-0.05316 0.08631,-0.118124 z m 0.538416,-0.459784 c 0.02638,-0.04269 0.0098,-0.101188 -0.03677,-0.129993 -0.04661,-0.0288 -0.08474,0.0061 -0.08474,0.07762 0,0.146461 0.05003,0.168027 0.12151,0.05237 z m 19.002962,-0.130833 c 0.02641,-0.06879 0.01164,-0.125072 -0.03277,-0.125072 -0.04442,0 -0.08076,0.05628 -0.08076,0.125072 0,0.06879 0.01474,0.125072 0.03277,0.125072 0.01802,0 0.05437,-0.05628 0.08076,-0.125072 z M 61.456816,66.832479 c -0.02834,-0.04586 -0.09622,-0.08281 -0.150838,-0.08211 -0.05967,7.67e-4 -0.04939,0.03354 0.02577,0.08211 0.160187,0.10352 0.18905,0.10352 0.125071,0 z m 0.375217,-0.449677 c 0,-0.01802 -0.05823,-0.05512 -0.129403,-0.08243 -0.0742,-0.02847 -0.107672,-0.0145 -0.07846,0.03277 0.04897,0.07923 0.207865,0.117188 0.207865,0.04966 z M 92.05776,66.165428 c 0.02834,-0.04586 0.0118,-0.08338 -0.03677,-0.08338 -0.04856,0 -0.0883,0.03752 -0.0883,0.08338 0,0.04586 0.01654,0.08338 0.03677,0.08338 0.02021,0 0.05996,-0.03752 0.0883,-0.08338 z M 80.217613,65.748521 c 0.02834,-0.04586 -0.0092,-0.08338 -0.08338,-0.08338 -0.0742,0 -0.111726,0.03752 -0.08338,0.08338 0.02834,0.04586 0.06587,0.08338 0.08338,0.08338 0.01752,0 0.05504,-0.03752 0.08338,-0.08338 z m -1.709316,-0.166762 c 0,-0.04586 -0.01654,-0.08338 -0.03677,-0.08338 -0.02021,0 -0.05996,0.03752 -0.0883,0.08338 -0.02834,0.04586 -0.0118,0.08338 0.03677,0.08338 0.04856,0 0.0883,-0.03752 0.0883,-0.08338 z m 19.719681,0 c 0.02834,-0.04586 0.0118,-0.08338 -0.03677,-0.08338 -0.04857,0 -0.0883,0.03752 -0.0883,0.08338 0,0.04586 0.01654,0.08338 0.03677,0.08338 0.02021,0 0.05996,-0.03752 0.0883,-0.08338 z M 76.507144,64.914708 c 0,-0.04586 -0.03973,-0.08338 -0.0883,-0.08338 -0.04857,0 -0.06511,0.03752 -0.03677,0.08338 0.02834,0.04586 0.06808,0.08338 0.0883,0.08338 0.02021,0 0.03677,-0.03752 0.03677,-0.08338 z m 0.750433,-0.130939 c 0,-0.02293 -0.07504,-0.0015 -0.166764,0.04756 -0.09172,0.04909 -0.166762,0.108009 -0.166762,0.130939 0,0.02293 0.07504,0.0015 0.166762,-0.04756 0.09172,-0.04909 0.166764,-0.108009 0.166764,-0.130939 z m 0.291833,0.130939 c 0.02834,-0.04586 0.01402,-0.08338 -0.03185,-0.08338 -0.04586,0 -0.106572,0.03752 -0.134914,0.08338 -0.02834,0.04586 -0.01402,0.08338 0.03185,0.08338 0.04586,0 0.106571,-0.03752 0.134914,-0.08338 z m 0.752639,-0.23404 c -0.02567,-0.02567 -0.09295,-5.3e-5 -0.149514,0.05693 -0.08173,0.08235 -0.07216,0.09193 0.04667,0.04668 0.08223,-0.03131 0.128511,-0.07794 0.102839,-0.103608 z m 2.375744,-0.143084 c 0.08812,-0.106174 0.08296,-0.118375 -0.03148,-0.07446 -0.07528,0.02889 -0.136864,0.08603 -0.136864,0.126981 0,0.107225 0.04827,0.09217 0.168344,-0.05252 z m -13.21752,-0.873595 c 0.02834,-0.04586 0.0118,-0.08338 -0.03677,-0.08338 -0.04857,0 -0.0883,0.03752 -0.0883,0.08338 0,0.04586 0.01654,0.08338 0.03677,0.08338 0.02022,0 0.05996,-0.03752 0.08831,-0.08338 z m 7.62939,-0.03277 c 0,-0.0791 -0.249592,-0.118962 -0.294087,-0.04697 -0.0271,0.04386 0.02798,0.07974 0.122402,0.07974 0.09443,0 0.171685,-0.01474 0.171685,-0.03277 z m 5.726888,-0.316389 c -0.02662,-0.06652 -0.04638,-0.04676 -0.05038,0.05038 -0.0036,0.0879 0.01609,0.137145 0.04379,0.109438 0.02771,-0.02771 0.03067,-0.09962 0.0066,-0.159814 z M 69.4044,63.205039 c -0.05232,-0.114843 -0.110845,-0.1931 -0.13004,-0.173904 -0.03894,0.03894 0.130114,0.38271 0.188208,0.38271 0.02032,0 -0.0058,-0.09396 -0.05817,-0.208806 z m 5.560189,0.125424 c 0.02834,-0.04586 0.0118,-0.08338 -0.03677,-0.08338 -0.04857,0 -0.0883,0.03752 -0.0883,0.08338 0,0.04586 0.01654,0.08338 0.03677,0.08338 0.02021,0 0.05996,-0.03752 0.0883,-0.08338 z m -4.424016,-0.40913 c 0.02569,-0.04158 -0.02837,-0.05597 -0.12015,-0.03197 -0.194693,0.05091 -0.219305,0.107571 -0.04673,0.107571 0.06609,0 0.141179,-0.03402 0.166878,-0.07561 z m 19.281159,-0.273554 c -0.02662,-0.06652 -0.04637,-0.04676 -0.05038,0.05038 -0.0036,0.0879 0.01609,0.137145 0.04379,0.109438 0.02771,-0.02771 0.03067,-0.09962 0.0066,-0.159814 z m -25.738402,0.01563 c 0,-0.04586 -0.03974,-0.08338 -0.08831,-0.08338 -0.04856,0 -0.06511,0.03752 -0.03677,0.08338 0.02834,0.04586 0.06808,0.08338 0.0883,0.08338 0.02021,0 0.03677,-0.03752 0.03677,-0.08338 z m 18.609318,-0.101447 c -0.05983,-0.05983 -0.09867,-0.06475 -0.09867,-0.01251 0,0.111296 0.09861,0.209903 0.154258,0.154255 0.02371,-0.02369 -0.0013,-0.08748 -0.05559,-0.141748 z m 4.460882,0.0024 c -0.02662,-0.06652 -0.04638,-0.04676 -0.05038,0.05038 -0.0036,0.0879 0.01609,0.137145 0.04379,0.109438 0.02771,-0.02771 0.03067,-0.09962 0.0066,-0.159814 z m 3.005567,0.04864 c -0.02771,-0.02771 -0.09962,-0.03067 -0.159814,-0.0066 -0.06652,0.02662 -0.04676,0.04637 0.05038,0.05038 0.0879,0.0036 0.137144,-0.01609 0.109437,-0.04379 z m -2.145332,-0.116386 c 0,-0.04586 -0.06566,-0.08281 -0.145918,-0.0821 -0.1247,0.0011 -0.12773,0.01303 -0.02085,0.0821 0.157358,0.101692 0.166762,0.101692 0.166762,0 z m 3.086693,-0.0436 c 0.08812,-0.106173 0.08296,-0.118374 -0.03148,-0.07446 -0.07528,0.02889 -0.136866,0.08603 -0.136866,0.126981 0,0.107224 0.04827,0.09217 0.168347,-0.05252 z m 9.920792,-0.003 c 0,-0.0715 -0.0381,-0.106425 -0.0847,-0.07762 -0.0466,0.02881 -0.0631,0.0873 -0.0368,0.129993 0.0715,0.115654 0.12151,0.09409 0.12151,-0.05237 z m -9.380397,-0.120154 c 0.02834,-0.04586 0.0118,-0.08338 -0.03677,-0.08338 -0.04857,0 -0.0883,0.03752 -0.0883,0.08338 0,0.04586 0.01654,0.08338 0.03677,0.08338 0.02021,0 0.05996,-0.03752 0.0883,-0.08338 z m 0.930111,-0.288238 c -0.02716,-0.07077 -0.08839,-0.128668 -0.136078,-0.128668 -0.05488,0 -0.04935,0.05982 0.01508,0.16297 0.115048,0.184221 0.19605,0.161258 0.121007,-0.0343 z m 0.172953,-0.762714 c -0.02771,-0.02771 -0.09962,-0.03067 -0.159814,-0.0066 -0.06652,0.02662 -0.04676,0.04638 0.05038,0.05038 0.0879,0.0036 0.137144,-0.01609 0.109437,-0.04379 z m -0.05045,-0.305384 c -0.08235,-0.08174 -0.09193,-0.07216 -0.04668,0.04668 0.03131,0.08223 0.07794,0.128509 0.103609,0.102837 0.02566,-0.02567 5.3e-5,-0.09295 -0.05693,-0.149514 z M 60.081025,60.578881 c -0.06613,-0.04087 -0.139004,-0.05555 -0.161932,-0.03262 -0.02294,0.02293 0.01241,0.07513 0.07855,0.116005 0.06613,0.04087 0.139001,0.05555 0.161933,0.03262 0.02294,-0.02293 -0.01241,-0.07513 -0.07855,-0.116004 z m 1.16734,-0.212454 c 0,-0.09851 -0.157652,-0.09832 -0.195472,2.34e-4 -0.03081,0.08028 -0.006,0.104909 0.07464,0.07398 0.06646,-0.0255 0.120828,-0.0589 0.120828,-0.07422 z m -1.000578,-0.03192 c 0,-0.02952 -0.112564,-0.06226 -0.250142,-0.07274 -0.137581,-0.01048 -0.250061,0.0097 -0.249955,0.0448 8.5e-5,0.03512 0.11267,0.06786 0.250145,0.07274 0.137472,0.0049 0.249952,-0.01528 0.249952,-0.0448 z m 10.13083,-0.08915 c 0.02834,-0.04586 0.0118,-0.08338 -0.03677,-0.08338 -0.04857,0 -0.0883,0.03752 -0.0883,0.08338 0,0.04586 0.01654,0.08338 0.03677,0.08338 0.02021,0 0.05996,-0.03752 0.0883,-0.08338 z m 31.170713,-0.430803 c 0.0481,-0.183729 0.001,-0.193699 -0.15882,-0.03375 -0.14971,0.149711 -0.14974,0.186616 -1.7e-4,0.186616 0.0654,0 0.13697,-0.06879 0.15896,-0.152866 z m -5.947865,-0.685923 c 0,-0.01802 -0.05628,-0.05437 -0.125072,-0.08076 -0.06879,-0.0264 -0.125071,-0.01165 -0.125071,0.03277 0,0.04442 0.05628,0.08076 0.125071,0.08076 0.06879,0 0.125072,-0.01474 0.125072,-0.03277 z m 0.250145,-0.004 c 0,-0.02023 -0.03752,-0.05996 -0.08338,-0.0883 -0.04586,-0.02834 -0.08338,-0.01179 -0.08338,0.03677 0,0.04857 0.03752,0.0883 0.08338,0.0883 0.04586,0 0.08338,-0.01655 0.08338,-0.03677 z m -1.293001,-0.379182 c 0.02921,-0.04727 -0.0043,-0.06124 -0.07846,-0.03277 -0.144449,0.05543 -0.170878,0.115196 -0.05094,0.115196 0.04315,0 0.101383,-0.03709 0.129402,-0.08243 z M 95.715,58.452657 c 0.02894,-0.07542 5.29e-4,-0.125072 -0.07185,-0.125072 -0.07227,0 -0.100785,0.04965 -0.07184,0.125072 0.0264,0.06879 0.05873,0.125072 0.07184,0.125072 0.01312,0 0.04545,-0.05628 0.07185,-0.125072 z m 5.24616,-0.295142 c -0.0244,-0.09354 -0.0631,-0.151439 -0.0859,-0.128668 -0.0451,0.04511 0.0346,0.298738 0.0938,0.298738 0.0201,0 0.0165,-0.07653 -0.008,-0.17007 z m 2.01955,0.08669 c 0.0283,-0.04586 -0.007,-0.08338 -0.0785,-0.08338 -0.0715,0 -0.12999,0.03752 -0.12999,0.08338 0,0.04586 0.0353,0.08338 0.0785,0.08338 0.0432,0 0.10165,-0.03752 0.12999,-0.08338 z m -6.728296,-0.377422 c -0.02567,-0.02567 -0.0723,0.02061 -0.103609,0.102837 -0.04525,0.118835 -0.03567,0.128412 0.04668,0.04668 0.05698,-0.05656 0.0826,-0.123841 0.05693,-0.149513 z m 0.349628,0.0439 c 0,-0.04586 -0.01654,-0.08338 -0.03677,-0.08338 -0.02021,0 -0.05996,0.03752 -0.0883,0.08338 -0.02834,0.04586 -0.0118,0.08338 0.03677,0.08338 0.04856,0 0.0883,-0.03752 0.0883,-0.08338 z m -2.918346,-0.03677 c 0,-0.02022 -0.03752,-0.05996 -0.08338,-0.0883 -0.04586,-0.02834 -0.08338,-0.01179 -0.08338,0.03677 0,0.04857 0.03752,0.0883 0.08338,0.0883 0.04586,0 0.08338,-0.01655 0.08338,-0.03677 z m 3.668778,-0.04661 c 0,-0.04586 -0.03974,-0.08338 -0.0883,-0.08338 -0.04856,0 -0.06511,0.03752 -0.03677,0.08338 0.02834,0.04586 0.06808,0.08338 0.0883,0.08338 0.02021,0 0.03677,-0.03752 0.03677,-0.08338 z m 4.038016,-0.145918 c -0.0415,-0.03439 -0.10347,-0.100057 -0.13769,-0.145917 -0.0355,-0.04758 -0.0628,-0.02074 -0.0635,0.06254 -7.9e-4,0.08111 0.0604,0.145917 0.13769,0.145917 0.0764,0 0.10501,-0.02814 0.0635,-0.06254 z m 2.69329,0.01216 c -0.0277,-0.02771 -0.0996,-0.03067 -0.15982,-0.0066 -0.0665,0.02662 -0.0467,0.04637 0.0504,0.05038 0.0879,0.0036 0.13714,-0.01609 0.10944,-0.04379 z m -0.30927,-0.160092 c 0.058,-0.0699 0.0814,-0.151195 0.0519,-0.18066 -0.0295,-0.02946 -0.0536,-0.0086 -0.0536,0.04639 0,0.05498 -0.0844,0.133899 -0.1876,0.175374 -0.12696,0.05103 -0.14374,0.07712 -0.0519,0.08069 0.0746,0.0029 0.18317,-0.0519 0.24118,-0.121801 z m -6.778146,-0.0067 c -0.0277,-0.02771 -0.09962,-0.03067 -0.159814,-0.0066 -0.06652,0.02662 -0.04676,0.04637 0.05038,0.05038 0.0879,0.0036 0.137144,-0.01609 0.109437,-0.04379 z m 2.39895,-0.03301 c 0.02834,-0.04586 -0.0092,-0.08338 -0.08338,-0.08338 -0.0742,0 -0.111723,0.03752 -0.08338,0.08338 0.02834,0.04586 0.06586,0.08338 0.08338,0.08338 0.01752,0 0.05504,-0.03752 0.08338,-0.08338 z m 1.709316,0.05061 c 0,-0.01802 -0.0582,-0.05512 -0.1294,-0.08243 -0.0742,-0.02848 -0.10767,-0.0145 -0.0785,0.03277 0.049,0.07923 0.20786,0.117188 0.20786,0.04966 z m 2.50144,-0.13215 c 0,-0.03415 -0.0938,-0.04417 -0.20845,-0.02225 -0.11465,0.02192 -0.20846,0.06779 -0.20846,0.101947 0,0.03415 0.0938,0.04417 0.20846,0.02225 0.11465,-0.02192 0.20845,-0.06779 0.20845,-0.101947 z m -6.609706,-0.1356 c -0.0277,-0.02771 -0.09962,-0.03067 -0.159814,-0.0066 -0.06652,0.02662 -0.04676,0.04637 0.05038,0.05038 0.0879,0.0036 0.137144,-0.01609 0.109437,-0.04379 z m 1.606828,0.0176 c 0,-0.01802 -0.05823,-0.05512 -0.129403,-0.08243 -0.0742,-0.02848 -0.107672,-0.0145 -0.07846,0.03277 0.04897,0.07923 0.207862,0.117188 0.207863,0.04966 z m -6.640351,-0.259065 c 0.0264,-0.06879 0.01164,-0.125072 -0.03277,-0.125072 -0.04442,0 -0.08076,0.05628 -0.08076,0.125072 0,0.06879 0.01474,0.125072 0.03277,0.125072 0.01802,0 0.05437,-0.05628 0.08076,-0.125072 z m 7.390783,0.04169 c 0,-0.04586 -0.03973,-0.08338 -0.0883,-0.08338 -0.04857,0 -0.06511,0.03752 -0.03677,0.08338 0.02834,0.04586 0.06808,0.08338 0.0883,0.08338 0.02021,0 0.03677,-0.03752 0.03677,-0.08338 z m -7.5877,-0.537058 c 0,-0.02022 -0.03752,-0.05996 -0.08338,-0.0883 -0.04586,-0.02834 -0.08338,-0.01179 -0.08338,0.03677 0,0.04857 0.03752,0.0883 0.08338,0.0883 0.04586,0 0.08338,-0.01655 0.08338,-0.03677 z M 89.51463,55.40732 c 0,-0.03622 -0.07504,-0.04623 -0.166762,-0.02224 -0.09172,0.02399 -0.166764,0.07324 -0.166764,0.10946 0,0.03622 0.07504,0.04623 0.166764,0.02224 0.09172,-0.02398 0.166762,-0.07324 0.166762,-0.10946 z m -1.873875,-0.14874 c -0.02566,-0.02567 -0.09295,-5.4e-5 -0.149513,0.05693 -0.08173,0.08235 -0.07216,0.09193 0.04668,0.04668 0.08223,-0.03131 0.128508,-0.07794 0.102835,-0.103607 z m 20.845335,-1.500863 c -0.0257,-0.02567 -0.093,-5.4e-5 -0.14952,0.05693 -0.0817,0.08235 -0.0722,0.09193 0.0467,0.04668 0.0822,-0.03131 0.12851,-0.07794 0.10284,-0.103608 z m 2.16511,-2.516588 c 0.0292,-0.04727 -0.004,-0.06124 -0.0785,-0.03277 -0.14445,0.05543 -0.17088,0.115196 -0.0509,0.115196 0.0431,0 0.10138,-0.03709 0.1294,-0.08243 z M 57.162679,72.719277 c 0,-0.141306 0.183589,-0.386541 0.35628,-0.475909 0.156229,-0.08085 0.146,-0.05144 -0.06444,0.18528 -0.137581,0.15476 -0.259525,0.297201 -0.270989,0.316539 -0.01146,0.01934 -0.02085,0.0077 -0.02085,-0.0259 z m -4.268081,-7.528002 c 0.06019,-0.02409 0.132107,-0.02112 0.159814,0.0066 0.02771,0.02771 -0.02154,0.04741 -0.109437,0.04379 -0.09713,-0.004 -0.116893,-0.02376 -0.05038,-0.05038 z"
       id="path2039" />
  </g>
</svg>
